{
.appVersion = "1352";
DisplayStrings = (
"AÁÂÄÀÅÃBCÇDEÉÊË/Edotaccent ÈFGHIÍÎÏÌJ/Jacute KLMNÑOÓÖÒÕPQRSTUÚÛÜÙVW/Wacute/Wcircumflex/Wdieresis/Wgrave XYÝ/Ycircumflex/Ydieresis/Ygrave Z/Zdotaccent 0123456789/space .,:;/ellipsis !¡?¿/bullet *///backslash -(){}[]/quotedblleft/quotedblright/dieresiscomb/dotaccentcomb/gravecomb/acutecomb/circumflexcomb/ringcomb/tildecomb/cedillacomb \012DAMAGE/space DRIVER"
);
customParameters = (
{
name = Axes;
value = (
{
Name = Weight;
Tag = wght;
}
);
}
);
date = "2021-11-27 11:11:27 +0000";
designer = " ";
familyName = Suspiscion_VAR;
fontMaster = (
{
ascender = 800;
capHeight = 700;
descender = -200;
id = "116FA8D2-93BA-48BE-A336-ADFD733FF7C5";
userData = {
GSCornerRadius = 315;
};
xHeight = 500;
},
{
ascender = 800;
capHeight = 700;
descender = -200;
id = "35B903E1-0971-4EA2-AC4E-2C87C1F50A16";
userData = {
GSCornerRadius = 115;
};
weight = Bold;
weightValue = 900;
xHeight = 500;
}
);
glyphs = (
{
glyphname = A;
lastChange = "2022-01-14 06:54:36 +0000";
layers = (
{
background = {
paths = (
{
closed = 1;
nodes = (
"492 700 OFFCURVE",
"82 700 OFFCURVE",
"82 700 CURVE",
"82 700 OFFCURVE",
"82 700 OFFCURVE",
"82 700 CURVE",
"82 700 OFFCURVE",
"82 700 OFFCURVE",
"82 700 CURVE",
"82 700 OFFCURVE",
"82 560 OFFCURVE",
"82 560 CURVE",
"82 560 OFFCURVE",
"378 560 OFFCURVE",
"411 560 CURVE",
"411 538 OFFCURVE",
"411 446 OFFCURVE",
"411 433 CURVE",
"388 433 OFFCURVE",
"331 433 OFFCURVE",
"326 433 CURVE SMOOTH",
"102 433 OFFCURVE",
"35 369 OFFCURVE",
"35 220 CURVE",
"35 230 OFFCURVE",
"35 215 OFFCURVE",
"35 197 CURVE SMOOTH",
"35 67 OFFCURVE",
"99 -12 OFFCURVE",
"204 -12 CURVE",
"204 -12 OFFCURVE",
"219 -12 OFFCURVE",
"219 -12 CURVE",
"273 -12 OFFCURVE",
"309 3 OFFCURVE",
"332 34 CURVE SMOOTH",
"358 68 OFFCURVE",
"367 121 OFFCURVE",
"367 192 CURVE SMOOTH",
"367 234 OFFCURVE",
"367 392 OFFCURVE",
"367 414 CURVE",
"375 414 OFFCURVE",
"403 414 OFFCURVE",
"411 414 CURVE",
"411 394 OFFCURVE",
"411 19 OFFCURVE",
"411 0 CURVE",
"485 0 OFFCURVE",
"575 0 OFFCURVE",
"575 0 CURVE",
"575 0 OFFCURVE",
"575 37 OFFCURVE",
"575 228 CURVE",
"575 374 OFFCURVE",
"575 534 OFFCURVE",
"575 700 CURVE"
);
},
{
closed = 1;
nodes = (
"181 242 OFFCURVE",
"181 252 OFFCURVE",
"181 252 CURVE",
"181 342 OFFCURVE",
"220 421 OFFCURVE",
"343 414 CURVE",
"343 414 OFFCURVE",
"343 414 OFFCURVE",
"343 414 CURVE",
"343 414 OFFCURVE",
"343 325 OFFCURVE",
"343 318 CURVE SMOOTH",
"343 195 OFFCURVE",
"317 142 OFFCURVE",
"256 142 CURVE SMOOTH",
"206 142 OFFCURVE",
"181 161 OFFCURVE",
"181 242 CURVE"
);
}
);
};
layerId = "116FA8D2-93BA-48BE-A336-ADFD733FF7C5";
paths = (
{
closed = 1;
nodes = (
"492 700 OFFCURVE",
"82 700 OFFCURVE",
"82 700 CURVE",
"82 700 OFFCURVE",
"82 700 OFFCURVE",
"82 700 CURVE",
"82 700 OFFCURVE",
"82 700 OFFCURVE",
"82 700 CURVE",
"82 700 OFFCURVE",
"82 560 OFFCURVE",
"82 560 CURVE",
"82 560 OFFCURVE",
"378 560 OFFCURVE",
"411 560 CURVE",
"411 538 OFFCURVE",
"411 446 OFFCURVE",
"411 433 CURVE",
"388 433 OFFCURVE",
"331 433 OFFCURVE",
"326 433 CURVE SMOOTH",
"102 433 OFFCURVE",
"35 369 OFFCURVE",
"35 220 CURVE",
"35 230 OFFCURVE",
"35 215 OFFCURVE",
"35 197 CURVE SMOOTH",
"35 67 OFFCURVE",
"99 -12 OFFCURVE",
"204 -12 CURVE",
"204 -12 OFFCURVE",
"219 -12 OFFCURVE",
"219 -12 CURVE",
"273 -12 OFFCURVE",
"309 3 OFFCURVE",
"332 34 CURVE SMOOTH",
"358 68 OFFCURVE",
"367 121 OFFCURVE",
"367 192 CURVE SMOOTH",
"367 234 OFFCURVE",
"367 392 OFFCURVE",
"367 414 CURVE",
"375 414 OFFCURVE",
"403 414 OFFCURVE",
"411 414 CURVE",
"411 394 OFFCURVE",
"411 19 OFFCURVE",
"411 0 CURVE",
"485 0 OFFCURVE",
"575 0 OFFCURVE",
"575 0 CURVE",
"575 0 OFFCURVE",
"575 37 OFFCURVE",
"575 228 CURVE",
"575 374 OFFCURVE",
"575 534 OFFCURVE",
"575 700 CURVE"
);
},
{
closed = 1;
nodes = (
"181 242 OFFCURVE",
"181 252 OFFCURVE",
"181 252 CURVE",
"181 342 OFFCURVE",
"220 421 OFFCURVE",
"343 414 CURVE",
"343 414 OFFCURVE",
"343 414 OFFCURVE",
"343 414 CURVE",
"343 414 OFFCURVE",
"343 325 OFFCURVE",
"343 318 CURVE SMOOTH",
"343 195 OFFCURVE",
"317 142 OFFCURVE",
"256 142 CURVE SMOOTH",
"206 142 OFFCURVE",
"181 161 OFFCURVE",
"181 242 CURVE"
);
}
);
width = 653;
},
{
background = {
paths = (
{
closed = 1;
nodes = (
"443 700 OFFCURVE",
"304 700 OFFCURVE",
"204 700 CURVE SMOOTH",
"85 700 OFFCURVE",
"71 676 OFFCURVE",
"71 575 CURVE SMOOTH",
"71 570 OFFCURVE",
"71 565 OFFCURVE",
"71 560 CURVE SMOOTH",
"71 506 OFFCURVE",
"90 461 OFFCURVE",
"138 406 CURVE",
"138 406 OFFCURVE",
"138 406 OFFCURVE",
"138 406 CURVE",
"138 406 OFFCURVE",
"138 406 OFFCURVE",
"138 406 CURVE",
"138 406 OFFCURVE",
"138 406 OFFCURVE",
"138 406 CURVE",
"55 389 OFFCURVE",
"10 318 OFFCURVE",
"10 216 CURVE SMOOTH",
"10 216 OFFCURVE",
"10 209 OFFCURVE",
"10 209 CURVE SMOOTH",
"10 22 OFFCURVE",
"29 0 OFFCURVE",
"150 0 CURVE SMOOTH",
"179 0 OFFCURVE",
"485 0 OFFCURVE",
"485 0 CURVE SMOOTH",
"485 0 OFFCURVE",
"485 0 OFFCURVE",
"485 0 CURVE SMOOTH",
"485 0 OFFCURVE",
"485 0 OFFCURVE",
"485 0 CURVE SMOOTH",
"485 0 OFFCURVE",
"485 0 OFFCURVE",
"485 0 CURVE SMOOTH",
"485 0 OFFCURVE",
"485 0 OFFCURVE",
"485 0 CURVE SMOOTH",
"485 0 OFFCURVE",
"485 0 OFFCURVE",
"579 0 CURVE SMOOTH",
"680 0 OFFCURVE",
"697 37 OFFCURVE",
"684 228 CURVE SMOOTH",
"675 374 OFFCURVE",
"679 414 OFFCURVE",
"686 580 CURVE SMOOTH",
"690 663 OFFCURVE",
"671 700 OFFCURVE",
"563 700 CURVE SMOOTH"
);
},
{
closed = 1;
nodes = (
"138 406 OFFCURVE",
"138 406 OFFCURVE",
"138 406 CURVE",
"203 420 OFFCURVE",
"272 412 OFFCURVE",
"331 388 CURVE SMOOTH",
"389 365 OFFCURVE",
"438 327 OFFCURVE",
"469 280 CURVE",
"469 280 OFFCURVE",
"469 280 OFFCURVE",
"469 280 CURVE",
"437 254 OFFCURVE",
"364 189 OFFCURVE",
"337 167 CURVE",
"292 215 OFFCURVE",
"175 367 OFFCURVE",
"138 406 CURVE"
);
}
);
};
layerId = "35B903E1-0971-4EA2-AC4E-2C87C1F50A16";
paths = (
{
closed = 1;
nodes = (
"443 700 OFFCURVE",
"304 700 OFFCURVE",
"204 700 CURVE SMOOTH",
"85 700 OFFCURVE",
"71 676 OFFCURVE",
"71 575 CURVE SMOOTH",
"71 570 OFFCURVE",
"71 565 OFFCURVE",
"71 560 CURVE SMOOTH",
"71 506 OFFCURVE",
"90 461 OFFCURVE",
"138 406 CURVE",
"138 406 OFFCURVE",
"138 406 OFFCURVE",
"138 406 CURVE",
"138 406 OFFCURVE",
"138 406 OFFCURVE",
"138 406 CURVE",
"138 406 OFFCURVE",
"138 406 OFFCURVE",
"138 406 CURVE",
"55 389 OFFCURVE",
"10 318 OFFCURVE",
"10 216 CURVE SMOOTH",
"10 216 OFFCURVE",
"10 209 OFFCURVE",
"10 209 CURVE SMOOTH",
"10 22 OFFCURVE",
"29 0 OFFCURVE",
"150 0 CURVE SMOOTH",
"179 0 OFFCURVE",
"485 0 OFFCURVE",
"485 0 CURVE SMOOTH",
"485 0 OFFCURVE",
"485 0 OFFCURVE",
"485 0 CURVE SMOOTH",
"485 0 OFFCURVE",
"485 0 OFFCURVE",
"485 0 CURVE SMOOTH",
"485 0 OFFCURVE",
"485 0 OFFCURVE",
"485 0 CURVE SMOOTH",
"485 0 OFFCURVE",
"485 0 OFFCURVE",
"485 0 CURVE SMOOTH",
"485 0 OFFCURVE",
"485 0 OFFCURVE",
"579 0 CURVE SMOOTH",
"680 0 OFFCURVE",
"697 37 OFFCURVE",
"684 228 CURVE SMOOTH",
"675 374 OFFCURVE",
"679 414 OFFCURVE",
"686 580 CURVE SMOOTH",
"690 663 OFFCURVE",
"671 700 OFFCURVE",
"563 700 CURVE SMOOTH"
);
},
{
closed = 1;
nodes = (
"138 406 OFFCURVE",
"138 406 OFFCURVE",
"138 406 CURVE",
"203 420 OFFCURVE",
"272 412 OFFCURVE",
"331 388 CURVE SMOOTH",
"389 365 OFFCURVE",
"438 327 OFFCURVE",
"469 280 CURVE",
"469 280 OFFCURVE",
"469 280 OFFCURVE",
"469 280 CURVE",
"437 254 OFFCURVE",
"364 189 OFFCURVE",
"337 167 CURVE",
"292 215 OFFCURVE",
"175 367 OFFCURVE",
"138 406 CURVE"
);
}
);
width = 698;
}
);
unicode = "0041,0061";
},
{
glyphname = B;
lastChange = "2022-01-14 06:54:36 +0000";
layers = (
{
background = {
paths = (
{
closed = 1;
nodes = (
"446 320 OFFCURVE",
"276 320 OFFCURVE",
"209 320 CURVE",
"209 314 OFFCURVE",
"209 307 OFFCURVE",
"209 299 CURVE",
"224 299 OFFCURVE",
"343 300 OFFCURVE",
"377 300 CURVE SMOOTH",
"435 300 OFFCURVE",
"475 272 OFFCURVE",
"475 227 CURVE SMOOTH",
"475 181 OFFCURVE",
"445 140 OFFCURVE",
"381 140 CURVE SMOOTH",
"362 140 OFFCURVE",
"308 140 OFFCURVE",
"242 140 CURVE",
"242 194 OFFCURVE",
"242 501 OFFCURVE",
"242 560 CURVE",
"267 560 OFFCURVE",
"328 560 OFFCURVE",
"354 560 CURVE SMOOTH",
"410 560 OFFCURVE",
"454 529 OFFCURVE",
"454 471 CURVE SMOOTH",
"454 432 OFFCURVE",
"428 381 OFFCURVE",
"366 381 CURVE SMOOTH",
"292 381 OFFCURVE",
"304 381 OFFCURVE",
"217 381 CURVE",
"217 371 OFFCURVE",
"217 368 OFFCURVE",
"217 360 CURVE",
"217 360 OFFCURVE",
"371 360 OFFCURVE",
"409 360 CURVE SMOOTH",
"531 360 OFFCURVE",
"610 426 OFFCURVE",
"610 523 CURVE SMOOTH",
"610 523 LINE SMOOTH",
"610 630 OFFCURVE",
"528 700 OFFCURVE",
"394 700 CURVE SMOOTH",
"344 700 OFFCURVE",
"316 700 OFFCURVE",
"78 700 CURVE SMOOTH",
"78 700 OFFCURVE",
"78 675 OFFCURVE",
"78 592 CURVE SMOOTH",
"78 548 OFFCURVE",
"78 431 OFFCURVE",
"78 350 CURVE SMOOTH",
"78 304 OFFCURVE",
"78 189 OFFCURVE",
"78 108 CURVE SMOOTH",
"78 63 OFFCURVE",
"78 0 OFFCURVE",
"78 0 CURVE SMOOTH",
"78 0 LINE SMOOTH",
"130 0 OFFCURVE",
"254 0 OFFCURVE",
"360 0 CURVE SMOOTH",
"438 0 LINE SMOOTH",
"569 0 OFFCURVE",
"631 54 OFFCURVE",
"631 161 CURVE SMOOTH",
"631 161 LINE SMOOTH",
"631 251 OFFCURVE",
"551 320 OFFCURVE",
"457 320 CURVE SMOOTH"
);
}
);
};
layerId = "116FA8D2-93BA-48BE-A336-ADFD733FF7C5";
paths = (
{
closed = 1;
nodes = (
"446 320 OFFCURVE",
"276 320 OFFCURVE",
"209 320 CURVE",
"209 314 OFFCURVE",
"209 307 OFFCURVE",
"209 299 CURVE",
"224 299 OFFCURVE",
"343 300 OFFCURVE",
"377 300 CURVE SMOOTH",
"435 300 OFFCURVE",
"475 272 OFFCURVE",
"475 227 CURVE SMOOTH",
"475 181 OFFCURVE",
"445 140 OFFCURVE",
"381 140 CURVE SMOOTH",
"362 140 OFFCURVE",
"308 140 OFFCURVE",
"242 140 CURVE",
"242 194 OFFCURVE",
"242 501 OFFCURVE",
"242 560 CURVE",
"267 560 OFFCURVE",
"328 560 OFFCURVE",
"354 560 CURVE SMOOTH",
"410 560 OFFCURVE",
"454 529 OFFCURVE",
"454 471 CURVE SMOOTH",
"454 432 OFFCURVE",
"428 381 OFFCURVE",
"366 381 CURVE SMOOTH",
"292 381 OFFCURVE",
"304 381 OFFCURVE",
"217 381 CURVE",
"217 371 OFFCURVE",
"217 368 OFFCURVE",
"217 360 CURVE",
"217 360 OFFCURVE",
"371 360 OFFCURVE",
"409 360 CURVE SMOOTH",
"531 360 OFFCURVE",
"610 426 OFFCURVE",
"610 523 CURVE SMOOTH",
"610 523 LINE SMOOTH",
"610 630 OFFCURVE",
"528 700 OFFCURVE",
"394 700 CURVE SMOOTH",
"344 700 OFFCURVE",
"316 700 OFFCURVE",
"78 700 CURVE SMOOTH",
"78 700 OFFCURVE",
"78 675 OFFCURVE",
"78 592 CURVE SMOOTH",
"78 548 OFFCURVE",
"78 431 OFFCURVE",
"78 350 CURVE SMOOTH",
"78 304 OFFCURVE",
"78 189 OFFCURVE",
"78 108 CURVE SMOOTH",
"78 63 OFFCURVE",
"78 0 OFFCURVE",
"78 0 CURVE SMOOTH",
"78 0 LINE SMOOTH",
"130 0 OFFCURVE",
"254 0 OFFCURVE",
"360 0 CURVE SMOOTH",
"438 0 LINE SMOOTH",
"569 0 OFFCURVE",
"631 54 OFFCURVE",
"631 161 CURVE SMOOTH",
"631 161 LINE SMOOTH",
"631 251 OFFCURVE",
"551 320 OFFCURVE",
"457 320 CURVE SMOOTH"
);
}
);
width = 666;
},
{
background = {
paths = (
{
closed = 1;
nodes = (
"563 401 OFFCURVE",
"285 208 OFFCURVE",
"285 208 CURVE SMOOTH",
"285 208 OFFCURVE",
"285 208 OFFCURVE",
"285 208 CURVE SMOOTH",
"285 208 OFFCURVE",
"285 208 OFFCURVE",
"285 208 CURVE SMOOTH",
"285 208 OFFCURVE",
"285 208 OFFCURVE",
"285 208 CURVE SMOOTH",
"285 208 OFFCURVE",
"285 208 OFFCURVE",
"285 208 CURVE SMOOTH",
"285 208 OFFCURVE",
"285 208 OFFCURVE",
"285 208 CURVE",
"285 208 OFFCURVE",
"236 415 OFFCURVE",
"236 415 CURVE",
"236 415 OFFCURVE",
"236 415 OFFCURVE",
"236 415 CURVE",
"236 415 OFFCURVE",
"236 415 OFFCURVE",
"236 415 CURVE",
"236 415 OFFCURVE",
"236 415 OFFCURVE",
"236 415 CURVE",
"236 415 OFFCURVE",
"236 415 OFFCURVE",
"236 415 CURVE",
"236 415 OFFCURVE",
"236 415 OFFCURVE",
"236 415 CURVE",
"236 415 OFFCURVE",
"563 401 OFFCURVE",
"563 401 CURVE",
"638 453 OFFCURVE",
"656 481 OFFCURVE",
"656 549 CURVE SMOOTH",
"656 562 LINE SMOOTH",
"656 665 OFFCURVE",
"639 701 OFFCURVE",
"540 700 CURVE SMOOTH",
"407 699 OFFCURVE",
"309 699 OFFCURVE",
"137 700 CURVE SMOOTH",
"38 701 OFFCURVE",
"10 675 OFFCURVE",
"10 592 CURVE SMOOTH",
"10 511 OFFCURVE",
"20 431 OFFCURVE",
"20 350 CURVE SMOOTH",
"20 269 OFFCURVE",
"10 189 OFFCURVE",
"10 108 CURVE SMOOTH",
"10 25 OFFCURVE",
"28 0 OFFCURVE",
"78 0 CURVE SMOOTH",
"126 0 LINE SMOOTH",
"189 0 OFFCURVE",
"256 0 OFFCURVE",
"362 0 CURVE SMOOTH",
"530 0 LINE SMOOTH",
"629 0 OFFCURVE",
"656 25 OFFCURVE",
"656 108 CURVE SMOOTH",
"656 287 LINE SMOOTH",
"656 357 OFFCURVE",
"647 392 OFFCURVE",
"563 401 CURVE"
);
}
);
};
layerId = "35B903E1-0971-4EA2-AC4E-2C87C1F50A16";
paths = (
{
closed = 1;
nodes = (
"563 401 OFFCURVE",
"285 208 OFFCURVE",
"285 208 CURVE SMOOTH",
"285 208 OFFCURVE",
"285 208 OFFCURVE",
"285 208 CURVE SMOOTH",
"285 208 OFFCURVE",
"285 208 OFFCURVE",
"285 208 CURVE SMOOTH",
"285 208 OFFCURVE",
"285 208 OFFCURVE",
"285 208 CURVE SMOOTH",
"285 208 OFFCURVE",
"285 208 OFFCURVE",
"285 208 CURVE SMOOTH",
"285 208 OFFCURVE",
"285 208 OFFCURVE",
"285 208 CURVE",
"285 208 OFFCURVE",
"236 415 OFFCURVE",
"236 415 CURVE",
"236 415 OFFCURVE",
"236 415 OFFCURVE",
"236 415 CURVE",
"236 415 OFFCURVE",
"236 415 OFFCURVE",
"236 415 CURVE",
"236 415 OFFCURVE",
"236 415 OFFCURVE",
"236 415 CURVE",
"236 415 OFFCURVE",
"236 415 OFFCURVE",
"236 415 CURVE",
"236 415 OFFCURVE",
"236 415 OFFCURVE",
"236 415 CURVE",
"236 415 OFFCURVE",
"563 401 OFFCURVE",
"563 401 CURVE",
"638 453 OFFCURVE",
"656 481 OFFCURVE",
"656 549 CURVE SMOOTH",
"656 562 LINE SMOOTH",
"656 665 OFFCURVE",
"639 701 OFFCURVE",
"540 700 CURVE SMOOTH",
"407 699 OFFCURVE",
"309 699 OFFCURVE",
"137 700 CURVE SMOOTH",
"38 701 OFFCURVE",
"10 675 OFFCURVE",
"10 592 CURVE SMOOTH",
"10 511 OFFCURVE",
"20 431 OFFCURVE",
"20 350 CURVE SMOOTH",
"20 269 OFFCURVE",
"10 189 OFFCURVE",
"10 108 CURVE SMOOTH",
"10 25 OFFCURVE",
"28 0 OFFCURVE",
"78 0 CURVE SMOOTH",
"126 0 LINE SMOOTH",
"189 0 OFFCURVE",
"256 0 OFFCURVE",
"362 0 CURVE SMOOTH",
"530 0 LINE SMOOTH",
"629 0 OFFCURVE",
"656 25 OFFCURVE",
"656 108 CURVE SMOOTH",
"656 287 LINE SMOOTH",
"656 357 OFFCURVE",
"647 392 OFFCURVE",
"563 401 CURVE"
);
}
);
width = 666;
}
);
leftMetricsKey = H;
unicode = "0042,0062";
},
{
glyphname = C;
lastChange = "2022-01-14 06:54:36 +0000";
layers = (
{
background = {
paths = (
{
closed = 1;
nodes = (
"357 -12 OFFCURVE",
"399 0 OFFCURVE",
"436 39 CURVE SMOOTH",
"461 66 OFFCURVE",
"484 106 OFFCURVE",
"508 164 CURVE SMOOTH",
"527 209 OFFCURVE",
"546 255 OFFCURVE",
"565 300 CURVE",
"559 303 OFFCURVE",
"554 305 OFFCURVE",
"548 308 CURVE",
"540 292 OFFCURVE",
"533 276 OFFCURVE",
"525 260 CURVE SMOOTH",
"478 162 OFFCURVE",
"431 134 OFFCURVE",
"345 134 CURVE SMOOTH",
"238 134 OFFCURVE",
"191 200 OFFCURVE",
"191 322 CURVE SMOOTH",
"191 346 OFFCURVE",
"191 369 OFFCURVE",
"191 393 CURVE SMOOTH",
"191 512 OFFCURVE",
"237 560 OFFCURVE",
"352 560 CURVE SMOOTH",
"407 560 OFFCURVE",
"461 560 OFFCURVE",
"516 560 CURVE",
"516 575 OFFCURVE",
"516 590 OFFCURVE",
"516 605 CURVE SMOOTH",
"516 618 OFFCURVE",
"516 632 OFFCURVE",
"516 645 CURVE SMOOTH",
"516 663 OFFCURVE",
"516 681 OFFCURVE",
"516 700 CURVE",
"451 700 OFFCURVE",
"386 700 OFFCURVE",
"321 700 CURVE SMOOTH",
"111 700 OFFCURVE",
"35 575 OFFCURVE",
"35 393 CURVE SMOOTH",
"35 369 OFFCURVE",
"35 346 OFFCURVE",
"35 322 CURVE SMOOTH",
"35 85 OFFCURVE",
"143 -12 OFFCURVE",
"294 -12 CURVE SMOOTH"
);
}
);
};
layerId = "116FA8D2-93BA-48BE-A336-ADFD733FF7C5";
paths = (
{
closed = 1;
nodes = (
"357 -12 OFFCURVE",
"399 0 OFFCURVE",
"436 39 CURVE SMOOTH",
"461 66 OFFCURVE",
"484 106 OFFCURVE",
"508 164 CURVE SMOOTH",
"527 209 OFFCURVE",
"546 255 OFFCURVE",
"565 300 CURVE",
"559 303 OFFCURVE",
"554 305 OFFCURVE",
"548 308 CURVE",
"540 292 OFFCURVE",
"533 276 OFFCURVE",
"525 260 CURVE SMOOTH",
"478 162 OFFCURVE",
"431 134 OFFCURVE",
"345 134 CURVE SMOOTH",
"238 134 OFFCURVE",
"191 200 OFFCURVE",
"191 322 CURVE SMOOTH",
"191 346 OFFCURVE",
"191 369 OFFCURVE",
"191 393 CURVE SMOOTH",
"191 512 OFFCURVE",
"237 560 OFFCURVE",
"352 560 CURVE SMOOTH",
"407 560 OFFCURVE",
"461 560 OFFCURVE",
"516 560 CURVE",
"516 575 OFFCURVE",
"516 590 OFFCURVE",
"516 605 CURVE SMOOTH",
"516 618 OFFCURVE",
"516 632 OFFCURVE",
"516 645 CURVE SMOOTH",
"516 663 OFFCURVE",
"516 681 OFFCURVE",
"516 700 CURVE",
"451 700 OFFCURVE",
"386 700 OFFCURVE",
"321 700 CURVE SMOOTH",
"111 700 OFFCURVE",
"35 575 OFFCURVE",
"35 393 CURVE SMOOTH",
"35 369 OFFCURVE",
"35 346 OFFCURVE",
"35 322 CURVE SMOOTH",
"35 85 OFFCURVE",
"143 -12 OFFCURVE",
"294 -12 CURVE SMOOTH"
);
}
);
width = 575;
},
{
background = {
paths = (
{
closed = 1;
nodes = (
"446 0 OFFCURVE",
"446 0 OFFCURVE",
"543 0 CURVE SMOOTH",
"643 0 OFFCURVE",
"674 42 OFFCURVE",
"674 177 CURVE SMOOTH",
"674 202 OFFCURVE",
"654 238 OFFCURVE",
"635 255 CURVE SMOOTH",
"618 271 OFFCURVE",
"591 294 OFFCURVE",
"579 300 CURVE",
"579 300 OFFCURVE",
"579 300 OFFCURVE",
"579 300 CURVE",
"483 305 OFFCURVE",
"484 305 OFFCURVE",
"294 311 CURVE",
"294 311 OFFCURVE",
"294 311 OFFCURVE",
"294 311 CURVE",
"294 311 OFFCURVE",
"294 311 OFFCURVE",
"294 311 CURVE",
"299 407 OFFCURVE",
"299 427 OFFCURVE",
"303 502 CURVE",
"427 411 OFFCURVE",
"427 411 OFFCURVE",
"579 300 CURVE",
"643 308 OFFCURVE",
"674 342 OFFCURVE",
"674 405 CURVE SMOOTH",
"674 490 OFFCURVE",
"674 490 OFFCURVE",
"673 605 CURVE SMOOTH",
"672 678 OFFCURVE",
"649 700 OFFCURVE",
"501 700 CURVE SMOOTH",
"456 700 OFFCURVE",
"401 700 OFFCURVE",
"366 700 CURVE SMOOTH",
"121 700 OFFCURVE",
"5 588 OFFCURVE",
"5 353 CURVE SMOOTH",
"5 349 OFFCURVE",
"5 346 OFFCURVE",
"5 342 CURVE SMOOTH",
"5 125 OFFCURVE",
"119 0 OFFCURVE",
"319 0 CURVE SMOOTH"
);
}
);
};
layerId = "35B903E1-0971-4EA2-AC4E-2C87C1F50A16";
paths = (
{
closed = 1;
nodes = (
"446 0 OFFCURVE",
"446 0 OFFCURVE",
"543 0 CURVE SMOOTH",
"643 0 OFFCURVE",
"674 42 OFFCURVE",
"674 177 CURVE SMOOTH",
"674 202 OFFCURVE",
"654 238 OFFCURVE",
"635 255 CURVE SMOOTH",
"618 271 OFFCURVE",
"591 294 OFFCURVE",
"579 300 CURVE",
"579 300 OFFCURVE",
"579 300 OFFCURVE",
"579 300 CURVE",
"483 305 OFFCURVE",
"484 305 OFFCURVE",
"294 311 CURVE",
"294 311 OFFCURVE",
"294 311 OFFCURVE",
"294 311 CURVE",
"294 311 OFFCURVE",
"294 311 OFFCURVE",
"294 311 CURVE",
"299 407 OFFCURVE",
"299 427 OFFCURVE",
"303 502 CURVE",
"427 411 OFFCURVE",
"427 411 OFFCURVE",
"579 300 CURVE",
"643 308 OFFCURVE",
"674 342 OFFCURVE",
"674 405 CURVE SMOOTH",
"674 490 OFFCURVE",
"674 490 OFFCURVE",
"673 605 CURVE SMOOTH",
"672 678 OFFCURVE",
"649 700 OFFCURVE",
"501 700 CURVE SMOOTH",
"456 700 OFFCURVE",
"401 700 OFFCURVE",
"366 700 CURVE SMOOTH",
"121 700 OFFCURVE",
"5 588 OFFCURVE",
"5 353 CURVE SMOOTH",
"5 349 OFFCURVE",
"5 346 OFFCURVE",
"5 342 CURVE SMOOTH",
"5 125 OFFCURVE",
"119 0 OFFCURVE",
"319 0 CURVE SMOOTH"
);
}
);
width = 684;
}
);
unicode = "0043,0063";
},
{
glyphname = D;
lastChange = "2022-01-14 06:54:36 +0000";
layers = (
{
background = {
paths = (
{
closed = 1;
nodes = (
"306 0 OFFCURVE",
"238 0 OFFCURVE",
"358 0 CURVE SMOOTH",
"545 0 OFFCURVE",
"628 125 OFFCURVE",
"628 317 CURVE SMOOTH",
"628 335 OFFCURVE",
"628 338 OFFCURVE",
"628 353 CURVE SMOOTH",
"628 588 OFFCURVE",
"543 700 OFFCURVE",
"326 700 CURVE SMOOTH",
"283 700 OFFCURVE",
"236 700 OFFCURVE",
"78 700 CURVE",
"78 700 OFFCURVE",
"78 678 OFFCURVE",
"78 605 CURVE",
"78 490 OFFCURVE",
"78 490 OFFCURVE",
"78 405 CURVE",
"78 342 OFFCURVE",
"78 364 OFFCURVE",
"78 300 CURVE SMOOTH",
"78 300 OFFCURVE",
"78 300 OFFCURVE",
"78 300 CURVE",
"78 294 OFFCURVE",
"78 271 OFFCURVE",
"78 255 CURVE",
"78 238 OFFCURVE",
"78 202 OFFCURVE",
"78 177 CURVE",
"78 42 OFFCURVE",
"78 0 OFFCURVE",
"78 0 CURVE"
);
},
{
closed = 1;
nodes = (
"472 363 OFFCURVE",
"472 311 OFFCURVE",
"472 300 CURVE SMOOTH",
"472 77 OFFCURVE",
"341 20 OFFCURVE",
"242 20 CURVE",
"242 230 OFFCURVE",
"243 257 OFFCURVE",
"243 305 CURVE SMOOTH",
"243 414 OFFCURVE",
"242 476 OFFCURVE",
"242 560 CURVE",
"279 560 OFFCURVE",
"291 560 OFFCURVE",
"309 560 CURVE SMOOTH",
"426 560 OFFCURVE",
"472 496 OFFCURVE",
"472 376 CURVE SMOOTH"
);
}
);
};
layerId = "116FA8D2-93BA-48BE-A336-ADFD733FF7C5";
paths = (
{
closed = 1;
nodes = (
"306 0 OFFCURVE",
"238 0 OFFCURVE",
"358 0 CURVE SMOOTH",
"545 0 OFFCURVE",
"628 125 OFFCURVE",
"628 317 CURVE SMOOTH",
"628 335 OFFCURVE",
"628 338 OFFCURVE",
"628 353 CURVE SMOOTH",
"628 588 OFFCURVE",
"543 700 OFFCURVE",
"326 700 CURVE SMOOTH",
"283 700 OFFCURVE",
"236 700 OFFCURVE",
"78 700 CURVE",
"78 700 OFFCURVE",
"78 678 OFFCURVE",
"78 605 CURVE",
"78 490 OFFCURVE",
"78 490 OFFCURVE",
"78 405 CURVE",
"78 342 OFFCURVE",
"78 364 OFFCURVE",
"78 300 CURVE SMOOTH",
"78 300 OFFCURVE",
"78 300 OFFCURVE",
"78 300 CURVE",
"78 294 OFFCURVE",
"78 271 OFFCURVE",
"78 255 CURVE",
"78 238 OFFCURVE",
"78 202 OFFCURVE",
"78 177 CURVE",
"78 42 OFFCURVE",
"78 0 OFFCURVE",
"78 0 CURVE"
);
},
{
closed = 1;
nodes = (
"472 363 OFFCURVE",
"472 311 OFFCURVE",
"472 300 CURVE SMOOTH",
"472 77 OFFCURVE",
"341 20 OFFCURVE",
"242 20 CURVE",
"242 230 OFFCURVE",
"243 257 OFFCURVE",
"243 305 CURVE SMOOTH",
"243 414 OFFCURVE",
"242 476 OFFCURVE",
"242 560 CURVE",
"279 560 OFFCURVE",
"291 560 OFFCURVE",
"309 560 CURVE SMOOTH",
"426 560 OFFCURVE",
"472 496 OFFCURVE",
"472 376 CURVE SMOOTH"
);
}
);
width = 663;
},
{
background = {
paths = (
{
closed = 1;
nodes = (
"238 0 OFFCURVE",
"238 0 OFFCURVE",
"365 0 CURVE SMOOTH",
"565 0 OFFCURVE",
"679 125 OFFCURVE",
"679 342 CURVE SMOOTH",
"679 346 OFFCURVE",
"679 349 OFFCURVE",
"679 353 CURVE SMOOTH",
"679 588 OFFCURVE",
"563 700 OFFCURVE",
"318 700 CURVE SMOOTH",
"283 700 OFFCURVE",
"228 700 OFFCURVE",
"183 700 CURVE SMOOTH",
"35 700 OFFCURVE",
"12 678 OFFCURVE",
"11 605 CURVE SMOOTH",
"10 490 OFFCURVE",
"10 490 OFFCURVE",
"10 405 CURVE SMOOTH",
"10 342 OFFCURVE",
"41 308 OFFCURVE",
"105 300 CURVE",
"105 300 OFFCURVE",
"105 300 OFFCURVE",
"105 300 CURVE",
"93 294 OFFCURVE",
"66 271 OFFCURVE",
"49 255 CURVE SMOOTH",
"30 238 OFFCURVE",
"10 202 OFFCURVE",
"10 177 CURVE SMOOTH",
"10 42 OFFCURVE",
"41 0 OFFCURVE",
"141 0 CURVE SMOOTH"
);
},
{
closed = 1;
nodes = (
"371 317 OFFCURVE",
"339 314 OFFCURVE",
"311 312 CURVE SMOOTH",
"283 310 OFFCURVE",
"260 309 OFFCURVE",
"229 307 CURVE SMOOTH",
"198 305 OFFCURVE",
"161 303 OFFCURVE",
"105 300 CURVE",
"155 337 OFFCURVE",
"188 362 OFFCURVE",
"214 383 CURVE SMOOTH",
"269 425 OFFCURVE",
"293 444 OFFCURVE",
"366 506 CURVE",
"392 417 OFFCURVE",
"392 417 OFFCURVE",
"420 321 CURVE"
);
}
);
};
layerId = "35B903E1-0971-4EA2-AC4E-2C87C1F50A16";
paths = (
{
closed = 1;
nodes = (
"238 0 OFFCURVE",
"238 0 OFFCURVE",
"365 0 CURVE SMOOTH",
"565 0 OFFCURVE",
"679 125 OFFCURVE",
"679 342 CURVE SMOOTH",
"679 346 OFFCURVE",
"679 349 OFFCURVE",
"679 353 CURVE SMOOTH",
"679 588 OFFCURVE",
"563 700 OFFCURVE",
"318 700 CURVE SMOOTH",
"283 700 OFFCURVE",
"228 700 OFFCURVE",
"183 700 CURVE SMOOTH",
"35 700 OFFCURVE",
"12 678 OFFCURVE",
"11 605 CURVE SMOOTH",
"10 490 OFFCURVE",
"10 490 OFFCURVE",
"10 405 CURVE SMOOTH",
"10 342 OFFCURVE",
"41 308 OFFCURVE",
"105 300 CURVE",
"105 300 OFFCURVE",
"105 300 OFFCURVE",
"105 300 CURVE",
"93 294 OFFCURVE",
"66 271 OFFCURVE",
"49 255 CURVE SMOOTH",
"30 238 OFFCURVE",
"10 202 OFFCURVE",
"10 177 CURVE SMOOTH",
"10 42 OFFCURVE",
"41 0 OFFCURVE",
"141 0 CURVE SMOOTH"
);
},
{
closed = 1;
nodes = (
"371 317 OFFCURVE",
"339 314 OFFCURVE",
"311 312 CURVE SMOOTH",
"283 310 OFFCURVE",
"260 309 OFFCURVE",
"229 307 CURVE SMOOTH",
"198 305 OFFCURVE",
"161 303 OFFCURVE",
"105 300 CURVE",
"155 337 OFFCURVE",
"188 362 OFFCURVE",
"214 383 CURVE SMOOTH",
"269 425 OFFCURVE",
"293 444 OFFCURVE",
"366 506 CURVE",
"392 417 OFFCURVE",
"392 417 OFFCURVE",
"420 321 CURVE"
);
}
);
width = 684;
}
);
leftMetricsKey = H;
unicode = "0044,0064";
},
{
glyphname = E;
lastChange = "2022-01-14 06:54:36 +0000";
layers = (
{
background = {
paths = (
{
closed = 1;
nodes = (
"35 85 OFFCURVE",
"163 -12 OFFCURVE",
"313 -12 CURVE SMOOTH",
"442 -12 OFFCURVE",
"490 23 OFFCURVE",
"549 164 CURVE SMOOTH",
"568 209 OFFCURVE",
"587 255 OFFCURVE",
"606 300 CURVE",
"600 303 OFFCURVE",
"595 305 OFFCURVE",
"589 308 CURVE",
"581 292 OFFCURVE",
"574 276 OFFCURVE",
"566 260 CURVE SMOOTH",
"521 166 OFFCURVE",
"470 134 OFFCURVE",
"364 134 CURVE SMOOTH",
"258 134 OFFCURVE",
"191 200 OFFCURVE",
"191 322 CURVE SMOOTH",
"191 335 OFFCURVE",
"191 347 OFFCURVE",
"191 360 CURVE",
"325 360 OFFCURVE",
"460 360 OFFCURVE",
"594 360 CURVE",
"594 375 OFFCURVE",
"594 389 OFFCURVE",
"594 404 CURVE SMOOTH",
"594 616 OFFCURVE",
"505 712 OFFCURVE",
"319 712 CURVE SMOOTH",
"113 712 OFFCURVE",
"35 591 OFFCURVE",
"35 373 CURVE SMOOTH",
"35 356 OFFCURVE",
"35 339 OFFCURVE",
"35 322 CURVE SMOOTH"
);
},
{
closed = 1;
nodes = (
"191 527 OFFCURVE",
"233 566 OFFCURVE",
"319 566 CURVE SMOOTH",
"403 566 OFFCURVE",
"434 517 OFFCURVE",
"434 380 CURVE",
"353 380 OFFCURVE",
"272 380 OFFCURVE",
"191 380 CURVE"
);
}
);
};
layerId = "116FA8D2-93BA-48BE-A336-ADFD733FF7C5";
paths = (
{
closed = 1;
nodes = (
"35 85 OFFCURVE",
"163 -12 OFFCURVE",
"313 -12 CURVE SMOOTH",
"442 -12 OFFCURVE",
"490 23 OFFCURVE",
"549 164 CURVE SMOOTH",
"568 209 OFFCURVE",
"587 255 OFFCURVE",
"606 300 CURVE",
"600 303 OFFCURVE",
"595 305 OFFCURVE",
"589 308 CURVE",
"581 292 OFFCURVE",
"574 276 OFFCURVE",
"566 260 CURVE SMOOTH",
"521 166 OFFCURVE",
"470 134 OFFCURVE",
"364 134 CURVE SMOOTH",
"258 134 OFFCURVE",
"191 200 OFFCURVE",
"191 322 CURVE SMOOTH",
"191 335 OFFCURVE",
"191 347 OFFCURVE",
"191 360 CURVE",
"325 360 OFFCURVE",
"460 360 OFFCURVE",
"594 360 CURVE",
"594 375 OFFCURVE",
"594 389 OFFCURVE",
"594 404 CURVE SMOOTH",
"594 616 OFFCURVE",
"505 712 OFFCURVE",
"319 712 CURVE SMOOTH",
"113 712 OFFCURVE",
"35 591 OFFCURVE",
"35 373 CURVE SMOOTH",
"35 356 OFFCURVE",
"35 339 OFFCURVE",
"35 322 CURVE SMOOTH"
);
},
{
closed = 1;
nodes = (
"191 527 OFFCURVE",
"233 566 OFFCURVE",
"319 566 CURVE SMOOTH",
"403 566 OFFCURVE",
"434 517 OFFCURVE",
"434 380 CURVE",
"353 380 OFFCURVE",
"272 380 OFFCURVE",
"191 380 CURVE"
);
}
);
width = 631;
},
{
background = {
paths = (
{
closed = 1;
nodes = (
"5 132 OFFCURVE",
"141 -14 OFFCURVE",
"377 -14 CURVE SMOOTH",
"581 -14 OFFCURVE",
"683 94 OFFCURVE",
"693 196 CURVE",
"693 196 OFFCURVE",
"693 196 OFFCURVE",
"693 196 CURVE",
"693 196 OFFCURVE",
"693 196 OFFCURVE",
"693 196 CURVE",
"693 196 OFFCURVE",
"693 196 OFFCURVE",
"693 196 CURVE",
"693 196 OFFCURVE",
"693 196 OFFCURVE",
"693 196 CURVE",
"631 235 OFFCURVE",
"569 274 OFFCURVE",
"507 313 CURVE",
"507 313 OFFCURVE",
"507 313 OFFCURVE",
"507 313 CURVE",
"572 312 OFFCURVE",
"636 311 OFFCURVE",
"701 310 CURVE",
"701 317 OFFCURVE",
"701 325 OFFCURVE",
"701 333 CURVE SMOOTH",
"691 593 OFFCURVE",
"596 714 OFFCURVE",
"357 714 CURVE SMOOTH",
"136 714 OFFCURVE",
"5 611 OFFCURVE",
"5 353 CURVE SMOOTH",
"5 344 OFFCURVE",
"5 347 OFFCURVE",
"5 342 CURVE SMOOTH"
);
},
{
closed = 1;
nodes = (
"206 379 OFFCURVE",
"221 442 OFFCURVE",
"237 504 CURVE",
"327 440 OFFCURVE",
"417 377 OFFCURVE",
"507 313 CURVE",
"401 314 OFFCURVE",
"296 316 OFFCURVE",
"190 317 CURVE"
);
}
);
};
layerId = "35B903E1-0971-4EA2-AC4E-2C87C1F50A16";
paths = (
{
closed = 1;
nodes = (
"5 132 OFFCURVE",
"141 -14 OFFCURVE",
"377 -14 CURVE SMOOTH",
"581 -14 OFFCURVE",
"683 94 OFFCURVE",
"693 196 CURVE",
"693 196 OFFCURVE",
"693 196 OFFCURVE",
"693 196 CURVE",
"693 196 OFFCURVE",
"693 196 OFFCURVE",
"693 196 CURVE",
"693 196 OFFCURVE",
"693 196 OFFCURVE",
"693 196 CURVE",
"693 196 OFFCURVE",
"693 196 OFFCURVE",
"693 196 CURVE",
"631 235 OFFCURVE",
"569 274 OFFCURVE",
"507 313 CURVE",
"507 313 OFFCURVE",
"507 313 OFFCURVE",
"507 313 CURVE",
"572 312 OFFCURVE",
"636 311 OFFCURVE",
"701 310 CURVE",
"701 317 OFFCURVE",
"701 325 OFFCURVE",
"701 333 CURVE SMOOTH",
"691 593 OFFCURVE",
"596 714 OFFCURVE",
"357 714 CURVE SMOOTH",
"136 714 OFFCURVE",
"5 611 OFFCURVE",
"5 353 CURVE SMOOTH",
"5 344 OFFCURVE",
"5 347 OFFCURVE",
"5 342 CURVE SMOOTH"
);
},
{
closed = 1;
nodes = (
"206 379 OFFCURVE",
"221 442 OFFCURVE",
"237 504 CURVE",
"327 440 OFFCURVE",
"417 377 OFFCURVE",
"507 313 CURVE",
"401 314 OFFCURVE",
"296 316 OFFCURVE",
"190 317 CURVE"
);
}
);
width = 706;
}
);
unicode = "0045,0065";
},
{
glyphname = F;
lastChange = "2022-01-14 06:54:36 +0000";
layers = (
{
background = {
paths = (
{
closed = 1;
nodes = (
"409 360 OFFCURVE",
"409 360 OFFCURVE",
"282 360 CURVE",
"282 170 OFFCURVE",
"282 170 OFFCURVE",
"282 21 CURVE",
"262 21 OFFCURVE",
"262 21 OFFCURVE",
"242 21 CURVE",
"242 56 OFFCURVE",
"242 412 OFFCURVE",
"242 560 CURVE",
"355 560 OFFCURVE",
"450 560 OFFCURVE",
"507 560 CURVE",
"533 560 OFFCURVE",
"550 560 OFFCURVE",
"553 560 CURVE",
"553 616 OFFCURVE",
"553 676 OFFCURVE",
"553 700 CURVE",
"530 700 OFFCURVE",
"464 700 OFFCURVE",
"441 700 CURVE SMOOTH",
"374 700 OFFCURVE",
"361 700 OFFCURVE",
"264 700 CURVE SMOOTH",
"220 700 OFFCURVE",
"122 700 OFFCURVE",
"78 700 CURVE",
"78 670 OFFCURVE",
"78 647 OFFCURVE",
"78 564 CURVE SMOOTH",
"78 488 OFFCURVE",
"78 454 OFFCURVE",
"78 373 CURVE SMOOTH",
"78 294 OFFCURVE",
"78 251 OFFCURVE",
"78 170 CURVE SMOOTH",
"78 89 OFFCURVE",
"78 35 OFFCURVE",
"78 0 CURVE",
"187 0 OFFCURVE",
"187 0 OFFCURVE",
"306 0 CURVE",
"306 170 OFFCURVE",
"306 170 OFFCURVE",
"306 340 CURVE",
"421 340 OFFCURVE",
"421 340 OFFCURVE",
"535 340 CURVE",
"535 351 OFFCURVE",
"535 351 OFFCURVE",
"535 360 CURVE"
);
}
);
};
layerId = "116FA8D2-93BA-48BE-A336-ADFD733FF7C5";
paths = (
{
closed = 1;
nodes = (
"409 360 OFFCURVE",
"409 360 OFFCURVE",
"282 360 CURVE",
"282 170 OFFCURVE",
"282 170 OFFCURVE",
"282 21 CURVE",
"262 21 OFFCURVE",
"262 21 OFFCURVE",
"242 21 CURVE",
"242 56 OFFCURVE",
"242 412 OFFCURVE",
"242 560 CURVE",
"355 560 OFFCURVE",
"450 560 OFFCURVE",
"507 560 CURVE",
"533 560 OFFCURVE",
"550 560 OFFCURVE",
"553 560 CURVE",
"553 616 OFFCURVE",
"553 676 OFFCURVE",
"553 700 CURVE",
"530 700 OFFCURVE",
"464 700 OFFCURVE",
"441 700 CURVE SMOOTH",
"374 700 OFFCURVE",
"361 700 OFFCURVE",
"264 700 CURVE SMOOTH",
"220 700 OFFCURVE",
"122 700 OFFCURVE",
"78 700 CURVE",
"78 670 OFFCURVE",
"78 647 OFFCURVE",
"78 564 CURVE SMOOTH",
"78 488 OFFCURVE",
"78 454 OFFCURVE",
"78 373 CURVE SMOOTH",
"78 294 OFFCURVE",
"78 251 OFFCURVE",
"78 170 CURVE SMOOTH",
"78 89 OFFCURVE",
"78 35 OFFCURVE",
"78 0 CURVE",
"187 0 OFFCURVE",
"187 0 OFFCURVE",
"306 0 CURVE",
"306 170 OFFCURVE",
"306 170 OFFCURVE",
"306 340 CURVE",
"421 340 OFFCURVE",
"421 340 OFFCURVE",
"535 340 CURVE",
"535 351 OFFCURVE",
"535 351 OFFCURVE",
"535 360 CURVE"
);
}
);
width = 578;
},
{
background = {
paths = (
{
closed = 1;
nodes = (
"550 391 OFFCURVE",
"459 344 OFFCURVE",
"383 306 CURVE SMOOTH",
"365 297 OFFCURVE",
"348 289 OFFCURVE",
"333 281 CURVE SMOOTH",
"309 269 OFFCURVE",
"289 259 OFFCURVE",
"276 252 CURVE",
"264 298 OFFCURVE",
"250 372 OFFCURVE",
"244 407 CURVE",
"363 411 OFFCURVE",
"483 415 OFFCURVE",
"602 419 CURVE",
"648 443 OFFCURVE",
"645 471 OFFCURVE",
"648 560 CURVE SMOOTH",
"652 679 OFFCURVE",
"642 700 OFFCURVE",
"549 700 CURVE SMOOTH",
"526 700 OFFCURVE",
"504 700 OFFCURVE",
"481 700 CURVE SMOOTH",
"414 700 OFFCURVE",
"401 700 OFFCURVE",
"304 700 CURVE SMOOTH",
"260 700 OFFCURVE",
"177 700 OFFCURVE",
"133 700 CURVE SMOOTH",
"34 700 OFFCURVE",
"7 675 OFFCURVE",
"10 592 CURVE SMOOTH",
"12 511 OFFCURVE",
"23 431 OFFCURVE",
"25 350 CURVE SMOOTH",
"27 269 OFFCURVE",
"20 189 OFFCURVE",
"22 108 CURVE SMOOTH",
"25 25 OFFCURVE",
"52 0 OFFCURVE",
"151 0 CURVE SMOOTH",
"227 0 OFFCURVE",
"263 0 OFFCURVE",
"299 0 CURVE SMOOTH",
"372 0 OFFCURVE",
"371 62 OFFCURVE",
"399 193 CURVE",
"435 193 OFFCURVE",
"471 193 OFFCURVE",
"507 193 CURVE SMOOTH",
"606 193 OFFCURVE",
"612 179 OFFCURVE",
"602 419 CURVE"
);
}
);
};
layerId = "35B903E1-0971-4EA2-AC4E-2C87C1F50A16";
paths = (
{
closed = 1;
nodes = (
"550 391 OFFCURVE",
"459 344 OFFCURVE",
"383 306 CURVE SMOOTH",
"365 297 OFFCURVE",
"348 289 OFFCURVE",
"333 281 CURVE SMOOTH",
"309 269 OFFCURVE",
"289 259 OFFCURVE",
"276 252 CURVE",
"264 298 OFFCURVE",
"250 372 OFFCURVE",
"244 407 CURVE",
"363 411 OFFCURVE",
"483 415 OFFCURVE",
"602 419 CURVE",
"648 443 OFFCURVE",
"645 471 OFFCURVE",
"648 560 CURVE SMOOTH",
"652 679 OFFCURVE",
"642 700 OFFCURVE",
"549 700 CURVE SMOOTH",
"526 700 OFFCURVE",
"504 700 OFFCURVE",
"481 700 CURVE SMOOTH",
"414 700 OFFCURVE",
"401 700 OFFCURVE",
"304 700 CURVE SMOOTH",
"260 700 OFFCURVE",
"177 700 OFFCURVE",
"133 700 CURVE SMOOTH",
"34 700 OFFCURVE",
"7 675 OFFCURVE",
"10 592 CURVE SMOOTH",
"12 511 OFFCURVE",
"23 431 OFFCURVE",
"25 350 CURVE SMOOTH",
"27 269 OFFCURVE",
"20 189 OFFCURVE",
"22 108 CURVE SMOOTH",
"25 25 OFFCURVE",
"52 0 OFFCURVE",
"151 0 CURVE SMOOTH",
"227 0 OFFCURVE",
"263 0 OFFCURVE",
"299 0 CURVE SMOOTH",
"372 0 OFFCURVE",
"371 62 OFFCURVE",
"399 193 CURVE",
"435 193 OFFCURVE",
"471 193 OFFCURVE",
"507 193 CURVE SMOOTH",
"606 193 OFFCURVE",
"612 179 OFFCURVE",
"602 419 CURVE"
);
}
);
width = 649;
}
);
unicode = "0046,0066";
},
{
glyphname = G;
lastChange = "2022-01-14 06:54:36 +0000";
layers = (
{
background = {
paths = (
{
closed = 1;
nodes = (
"121 700 OFFCURVE",
"35 597 OFFCURVE",
"35 383 CURVE SMOOTH",
"35 379 OFFCURVE",
"35 284 OFFCURVE",
"35 280 CURVE SMOOTH",
"35 47 OFFCURVE",
"145 -12 OFFCURVE",
"249 -12 CURVE SMOOTH",
"341 -12 OFFCURVE",
"385 14 OFFCURVE",
"385 162 CURVE SMOOTH",
"385 162 OFFCURVE",
"384 355 OFFCURVE",
"384 355 CURVE",
"384 355 OFFCURVE",
"384 355 OFFCURVE",
"384 355 CURVE",
"384 355 OFFCURVE",
"424 355 OFFCURVE",
"424 355 CURVE",
"424 355 OFFCURVE",
"424 0 OFFCURVE",
"424 0 CURVE",
"424 0 OFFCURVE",
"588 0 OFFCURVE",
"588 0 CURVE",
"588 0 OFFCURVE",
"588 375 OFFCURVE",
"588 375 CURVE",
"588 375 OFFCURVE",
"364 375 OFFCURVE",
"364 375 CURVE SMOOTH",
"364 375 OFFCURVE",
"364 375 OFFCURVE",
"364 306 CURVE SMOOTH",
"364 220 OFFCURVE",
"355 142 OFFCURVE",
"277 142 CURVE SMOOTH",
"225 142 OFFCURVE",
"191 180 OFFCURVE",
"191 255 CURVE SMOOTH",
"191 326 OFFCURVE",
"191 326 OFFCURVE",
"191 397 CURVE SMOOTH",
"191 516 OFFCURVE",
"229 560 OFFCURVE",
"339 560 CURVE SMOOTH",
"577 560 OFFCURVE",
"577 560 OFFCURVE",
"577 560 CURVE",
"577 560 OFFCURVE",
"577 560 OFFCURVE",
"577 560 CURVE",
"577 700 OFFCURVE",
"577 700 OFFCURVE",
"577 700 CURVE",
"457 700 OFFCURVE",
"457 700 OFFCURVE",
"315 700 CURVE SMOOTH"
);
}
);
};
layerId = "116FA8D2-93BA-48BE-A336-ADFD733FF7C5";
paths = (
{
closed = 1;
nodes = (
"121 700 OFFCURVE",
"35 597 OFFCURVE",
"35 383 CURVE SMOOTH",
"35 379 OFFCURVE",
"35 284 OFFCURVE",
"35 280 CURVE SMOOTH",
"35 47 OFFCURVE",
"145 -12 OFFCURVE",
"249 -12 CURVE SMOOTH",
"341 -12 OFFCURVE",
"385 14 OFFCURVE",
"385 162 CURVE SMOOTH",
"385 162 OFFCURVE",
"384 355 OFFCURVE",
"384 355 CURVE",
"384 355 OFFCURVE",
"384 355 OFFCURVE",
"384 355 CURVE",
"384 355 OFFCURVE",
"424 355 OFFCURVE",
"424 355 CURVE",
"424 355 OFFCURVE",
"424 0 OFFCURVE",
"424 0 CURVE",
"424 0 OFFCURVE",
"588 0 OFFCURVE",
"588 0 CURVE",
"588 0 OFFCURVE",
"588 375 OFFCURVE",
"588 375 CURVE",
"588 375 OFFCURVE",
"364 375 OFFCURVE",
"364 375 CURVE SMOOTH",
"364 375 OFFCURVE",
"364 375 OFFCURVE",
"364 306 CURVE SMOOTH",
"364 220 OFFCURVE",
"355 142 OFFCURVE",
"277 142 CURVE SMOOTH",
"225 142 OFFCURVE",
"191 180 OFFCURVE",
"191 255 CURVE SMOOTH",
"191 326 OFFCURVE",
"191 326 OFFCURVE",
"191 397 CURVE SMOOTH",
"191 516 OFFCURVE",
"229 560 OFFCURVE",
"339 560 CURVE SMOOTH",
"577 560 OFFCURVE",
"577 560 OFFCURVE",
"577 560 CURVE",
"577 560 OFFCURVE",
"577 560 OFFCURVE",
"577 560 CURVE",
"577 700 OFFCURVE",
"577 700 OFFCURVE",
"577 700 CURVE",
"457 700 OFFCURVE",
"457 700 OFFCURVE",
"315 700 CURVE SMOOTH"
);
}
);
width = 623;
},
{
background = {
paths = (
{
closed = 1;
nodes = (
"116 700 OFFCURVE",
"5 577 OFFCURVE",
"5 363 CURVE SMOOTH",
"5 359 OFFCURVE",
"5 354 OFFCURVE",
"5 350 CURVE SMOOTH",
"5 123 OFFCURVE",
"109 -14 OFFCURVE",
"352 -14 CURVE SMOOTH",
"421 -14 OFFCURVE",
"480 -2 OFFCURVE",
"529 19 CURVE SMOOTH",
"533 21 OFFCURVE",
"538 23 OFFCURVE",
"542 25 CURVE SMOOTH",
"546 27 OFFCURVE",
"550 29 OFFCURVE",
"554 31 CURVE SMOOTH",
"556 32 OFFCURVE",
"559 34 OFFCURVE",
"561 35 CURVE SMOOTH",
"563 36 OFFCURVE",
"566 38 OFFCURVE",
"568 39 CURVE SMOOTH",
"648 92 OFFCURVE",
"691 178 OFFCURVE",
"691 295 CURVE SMOOTH",
"691 338 OFFCURVE",
"682 363 OFFCURVE",
"640 386 CURVE SMOOTH",
"625 394 OFFCURVE",
"601 404 OFFCURVE",
"585 410 CURVE",
"551 391 OFFCURVE",
"517 373 OFFCURVE",
"483 354 CURVE SMOOTH",
"459 341 OFFCURVE",
"435 327 OFFCURVE",
"411 314 CURVE SMOOTH",
"380 296 OFFCURVE",
"348 279 OFFCURVE",
"317 262 CURVE",
"288 299 OFFCURVE",
"259 337 OFFCURVE",
"230 374 CURVE",
"317 434 OFFCURVE",
"483 447 OFFCURVE",
"585 410 CURVE",
"684 452 OFFCURVE",
"681 467 OFFCURVE",
"676 537 CURVE SMOOTH",
"675 557 OFFCURVE",
"673 577 OFFCURVE",
"672 598 CURVE SMOOTH",
"669 667 OFFCURVE",
"612 700 OFFCURVE",
"513 700 CURVE SMOOTH",
"472 700 OFFCURVE",
"371 700 OFFCURVE",
"310 700 CURVE SMOOTH"
);
}
);
};
layerId = "35B903E1-0971-4EA2-AC4E-2C87C1F50A16";
paths = (
{
closed = 1;
nodes = (
"116 700 OFFCURVE",
"5 577 OFFCURVE",
"5 363 CURVE SMOOTH",
"5 359 OFFCURVE",
"5 354 OFFCURVE",
"5 350 CURVE SMOOTH",
"5 123 OFFCURVE",
"109 -14 OFFCURVE",
"352 -14 CURVE SMOOTH",
"421 -14 OFFCURVE",
"480 -2 OFFCURVE",
"529 19 CURVE SMOOTH",
"533 21 OFFCURVE",
"538 23 OFFCURVE",
"542 25 CURVE SMOOTH",
"546 27 OFFCURVE",
"550 29 OFFCURVE",
"554 31 CURVE SMOOTH",
"556 32 OFFCURVE",
"559 34 OFFCURVE",
"561 35 CURVE SMOOTH",
"563 36 OFFCURVE",
"566 38 OFFCURVE",
"568 39 CURVE SMOOTH",
"648 92 OFFCURVE",
"691 178 OFFCURVE",
"691 295 CURVE SMOOTH",
"691 338 OFFCURVE",
"682 363 OFFCURVE",
"640 386 CURVE SMOOTH",
"625 394 OFFCURVE",
"601 404 OFFCURVE",
"585 410 CURVE",
"551 391 OFFCURVE",
"517 373 OFFCURVE",
"483 354 CURVE SMOOTH",
"459 341 OFFCURVE",
"435 327 OFFCURVE",
"411 314 CURVE SMOOTH",
"380 296 OFFCURVE",
"348 279 OFFCURVE",
"317 262 CURVE",
"288 299 OFFCURVE",
"259 337 OFFCURVE",
"230 374 CURVE",
"317 434 OFFCURVE",
"483 447 OFFCURVE",
"585 410 CURVE",
"684 452 OFFCURVE",
"681 467 OFFCURVE",
"676 537 CURVE SMOOTH",
"675 557 OFFCURVE",
"673 577 OFFCURVE",
"672 598 CURVE SMOOTH",
"669 667 OFFCURVE",
"612 700 OFFCURVE",
"513 700 CURVE SMOOTH",
"472 700 OFFCURVE",
"371 700 OFFCURVE",
"310 700 CURVE SMOOTH"
);
}
);
width = 699;
}
);
unicode = "0047,0067";
},
{
glyphname = H;
lastChange = "2022-01-14 06:54:36 +0000";
layers = (
{
background = {
paths = (
{
closed = 1;
nodes = (
"471 700 OFFCURVE",
"471 636 OFFCURVE",
"471 582 CURVE",
"471 365 LINE",
"242 365 LINE",
"242 419 OFFCURVE",
"242 490 OFFCURVE",
"242 582 CURVE",
"242 652 OFFCURVE",
"242 700 OFFCURVE",
"242 700 CURVE",
"78 700 LINE",
"78 700 OFFCURVE",
"78 675 OFFCURVE",
"78 592 CURVE SMOOTH",
"78 547 OFFCURVE",
"78 431 OFFCURVE",
"78 350 CURVE SMOOTH",
"78 304 OFFCURVE",
"78 189 OFFCURVE",
"78 108 CURVE SMOOTH",
"78 63 OFFCURVE",
"78 0 OFFCURVE",
"78 0 CURVE",
"242 0 LINE",
"242 0 OFFCURVE",
"242 2 OFFCURVE",
"242 83 CURVE SMOOTH",
"242 124 LINE",
"242 345 LINE",
"471 345 LINE",
"471 124 LINE",
"471 28 OFFCURVE",
"471 0 OFFCURVE",
"471 0 CURVE SMOOTH",
"635 0 LINE",
"635 0 OFFCURVE",
"635 25 OFFCURVE",
"635 108 CURVE SMOOTH",
"635 153 OFFCURVE",
"635 269 OFFCURVE",
"635 350 CURVE SMOOTH",
"635 396 OFFCURVE",
"635 511 OFFCURVE",
"635 592 CURVE SMOOTH",
"635 637 OFFCURVE",
"635 700 OFFCURVE",
"635 700 CURVE",
"471 700 LINE SMOOTH"
);
}
);
};
layerId = "116FA8D2-93BA-48BE-A336-ADFD733FF7C5";
paths = (
{
closed = 1;
nodes = (
"471 700 OFFCURVE",
"471 636 OFFCURVE",
"471 582 CURVE",
"471 365 LINE",
"242 365 LINE",
"242 419 OFFCURVE",
"242 490 OFFCURVE",
"242 582 CURVE",
"242 652 OFFCURVE",
"242 700 OFFCURVE",
"242 700 CURVE",
"78 700 LINE",
"78 700 OFFCURVE",
"78 675 OFFCURVE",
"78 592 CURVE SMOOTH",
"78 547 OFFCURVE",
"78 431 OFFCURVE",
"78 350 CURVE SMOOTH",
"78 304 OFFCURVE",
"78 189 OFFCURVE",
"78 108 CURVE SMOOTH",
"78 63 OFFCURVE",
"78 0 OFFCURVE",
"78 0 CURVE",
"242 0 LINE",
"242 0 OFFCURVE",
"242 2 OFFCURVE",
"242 83 CURVE SMOOTH",
"242 124 LINE",
"242 345 LINE",
"471 345 LINE",
"471 124 LINE",
"471 28 OFFCURVE",
"471 0 OFFCURVE",
"471 0 CURVE SMOOTH",
"635 0 LINE",
"635 0 OFFCURVE",
"635 25 OFFCURVE",
"635 108 CURVE SMOOTH",
"635 153 OFFCURVE",
"635 269 OFFCURVE",
"635 350 CURVE SMOOTH",
"635 396 OFFCURVE",
"635 511 OFFCURVE",
"635 592 CURVE SMOOTH",
"635 637 OFFCURVE",
"635 700 OFFCURVE",
"635 700 CURVE",
"471 700 LINE SMOOTH"
);
}
);
width = 713;
},
{
background = {
paths = (
{
closed = 1;
nodes = (
"401 700 OFFCURVE",
"377 636 OFFCURVE",
"365 599 CURVE",
"488 365 LINE",
"315 396 LINE",
"330 461 OFFCURVE",
"349 525 OFFCURVE",
"365 599 CURVE",
"329 652 OFFCURVE",
"334 700 OFFCURVE",
"232 700 CURVE",
"136 700 LINE",
"37 700 OFFCURVE",
"10 675 OFFCURVE",
"10 592 CURVE SMOOTH",
"10 511 OFFCURVE",
"19 431 OFFCURVE",
"19 350 CURVE SMOOTH",
"19 269 OFFCURVE",
"10 189 OFFCURVE",
"10 108 CURVE SMOOTH",
"10 25 OFFCURVE",
"37 0 OFFCURVE",
"136 0 CURVE",
"232 0 LINE",
"282 0 OFFCURVE",
"314 6 OFFCURVE",
"342 83 CURVE SMOOTH",
"351 108 LINE",
"246 365 LINE",
"437 328 LINE",
"351 108 LINE",
"384 28 OFFCURVE",
"432 0 OFFCURVE",
"468 0 CURVE SMOOTH",
"567 0 LINE",
"666 0 OFFCURVE",
"693 25 OFFCURVE",
"693 108 CURVE SMOOTH",
"693 189 OFFCURVE",
"684 269 OFFCURVE",
"684 350 CURVE SMOOTH",
"684 431 OFFCURVE",
"693 511 OFFCURVE",
"693 592 CURVE SMOOTH",
"693 675 OFFCURVE",
"666 700 OFFCURVE",
"567 700 CURVE",
"471 700 LINE SMOOTH"
);
}
);
};
layerId = "35B903E1-0971-4EA2-AC4E-2C87C1F50A16";
paths = (
{
closed = 1;
nodes = (
"401 700 OFFCURVE",
"377 636 OFFCURVE",
"365 599 CURVE",
"488 365 LINE",
"315 396 LINE",
"330 461 OFFCURVE",
"349 525 OFFCURVE",
"365 599 CURVE",
"329 652 OFFCURVE",
"334 700 OFFCURVE",
"232 700 CURVE",
"136 700 LINE",
"37 700 OFFCURVE",
"10 675 OFFCURVE",
"10 592 CURVE SMOOTH",
"10 511 OFFCURVE",
"19 431 OFFCURVE",
"19 350 CURVE SMOOTH",
"19 269 OFFCURVE",
"10 189 OFFCURVE",
"10 108 CURVE SMOOTH",
"10 25 OFFCURVE",
"37 0 OFFCURVE",
"136 0 CURVE",
"232 0 LINE",
"282 0 OFFCURVE",
"314 6 OFFCURVE",
"342 83 CURVE SMOOTH",
"351 108 LINE",
"246 365 LINE",
"437 328 LINE",
"351 108 LINE",
"384 28 OFFCURVE",
"432 0 OFFCURVE",
"468 0 CURVE SMOOTH",
"567 0 LINE",
"666 0 OFFCURVE",
"693 25 OFFCURVE",
"693 108 CURVE SMOOTH",
"693 189 OFFCURVE",
"684 269 OFFCURVE",
"684 350 CURVE SMOOTH",
"684 431 OFFCURVE",
"693 511 OFFCURVE",
"693 592 CURVE SMOOTH",
"693 675 OFFCURVE",
"666 700 OFFCURVE",
"567 700 CURVE",
"471 700 LINE SMOOTH"
);
}
);
width = 703;
}
);
unicode = "0048,0068";
},
{
glyphname = I;
lastChange = "2022-01-14 06:54:36 +0000";
layers = (
{
background = {
paths = (
{
closed = 1;
nodes = (
"112 0 LINE",
"112 0 OFFCURVE",
"112 27 OFFCURVE",
"112 118 CURVE SMOOTH",
"112 167 OFFCURVE",
"112 294 OFFCURVE",
"112 338 CURVE SMOOTH",
"112 368 OFFCURVE",
"112 427 OFFCURVE",
"112 504 CURVE SMOOTH",
"112 538 OFFCURVE",
"112 600 OFFCURVE",
"112 600 CURVE",
"276 600 LINE",
"276 600 OFFCURVE",
"276 573 OFFCURVE",
"276 504 CURVE SMOOTH",
"276 469 OFFCURVE",
"276 427 OFFCURVE",
"276 338 CURVE SMOOTH",
"276 313 OFFCURVE",
"276 206 OFFCURVE",
"276 118 CURVE SMOOTH",
"276 69 OFFCURVE",
"276 0 OFFCURVE",
"276 0 CURVE"
);
},
{
closed = 1;
nodes = (
"78 680 LINE",
"78 681 OFFCURVE",
"78 684 OFFCURVE",
"78 689 CURVE SMOOTH",
"78 694 OFFCURVE",
"78 700 OFFCURVE",
"78 700 CURVE",
"310 700 LINE",
"310 700 OFFCURVE",
"310 696 OFFCURVE",
"310 689 CURVE SMOOTH",
"310 686 OFFCURVE",
"310 680 OFFCURVE",
"310 680 CURVE"
);
}
);
};
layerId = "116FA8D2-93BA-48BE-A336-ADFD733FF7C5";
paths = (
{
closed = 1;
nodes = (
"112 0 LINE",
"112 0 OFFCURVE",
"112 27 OFFCURVE",
"112 118 CURVE SMOOTH",
"112 167 OFFCURVE",
"112 294 OFFCURVE",
"112 338 CURVE SMOOTH",
"112 368 OFFCURVE",
"112 427 OFFCURVE",
"112 504 CURVE SMOOTH",
"112 538 OFFCURVE",
"112 600 OFFCURVE",
"112 600 CURVE",
"276 600 LINE",
"276 600 OFFCURVE",
"276 573 OFFCURVE",
"276 504 CURVE SMOOTH",
"276 469 OFFCURVE",
"276 427 OFFCURVE",
"276 338 CURVE SMOOTH",
"276 313 OFFCURVE",
"276 206 OFFCURVE",
"276 118 CURVE SMOOTH",
"276 69 OFFCURVE",
"276 0 OFFCURVE",
"276 0 CURVE"
);
},
{
closed = 1;
nodes = (
"78 680 LINE",
"78 681 OFFCURVE",
"78 684 OFFCURVE",
"78 689 CURVE SMOOTH",
"78 694 OFFCURVE",
"78 700 OFFCURVE",
"78 700 CURVE",
"310 700 LINE",
"310 700 OFFCURVE",
"310 696 OFFCURVE",
"310 689 CURVE SMOOTH",
"310 686 OFFCURVE",
"310 680 OFFCURVE",
"310 680 CURVE"
);
}
);
width = 388;
},
{
background = {
paths = (
{
closed = 1;
nodes = (
"142 0 LINE",
"43 0 OFFCURVE",
"16 25 OFFCURVE",
"16 108 CURVE SMOOTH",
"16 189 OFFCURVE",
"25 269 OFFCURVE",
"25 310 CURVE SMOOTH",
"25 391 OFFCURVE",
"16 391 OFFCURVE",
"16 462 CURVE SMOOTH",
"16 525 OFFCURVE",
"43 550 OFFCURVE",
"142 550 CURVE",
"238 550 LINE",
"337 550 OFFCURVE",
"364 525 OFFCURVE",
"364 462 CURVE SMOOTH",
"364 391 OFFCURVE",
"355 391 OFFCURVE",
"355 310 CURVE SMOOTH",
"355 269 OFFCURVE",
"364 189 OFFCURVE",
"364 108 CURVE SMOOTH",
"364 25 OFFCURVE",
"337 0 OFFCURVE",
"238 0 CURVE"
);
},
{
closed = 1;
nodes = (
"76 574 LINE",
"11 581 OFFCURVE",
"10 599 OFFCURVE",
"10 639 CURVE SMOOTH",
"10 682 OFFCURVE",
"9 701 OFFCURVE",
"89 701 CURVE SMOOTH",
"308 700 LINE SMOOTH",
"370 700 OFFCURVE",
"369 679 OFFCURVE",
"369 641 CURVE SMOOTH",
"369 602 OFFCURVE",
"368 575 OFFCURVE",
"315 575 CURVE SMOOTH"
);
}
);
};
layerId = "35B903E1-0971-4EA2-AC4E-2C87C1F50A16";
paths = (
{
closed = 1;
nodes = (
"142 0 LINE",
"43 0 OFFCURVE",
"16 25 OFFCURVE",
"16 108 CURVE SMOOTH",
"16 189 OFFCURVE",
"25 269 OFFCURVE",
"25 310 CURVE SMOOTH",
"25 391 OFFCURVE",
"16 391 OFFCURVE",
"16 462 CURVE SMOOTH",
"16 525 OFFCURVE",
"43 550 OFFCURVE",
"142 550 CURVE",
"238 550 LINE",
"337 550 OFFCURVE",
"364 525 OFFCURVE",
"364 462 CURVE SMOOTH",
"364 391 OFFCURVE",
"355 391 OFFCURVE",
"355 310 CURVE SMOOTH",
"355 269 OFFCURVE",
"364 189 OFFCURVE",
"364 108 CURVE SMOOTH",
"364 25 OFFCURVE",
"337 0 OFFCURVE",
"238 0 CURVE"
);
},
{
closed = 1;
nodes = (
"76 574 LINE",
"11 581 OFFCURVE",
"10 599 OFFCURVE",
"10 639 CURVE SMOOTH",
"10 682 OFFCURVE",
"9 701 OFFCURVE",
"89 701 CURVE SMOOTH",
"308 700 LINE SMOOTH",
"370 700 OFFCURVE",
"369 679 OFFCURVE",
"369 641 CURVE SMOOTH",
"369 602 OFFCURVE",
"368 575 OFFCURVE",
"315 575 CURVE SMOOTH"
);
}
);
width = 379;
}
);
leftMetricsKey = H;
rightMetricsKey = H;
unicode = "0049,0069";
},
{
glyphname = J;
lastChange = "2022-01-14 06:54:36 +0000";
layers = (
{
background = {
paths = (
{
closed = 1;
nodes = (
"0 20 OFFCURVE",
"0 0 OFFCURVE",
"0 0 CURVE",
"0 0 OFFCURVE",
"0 0 OFFCURVE",
"0 0 CURVE",
"0 0 OFFCURVE",
"0 0 OFFCURVE",
"0 0 CURVE",
"0 0 OFFCURVE",
"0 0 OFFCURVE",
"0 0 CURVE",
"0 0 OFFCURVE",
"0 0 OFFCURVE",
"0 0 CURVE",
"0 0 OFFCURVE",
"0 0 OFFCURVE",
"194 0 CURVE SMOOTH",
"335 0 OFFCURVE",
"382 42 OFFCURVE",
"382 180 CURVE SMOOTH",
"382 314 OFFCURVE",
"382 359 OFFCURVE",
"382 363 CURVE SMOOTH",
"382 577 OFFCURVE",
"382 700 OFFCURVE",
"382 700 CURVE",
"25 700 OFFCURVE",
"25 700 OFFCURVE",
"25 700 CURVE",
"25 700 OFFCURVE",
"25 700 OFFCURVE",
"25 700 CURVE",
"25 700 OFFCURVE",
"25 700 OFFCURVE",
"25 700 CURVE",
"25 700 OFFCURVE",
"25 680 OFFCURVE",
"25 680 CURVE",
"25 680 OFFCURVE",
"218 680 OFFCURVE",
"218 680 CURVE",
"218 539 OFFCURVE",
"218 227 OFFCURVE",
"218 136 CURVE SMOOTH",
"218 45 OFFCURVE",
"193 20 OFFCURVE",
"139 20 CURVE SMOOTH",
"61 20 OFFCURVE",
"0 20 OFFCURVE",
"0 20 CURVE"
);
}
);
};
layerId = "116FA8D2-93BA-48BE-A336-ADFD733FF7C5";
paths = (
{
closed = 1;
nodes = (
"0 20 OFFCURVE",
"0 0 OFFCURVE",
"0 0 CURVE",
"0 0 OFFCURVE",
"0 0 OFFCURVE",
"0 0 CURVE",
"0 0 OFFCURVE",
"0 0 OFFCURVE",
"0 0 CURVE",
"0 0 OFFCURVE",
"0 0 OFFCURVE",
"0 0 CURVE",
"0 0 OFFCURVE",
"0 0 OFFCURVE",
"0 0 CURVE",
"0 0 OFFCURVE",
"0 0 OFFCURVE",
"194 0 CURVE SMOOTH",
"335 0 OFFCURVE",
"382 42 OFFCURVE",
"382 180 CURVE SMOOTH",
"382 314 OFFCURVE",
"382 359 OFFCURVE",
"382 363 CURVE SMOOTH",
"382 577 OFFCURVE",
"382 700 OFFCURVE",
"382 700 CURVE",
"25 700 OFFCURVE",
"25 700 OFFCURVE",
"25 700 CURVE",
"25 700 OFFCURVE",
"25 700 OFFCURVE",
"25 700 CURVE",
"25 700 OFFCURVE",
"25 700 OFFCURVE",
"25 700 CURVE",
"25 700 OFFCURVE",
"25 680 OFFCURVE",
"25 680 CURVE",
"25 680 OFFCURVE",
"218 680 OFFCURVE",
"218 680 CURVE",
"218 539 OFFCURVE",
"218 227 OFFCURVE",
"218 136 CURVE SMOOTH",
"218 45 OFFCURVE",
"193 20 OFFCURVE",
"139 20 CURVE SMOOTH",
"61 20 OFFCURVE",
"0 20 OFFCURVE",
"0 20 CURVE"
);
}
);
width = 454;
},
{
background = {
paths = (
{
closed = 1;
nodes = (
"-5 193 OFFCURVE",
"3 154 OFFCURVE",
"20 124 CURVE SMOOTH",
"35 99 OFFCURVE",
"69 65 OFFCURVE",
"92 47 CURVE SMOOTH",
"107 35 OFFCURVE",
"124 25 OFFCURVE",
"143 17 CURVE SMOOTH",
"146 16 OFFCURVE",
"148 15 OFFCURVE",
"151 14 CURVE SMOOTH",
"177 5 OFFCURVE",
"206 0 OFFCURVE",
"240 0 CURVE SMOOTH",
"251 0 OFFCURVE",
"281 0 OFFCURVE",
"329 0 CURVE SMOOTH",
"483 0 OFFCURVE",
"520 130 OFFCURVE",
"520 285 CURVE SMOOTH",
"520 339 OFFCURVE",
"512 447 OFFCURVE",
"512 558 CURVE SMOOTH",
"512 665 OFFCURVE",
"493 700 OFFCURVE",
"419 700 CURVE SMOOTH",
"372 700 OFFCURVE",
"327 699 OFFCURVE",
"286 700 CURVE SMOOTH",
"208 701 OFFCURVE",
"164 668 OFFCURVE",
"163 599 CURVE SMOOTH",
"162 549 OFFCURVE",
"161 498 OFFCURVE",
"161 478 CURVE SMOOTH",
"161 414 OFFCURVE",
"160 369 OFFCURVE",
"170 322 CURVE",
"234 320 OFFCURVE",
"299 311 OFFCURVE",
"371 215 CURVE",
"341 175 OFFCURVE",
"341 175 OFFCURVE",
"310 136 CURVE",
"246 151 OFFCURVE",
"184 262 OFFCURVE",
"170 322 CURVE",
"79 324 OFFCURVE",
"19 290 OFFCURVE",
"4 229 CURVE SMOOTH"
);
}
);
};
layerId = "35B903E1-0971-4EA2-AC4E-2C87C1F50A16";
paths = (
{
closed = 1;
nodes = (
"-5 193 OFFCURVE",
"3 154 OFFCURVE",
"20 124 CURVE SMOOTH",
"35 99 OFFCURVE",
"69 65 OFFCURVE",
"92 47 CURVE SMOOTH",
"107 35 OFFCURVE",
"124 25 OFFCURVE",
"143 17 CURVE SMOOTH",
"146 16 OFFCURVE",
"148 15 OFFCURVE",
"151 14 CURVE SMOOTH",
"177 5 OFFCURVE",
"206 0 OFFCURVE",
"240 0 CURVE SMOOTH",
"251 0 OFFCURVE",
"281 0 OFFCURVE",
"329 0 CURVE SMOOTH",
"483 0 OFFCURVE",
"520 130 OFFCURVE",
"520 285 CURVE SMOOTH",
"520 339 OFFCURVE",
"512 447 OFFCURVE",
"512 558 CURVE SMOOTH",
"512 665 OFFCURVE",
"493 700 OFFCURVE",
"419 700 CURVE SMOOTH",
"372 700 OFFCURVE",
"327 699 OFFCURVE",
"286 700 CURVE SMOOTH",
"208 701 OFFCURVE",
"164 668 OFFCURVE",
"163 599 CURVE SMOOTH",
"162 549 OFFCURVE",
"161 498 OFFCURVE",
"161 478 CURVE SMOOTH",
"161 414 OFFCURVE",
"160 369 OFFCURVE",
"170 322 CURVE",
"234 320 OFFCURVE",
"299 311 OFFCURVE",
"371 215 CURVE",
"341 175 OFFCURVE",
"341 175 OFFCURVE",
"310 136 CURVE",
"246 151 OFFCURVE",
"184 262 OFFCURVE",
"170 322 CURVE",
"79 324 OFFCURVE",
"19 290 OFFCURVE",
"4 229 CURVE SMOOTH"
);
}
);
width = 534;
}
);
unicode = "004A,006A";
},
{
glyphname = K;
lastChange = "2022-01-14 06:54:36 +0000";
layers = (
{
background = {
paths = (
{
closed = 1;
nodes = (
"271 311 OFFCURVE",
"256 311 OFFCURVE",
"242 311 CURVE",
"242 222 OFFCURVE",
"242 139 OFFCURVE",
"242 124 CURVE",
"242 108 LINE SMOOTH",
"242 26 OFFCURVE",
"242 0 OFFCURVE",
"242 0 CURVE",
"78 0 LINE",
"78 0 OFFCURVE",
"78 25 OFFCURVE",
"78 108 CURVE SMOOTH",
"78 153 OFFCURVE",
"78 269 OFFCURVE",
"78 350 CURVE SMOOTH",
"78 396 OFFCURVE",
"78 511 OFFCURVE",
"78 592 CURVE SMOOTH",
"78 637 OFFCURVE",
"78 700 OFFCURVE",
"78 700 CURVE",
"242 700 LINE",
"242 700 OFFCURVE",
"242 675 OFFCURVE",
"242 592 CURVE SMOOTH",
"242 583 OFFCURVE",
"242 561 OFFCURVE",
"242 540 CURVE",
"242 467 OFFCURVE",
"242 449 OFFCURVE",
"242 391 CURVE",
"285 391 LINE",
"373 540 LINE",
"373 540 OFFCURVE",
"467 700 OFFCURVE",
"467 700 CURVE",
"640 700 LINE",
"640 700 OFFCURVE",
"444 371 OFFCURVE",
"444 371 CURVE",
"444 371 OFFCURVE",
"392 371 OFFCURVE",
"341 371 CURVE SMOOTH",
"291 371 OFFCURVE",
"242 371 OFFCURVE",
"242 371 CURVE",
"242 371 OFFCURVE",
"242 331 OFFCURVE",
"242 331 CURVE",
"242 331 OFFCURVE",
"294 331 OFFCURVE",
"347 331 CURVE SMOOTH",
"399 331 OFFCURVE",
"452 331 OFFCURVE",
"452 331 CURVE",
"452 331 OFFCURVE",
"678 0 OFFCURVE",
"678 0 CURVE",
"486 0 LINE",
"486 0 OFFCURVE",
"381 161 OFFCURVE",
"381 161 CURVE",
"349 211 OFFCURVE",
"317 261 OFFCURVE",
"285 311 CURVE"
);
}
);
};
layerId = "116FA8D2-93BA-48BE-A336-ADFD733FF7C5";
paths = (
{
closed = 1;
nodes = (
"271 311 OFFCURVE",
"256 311 OFFCURVE",
"242 311 CURVE",
"242 222 OFFCURVE",
"242 139 OFFCURVE",
"242 124 CURVE",
"242 108 LINE SMOOTH",
"242 26 OFFCURVE",
"242 0 OFFCURVE",
"242 0 CURVE",
"78 0 LINE",
"78 0 OFFCURVE",
"78 25 OFFCURVE",
"78 108 CURVE SMOOTH",
"78 153 OFFCURVE",
"78 269 OFFCURVE",
"78 350 CURVE SMOOTH",
"78 396 OFFCURVE",
"78 511 OFFCURVE",
"78 592 CURVE SMOOTH",
"78 637 OFFCURVE",
"78 700 OFFCURVE",
"78 700 CURVE",
"242 700 LINE",
"242 700 OFFCURVE",
"242 675 OFFCURVE",
"242 592 CURVE SMOOTH",
"242 583 OFFCURVE",
"242 561 OFFCURVE",
"242 540 CURVE",
"242 467 OFFCURVE",
"242 449 OFFCURVE",
"242 391 CURVE",
"285 391 LINE",
"373 540 LINE",
"373 540 OFFCURVE",
"467 700 OFFCURVE",
"467 700 CURVE",
"640 700 LINE",
"640 700 OFFCURVE",
"444 371 OFFCURVE",
"444 371 CURVE",
"444 371 OFFCURVE",
"392 371 OFFCURVE",
"341 371 CURVE SMOOTH",
"291 371 OFFCURVE",
"242 371 OFFCURVE",
"242 371 CURVE",
"242 371 OFFCURVE",
"242 331 OFFCURVE",
"242 331 CURVE",
"242 331 OFFCURVE",
"294 331 OFFCURVE",
"347 331 CURVE SMOOTH",
"399 331 OFFCURVE",
"452 331 OFFCURVE",
"452 331 CURVE",
"452 331 OFFCURVE",
"678 0 OFFCURVE",
"678 0 CURVE",
"486 0 LINE",
"486 0 OFFCURVE",
"381 161 OFFCURVE",
"381 161 CURVE",
"349 211 OFFCURVE",
"317 261 OFFCURVE",
"285 311 CURVE"
);
}
);
width = 677;
},
{
background = {
paths = (
{
closed = 1;
nodes = (
"254 42 OFFCURVE",
"231 0 OFFCURVE",
"185 0 CURVE SMOOTH",
"180 0 OFFCURVE",
"176 0 OFFCURVE",
"176 0 CURVE SMOOTH",
"174 0 LINE",
"171 0 OFFCURVE",
"169 0 OFFCURVE",
"160 0 CURVE",
"136 0 LINE",
"37 0 OFFCURVE",
"10 25 OFFCURVE",
"10 108 CURVE SMOOTH",
"10 189 OFFCURVE",
"19 269 OFFCURVE",
"19 350 CURVE SMOOTH",
"19 431 OFFCURVE",
"10 511 OFFCURVE",
"10 592 CURVE SMOOTH",
"10 675 OFFCURVE",
"37 700 OFFCURVE",
"136 700 CURVE",
"150 700 LINE",
"169 700 OFFCURVE",
"186 700 OFFCURVE",
"186 700 CURVE",
"197 700 OFFCURVE",
"204 700 OFFCURVE",
"213 700 CURVE SMOOTH",
"279 700 OFFCURVE",
"324 649 OFFCURVE",
"377 573 CURVE",
"377 573 LINE",
"377 573 LINE",
"376 656 OFFCURVE",
"409 700 OFFCURVE",
"479 700 CURVE SMOOTH",
"527 700 LINE SMOOTH",
"626 700 OFFCURVE",
"653 654 OFFCURVE",
"653 583 CURVE SMOOTH",
"653 523 OFFCURVE",
"626 502 OFFCURVE",
"528 388 CURVE",
"478 453 OFFCURVE",
"427 508 OFFCURVE",
"377 573 CURVE",
"376 443 OFFCURVE",
"376 341 OFFCURVE",
"376 202 CURVE",
"427 264 OFFCURVE",
"478 325 OFFCURVE",
"528 388 CURVE",
"654 239 OFFCURVE",
"654 153 OFFCURVE",
"654 108 CURVE SMOOTH",
"654 25 OFFCURVE",
"626 0 OFFCURVE",
"527 0 CURVE SMOOTH",
"499 0 LINE SMOOTH",
"391 0 OFFCURVE",
"375 17 OFFCURVE",
"375 111 CURVE SMOOTH",
"375 127 OFFCURVE",
"376 188 OFFCURVE",
"376 202 CURVE"
);
}
);
};
layerId = "35B903E1-0971-4EA2-AC4E-2C87C1F50A16";
paths = (
{
closed = 1;
nodes = (
"254 42 OFFCURVE",
"231 0 OFFCURVE",
"185 0 CURVE SMOOTH",
"180 0 OFFCURVE",
"176 0 OFFCURVE",
"176 0 CURVE SMOOTH",
"174 0 LINE",
"171 0 OFFCURVE",
"169 0 OFFCURVE",
"160 0 CURVE",
"136 0 LINE",
"37 0 OFFCURVE",
"10 25 OFFCURVE",
"10 108 CURVE SMOOTH",
"10 189 OFFCURVE",
"19 269 OFFCURVE",
"19 350 CURVE SMOOTH",
"19 431 OFFCURVE",
"10 511 OFFCURVE",
"10 592 CURVE SMOOTH",
"10 675 OFFCURVE",
"37 700 OFFCURVE",
"136 700 CURVE",
"150 700 LINE",
"169 700 OFFCURVE",
"186 700 OFFCURVE",
"186 700 CURVE",
"197 700 OFFCURVE",
"204 700 OFFCURVE",
"213 700 CURVE SMOOTH",
"279 700 OFFCURVE",
"324 649 OFFCURVE",
"377 573 CURVE",
"377 573 LINE",
"377 573 LINE",
"376 656 OFFCURVE",
"409 700 OFFCURVE",
"479 700 CURVE SMOOTH",
"527 700 LINE SMOOTH",
"626 700 OFFCURVE",
"653 654 OFFCURVE",
"653 583 CURVE SMOOTH",
"653 523 OFFCURVE",
"626 502 OFFCURVE",
"528 388 CURVE",
"478 453 OFFCURVE",
"427 508 OFFCURVE",
"377 573 CURVE",
"376 443 OFFCURVE",
"376 341 OFFCURVE",
"376 202 CURVE",
"427 264 OFFCURVE",
"478 325 OFFCURVE",
"528 388 CURVE",
"654 239 OFFCURVE",
"654 153 OFFCURVE",
"654 108 CURVE SMOOTH",
"654 25 OFFCURVE",
"626 0 OFFCURVE",
"527 0 CURVE SMOOTH",
"499 0 LINE SMOOTH",
"391 0 OFFCURVE",
"375 17 OFFCURVE",
"375 111 CURVE SMOOTH",
"375 127 OFFCURVE",
"376 188 OFFCURVE",
"376 202 CURVE"
);
}
);
width = 654;
}
);
unicode = "004B,006B";
},
{
glyphname = L;
lastChange = "2022-01-14 06:54:36 +0000";
layers = (
{
background = {
paths = (
{
closed = 1;
nodes = (
"242 700 OFFCURVE",
"78 700 OFFCURVE",
"78 700 CURVE",
"78 700 OFFCURVE",
"78 675 OFFCURVE",
"78 592 CURVE SMOOTH",
"78 528 OFFCURVE",
"78 431 OFFCURVE",
"78 350 CURVE SMOOTH",
"78 283 OFFCURVE",
"78 189 OFFCURVE",
"78 108 CURVE SMOOTH",
"78 43 OFFCURVE",
"78 0 OFFCURVE",
"78 0 CURVE",
"78 0 LINE",
"193 0 OFFCURVE",
"256 0 OFFCURVE",
"292 0 CURVE SMOOTH",
"460 0 LINE SMOOTH",
"559 0 OFFCURVE",
"564 0 OFFCURVE",
"564 0 CURVE",
"564 20 LINE",
"564 20 OFFCURVE",
"557 20 OFFCURVE",
"494 20 CURVE SMOOTH",
"464 20 OFFCURVE",
"399 20 OFFCURVE",
"353 20 CURVE",
"331 20 OFFCURVE",
"291 20 OFFCURVE",
"242 20 CURVE",
"242 106 OFFCURVE",
"242 191 OFFCURVE",
"242 277 CURVE",
"242 283 OFFCURVE",
"242 289 OFFCURVE",
"242 295 CURVE",
"242 375 OFFCURVE",
"242 700 OFFCURVE",
"242 700 CURVE"
);
}
);
};
layerId = "116FA8D2-93BA-48BE-A336-ADFD733FF7C5";
paths = (
{
closed = 1;
nodes = (
"242 700 OFFCURVE",
"78 700 OFFCURVE",
"78 700 CURVE",
"78 700 OFFCURVE",
"78 675 OFFCURVE",
"78 592 CURVE SMOOTH",
"78 528 OFFCURVE",
"78 431 OFFCURVE",
"78 350 CURVE SMOOTH",
"78 283 OFFCURVE",
"78 189 OFFCURVE",
"78 108 CURVE SMOOTH",
"78 43 OFFCURVE",
"78 0 OFFCURVE",
"78 0 CURVE",
"78 0 LINE",
"193 0 OFFCURVE",
"256 0 OFFCURVE",
"292 0 CURVE SMOOTH",
"460 0 LINE SMOOTH",
"559 0 OFFCURVE",
"564 0 OFFCURVE",
"564 0 CURVE",
"564 20 LINE",
"564 20 OFFCURVE",
"557 20 OFFCURVE",
"494 20 CURVE SMOOTH",
"464 20 OFFCURVE",
"399 20 OFFCURVE",
"353 20 CURVE",
"331 20 OFFCURVE",
"291 20 OFFCURVE",
"242 20 CURVE",
"242 106 OFFCURVE",
"242 191 OFFCURVE",
"242 277 CURVE",
"242 283 OFFCURVE",
"242 289 OFFCURVE",
"242 295 CURVE",
"242 375 OFFCURVE",
"242 700 OFFCURVE",
"242 700 CURVE"
);
}
);
width = 564;
},
{
background = {
paths = (
{
closed = 1;
nodes = (
"315 672 OFFCURVE",
"258 700 OFFCURVE",
"167 700 CURVE SMOOTH",
"38 700 OFFCURVE",
"10 675 OFFCURVE",
"10 592 CURVE SMOOTH",
"10 511 OFFCURVE",
"20 431 OFFCURVE",
"20 350 CURVE SMOOTH",
"20 269 OFFCURVE",
"10 189 OFFCURVE",
"10 108 CURVE SMOOTH",
"10 25 OFFCURVE",
"28 0 OFFCURVE",
"78 0 CURVE SMOOTH",
"156 0 LINE SMOOTH",
"219 0 OFFCURVE",
"286 0 OFFCURVE",
"322 0 CURVE SMOOTH",
"490 0 LINE SMOOTH",
"559 0 OFFCURVE",
"586 25 OFFCURVE",
"586 108 CURVE SMOOTH",
"586 267 LINE SMOOTH",
"586 337 OFFCURVE",
"557 363 OFFCURVE",
"524 380 CURVE SMOOTH",
"484 401 OFFCURVE",
"429 387 OFFCURVE",
"383 382 CURVE",
"351 226 OFFCURVE",
"311 154 OFFCURVE",
"182 123 CURVE",
"182 201 OFFCURVE",
"181 279 OFFCURVE",
"181 357 CURVE",
"248 365 OFFCURVE",
"316 374 OFFCURVE",
"383 382 CURVE",
"395 475 OFFCURVE",
"393 568 OFFCURVE",
"348 628 CURVE SMOOTH"
);
}
);
};
layerId = "35B903E1-0971-4EA2-AC4E-2C87C1F50A16";
paths = (
{
closed = 1;
nodes = (
"315 672 OFFCURVE",
"258 700 OFFCURVE",
"167 700 CURVE SMOOTH",
"38 700 OFFCURVE",
"10 675 OFFCURVE",
"10 592 CURVE SMOOTH",
"10 511 OFFCURVE",
"20 431 OFFCURVE",
"20 350 CURVE SMOOTH",
"20 269 OFFCURVE",
"10 189 OFFCURVE",
"10 108 CURVE SMOOTH",
"10 25 OFFCURVE",
"28 0 OFFCURVE",
"78 0 CURVE SMOOTH",
"156 0 LINE SMOOTH",
"219 0 OFFCURVE",
"286 0 OFFCURVE",
"322 0 CURVE SMOOTH",
"490 0 LINE SMOOTH",
"559 0 OFFCURVE",
"586 25 OFFCURVE",
"586 108 CURVE SMOOTH",
"586 267 LINE SMOOTH",
"586 337 OFFCURVE",
"557 363 OFFCURVE",
"524 380 CURVE SMOOTH",
"484 401 OFFCURVE",
"429 387 OFFCURVE",
"383 382 CURVE",
"351 226 OFFCURVE",
"311 154 OFFCURVE",
"182 123 CURVE",
"182 201 OFFCURVE",
"181 279 OFFCURVE",
"181 357 CURVE",
"248 365 OFFCURVE",
"316 374 OFFCURVE",
"383 382 CURVE",
"395 475 OFFCURVE",
"393 568 OFFCURVE",
"348 628 CURVE SMOOTH"
);
}
);
width = 586;
}
);
unicode = "004C,006C";
},
{
glyphname = M;
lastChange = "2022-01-14 06:54:36 +0000";
layers = (
{
background = {
paths = (
{
closed = 1;
nodes = (
"201 0 OFFCURVE",
"235 0 OFFCURVE",
"275 0 CURVE",
"275 0 OFFCURVE",
"343 406 OFFCURVE",
"354 469 CURVE SMOOTH",
"365 535 OFFCURVE",
"374 558 OFFCURVE",
"396 558 CURVE SMOOTH",
"418 558 OFFCURVE",
"427 542 OFFCURVE",
"427 451 CURVE SMOOTH",
"427 364 OFFCURVE",
"427 98 OFFCURVE",
"427 0 CURVE",
"452 0 OFFCURVE",
"471 0 OFFCURVE",
"515 0 CURVE SMOOTH",
"527 0 OFFCURVE",
"607 0 OFFCURVE",
"624 0 CURVE",
"624 0 OFFCURVE",
"694 410 OFFCURVE",
"703 469 CURVE SMOOTH",
"713 535 OFFCURVE",
"723 558 OFFCURVE",
"745 558 CURVE SMOOTH",
"767 558 OFFCURVE",
"776 542 OFFCURVE",
"776 451 CURVE SMOOTH",
"776 355 OFFCURVE",
"776 188 OFFCURVE",
"776 91 CURVE",
"776 24 OFFCURVE",
"776 0 OFFCURVE",
"776 0 CURVE",
"776 0 OFFCURVE",
"940 0 OFFCURVE",
"940 0 CURVE",
"940 0 OFFCURVE",
"940 26 OFFCURVE",
"940 125 CURVE SMOOTH",
"940 201 OFFCURVE",
"940 455 OFFCURVE",
"940 531 CURVE SMOOTH",
"940 652 OFFCURVE",
"908 712 OFFCURVE",
"833 712 CURVE SMOOTH",
"750 712 OFFCURVE",
"710 652 OFFCURVE",
"688 521 CURVE",
"682 497 OFFCURVE",
"604 20 OFFCURVE",
"604 20 CURVE",
"604 20 OFFCURVE",
"591 20 OFFCURVE",
"591 20 CURVE",
"591 20 OFFCURVE",
"591 475 OFFCURVE",
"591 531 CURVE SMOOTH",
"591 652 OFFCURVE",
"559 712 OFFCURVE",
"484 712 CURVE SMOOTH",
"401 712 OFFCURVE",
"361 652 OFFCURVE",
"339 521 CURVE SMOOTH",
"327 450 OFFCURVE",
"262 62 OFFCURVE",
"255 20 CURVE",
"249 20 OFFCURVE",
"245 20 OFFCURVE",
"242 20 CURVE",
"242 41 OFFCURVE",
"242 667 OFFCURVE",
"242 700 CURVE",
"204 700 OFFCURVE",
"230 700 OFFCURVE",
"78 700 CURVE SMOOTH",
"78 700 LINE",
"78 700 OFFCURVE",
"78 675 OFFCURVE",
"78 592 CURVE",
"78 511 OFFCURVE",
"78 431 OFFCURVE",
"78 350 CURVE",
"78 269 OFFCURVE",
"78 189 OFFCURVE",
"78 117 CURVE",
"78 26 OFFCURVE",
"78 0 OFFCURVE",
"78 0 CURVE SMOOTH"
);
}
);
};
layerId = "116FA8D2-93BA-48BE-A336-ADFD733FF7C5";
paths = (
{
closed = 1;
nodes = (
"201 0 OFFCURVE",
"235 0 OFFCURVE",
"275 0 CURVE",
"275 0 OFFCURVE",
"343 406 OFFCURVE",
"354 469 CURVE SMOOTH",
"365 535 OFFCURVE",
"374 558 OFFCURVE",
"396 558 CURVE SMOOTH",
"418 558 OFFCURVE",
"427 542 OFFCURVE",
"427 451 CURVE SMOOTH",
"427 364 OFFCURVE",
"427 98 OFFCURVE",
"427 0 CURVE",
"452 0 OFFCURVE",
"471 0 OFFCURVE",
"515 0 CURVE SMOOTH",
"527 0 OFFCURVE",
"607 0 OFFCURVE",
"624 0 CURVE",
"624 0 OFFCURVE",
"694 410 OFFCURVE",
"703 469 CURVE SMOOTH",
"713 535 OFFCURVE",
"723 558 OFFCURVE",
"745 558 CURVE SMOOTH",
"767 558 OFFCURVE",
"776 542 OFFCURVE",
"776 451 CURVE SMOOTH",
"776 355 OFFCURVE",
"776 188 OFFCURVE",
"776 91 CURVE",
"776 24 OFFCURVE",
"776 0 OFFCURVE",
"776 0 CURVE",
"776 0 OFFCURVE",
"940 0 OFFCURVE",
"940 0 CURVE",
"940 0 OFFCURVE",
"940 26 OFFCURVE",
"940 125 CURVE SMOOTH",
"940 201 OFFCURVE",
"940 455 OFFCURVE",
"940 531 CURVE SMOOTH",
"940 652 OFFCURVE",
"908 712 OFFCURVE",
"833 712 CURVE SMOOTH",
"750 712 OFFCURVE",
"710 652 OFFCURVE",
"688 521 CURVE",
"682 497 OFFCURVE",
"604 20 OFFCURVE",
"604 20 CURVE",
"604 20 OFFCURVE",
"591 20 OFFCURVE",
"591 20 CURVE",
"591 20 OFFCURVE",
"591 475 OFFCURVE",
"591 531 CURVE SMOOTH",
"591 652 OFFCURVE",
"559 712 OFFCURVE",
"484 712 CURVE SMOOTH",
"401 712 OFFCURVE",
"361 652 OFFCURVE",
"339 521 CURVE SMOOTH",
"327 450 OFFCURVE",
"262 62 OFFCURVE",
"255 20 CURVE",
"249 20 OFFCURVE",
"245 20 OFFCURVE",
"242 20 CURVE",
"242 41 OFFCURVE",
"242 667 OFFCURVE",
"242 700 CURVE",
"204 700 OFFCURVE",
"230 700 OFFCURVE",
"78 700 CURVE SMOOTH",
"78 700 LINE",
"78 700 OFFCURVE",
"78 675 OFFCURVE",
"78 592 CURVE",
"78 511 OFFCURVE",
"78 431 OFFCURVE",
"78 350 CURVE",
"78 269 OFFCURVE",
"78 189 OFFCURVE",
"78 117 CURVE",
"78 26 OFFCURVE",
"78 0 OFFCURVE",
"78 0 CURVE SMOOTH"
);
}
);
width = 1013;
},
{
background = {
paths = (
{
closed = 1;
nodes = (
"159 0 OFFCURVE",
"168 0 OFFCURVE",
"208 0 CURVE SMOOTH",
"284 0 OFFCURVE",
"312 29 OFFCURVE",
"321 91 CURVE",
"277 162 OFFCURVE",
"204 284 OFFCURVE",
"190 315 CURVE",
"245 327 OFFCURVE",
"301 338 OFFCURVE",
"356 350 CURVE",
"342 234 OFFCURVE",
"337 177 OFFCURVE",
"323 91 CURVE",
"379 14 OFFCURVE",
"411 0 OFFCURVE",
"455 0 CURVE SMOOTH",
"467 0 OFFCURVE",
"480 0 OFFCURVE",
"497 0 CURVE SMOOTH",
"568 0 OFFCURVE",
"597 32 OFFCURVE",
"605 91 CURVE",
"570 146 OFFCURVE",
"508 247 OFFCURVE",
"474 309 CURVE",
"530 321 OFFCURVE",
"585 333 OFFCURVE",
"641 345 CURVE",
"625 219 OFFCURVE",
"622 188 OFFCURVE",
"607 91 CURVE",
"663 14 OFFCURVE",
"695 0 OFFCURVE",
"739 0 CURVE SMOOTH",
"751 0 OFFCURVE",
"763 0 OFFCURVE",
"775 0 CURVE SMOOTH",
"828 0 OFFCURVE",
"853 26 OFFCURVE",
"853 125 CURVE SMOOTH",
"853 201 OFFCURVE",
"853 277 OFFCURVE",
"853 353 CURVE SMOOTH",
"853 585 OFFCURVE",
"751 700 OFFCURVE",
"549 700 CURVE SMOOTH",
"502 700 OFFCURVE",
"485 700 OFFCURVE",
"449 700 CURVE SMOOTH",
"438 700 OFFCURVE",
"427 700 OFFCURVE",
"416 700 CURVE SMOOTH",
"406 700 OFFCURVE",
"396 700 OFFCURVE",
"387 700 CURVE SMOOTH",
"380 700 OFFCURVE",
"372 700 OFFCURVE",
"365 700 CURVE SMOOTH",
"351 700 OFFCURVE",
"337 700 OFFCURVE",
"324 700 CURVE SMOOTH",
"310 700 OFFCURVE",
"297 700 OFFCURVE",
"284 700 CURVE SMOOTH",
"264 700 OFFCURVE",
"245 700 OFFCURVE",
"228 700 CURVE SMOOTH",
"222 700 OFFCURVE",
"216 700 OFFCURVE",
"210 700 CURVE SMOOTH",
"199 700 OFFCURVE",
"189 700 OFFCURVE",
"180 700 CURVE SMOOTH",
"164 700 OFFCURVE",
"148 700 OFFCURVE",
"137 700 CURVE",
"136 700 LINE SMOOTH",
"38 700 OFFCURVE",
"10 675 OFFCURVE",
"10 592 CURVE SMOOTH",
"10 511 OFFCURVE",
"20 431 OFFCURVE",
"20 350 CURVE SMOOTH",
"20 269 OFFCURVE",
"10 189 OFFCURVE",
"10 117 CURVE SMOOTH",
"10 26 OFFCURVE",
"36 0 OFFCURVE",
"119 0 CURVE SMOOTH"
);
}
);
};
layerId = "35B903E1-0971-4EA2-AC4E-2C87C1F50A16";
paths = (
{
closed = 1;
nodes = (
"159 0 OFFCURVE",
"168 0 OFFCURVE",
"208 0 CURVE SMOOTH",
"284 0 OFFCURVE",
"312 29 OFFCURVE",
"321 91 CURVE",
"277 162 OFFCURVE",
"204 284 OFFCURVE",
"190 315 CURVE",
"245 327 OFFCURVE",
"301 338 OFFCURVE",
"356 350 CURVE",
"342 234 OFFCURVE",
"337 177 OFFCURVE",
"323 91 CURVE",
"379 14 OFFCURVE",
"411 0 OFFCURVE",
"455 0 CURVE SMOOTH",
"467 0 OFFCURVE",
"480 0 OFFCURVE",
"497 0 CURVE SMOOTH",
"568 0 OFFCURVE",
"597 32 OFFCURVE",
"605 91 CURVE",
"570 146 OFFCURVE",
"508 247 OFFCURVE",
"474 309 CURVE",
"530 321 OFFCURVE",
"585 333 OFFCURVE",
"641 345 CURVE",
"625 219 OFFCURVE",
"622 188 OFFCURVE",
"607 91 CURVE",
"663 14 OFFCURVE",
"695 0 OFFCURVE",
"739 0 CURVE SMOOTH",
"751 0 OFFCURVE",
"763 0 OFFCURVE",
"775 0 CURVE SMOOTH",
"828 0 OFFCURVE",
"853 26 OFFCURVE",
"853 125 CURVE SMOOTH",
"853 201 OFFCURVE",
"853 277 OFFCURVE",
"853 353 CURVE SMOOTH",
"853 585 OFFCURVE",
"751 700 OFFCURVE",
"549 700 CURVE SMOOTH",
"502 700 OFFCURVE",
"485 700 OFFCURVE",
"449 700 CURVE SMOOTH",
"438 700 OFFCURVE",
"427 700 OFFCURVE",
"416 700 CURVE SMOOTH",
"406 700 OFFCURVE",
"396 700 OFFCURVE",
"387 700 CURVE SMOOTH",
"380 700 OFFCURVE",
"372 700 OFFCURVE",
"365 700 CURVE SMOOTH",
"351 700 OFFCURVE",
"337 700 OFFCURVE",
"324 700 CURVE SMOOTH",
"310 700 OFFCURVE",
"297 700 OFFCURVE",
"284 700 CURVE SMOOTH",
"264 700 OFFCURVE",
"245 700 OFFCURVE",
"228 700 CURVE SMOOTH",
"222 700 OFFCURVE",
"216 700 OFFCURVE",
"210 700 CURVE SMOOTH",
"199 700 OFFCURVE",
"189 700 OFFCURVE",
"180 700 CURVE SMOOTH",
"164 700 OFFCURVE",
"148 700 OFFCURVE",
"137 700 CURVE",
"136 700 LINE SMOOTH",
"38 700 OFFCURVE",
"10 675 OFFCURVE",
"10 592 CURVE SMOOTH",
"10 511 OFFCURVE",
"20 431 OFFCURVE",
"20 350 CURVE SMOOTH",
"20 269 OFFCURVE",
"10 189 OFFCURVE",
"10 117 CURVE SMOOTH",
"10 26 OFFCURVE",
"36 0 OFFCURVE",
"119 0 CURVE SMOOTH"
);
}
);
width = 863;
}
);
unicode = "004D,006D";
},
{
glyphname = N;
lastChange = "2022-01-14 06:54:36 +0000";
layers = (
{
background = {
paths = (
{
closed = 1;
nodes = (
"275 0 OFFCURVE",
"262 0 OFFCURVE",
"275 0 CURVE",
"275 0 OFFCURVE",
"301 126 OFFCURVE",
"301 126 CURVE",
"301 126 OFFCURVE",
"352 376 OFFCURVE",
"371 469 CURVE SMOOTH",
"384 535 OFFCURVE",
"405 558 OFFCURVE",
"433 558 CURVE SMOOTH",
"468 558 OFFCURVE",
"482 526 OFFCURVE",
"482 446 CURVE SMOOTH",
"482 424 OFFCURVE",
"482 164 OFFCURVE",
"482 102 CURVE SMOOTH",
"482 19 OFFCURVE",
"482 0 OFFCURVE",
"482 0 CURVE SMOOTH",
"482 0 OFFCURVE",
"646 0 OFFCURVE",
"646 0 CURVE SMOOTH",
"646 0 OFFCURVE",
"646 26 OFFCURVE",
"646 125 CURVE SMOOTH",
"646 201 OFFCURVE",
"646 455 OFFCURVE",
"646 531 CURVE SMOOTH",
"646 652 OFFCURVE",
"604 712 OFFCURVE",
"516 712 CURVE SMOOTH",
"438 712 OFFCURVE",
"382 651 OFFCURVE",
"356 521 CURVE SMOOTH",
"346 472 OFFCURVE",
"255 20 OFFCURVE",
"255 20 CURVE",
"255 20 OFFCURVE",
"242 20 OFFCURVE",
"242 20 CURVE",
"242 20 OFFCURVE",
"242 700 OFFCURVE",
"242 700 CURVE SMOOTH",
"242 700 OFFCURVE",
"78 700 OFFCURVE",
"78 700 CURVE",
"78 700 OFFCURVE",
"78 692 OFFCURVE",
"78 592 CURVE SMOOTH",
"78 511 OFFCURVE",
"78 431 OFFCURVE",
"78 350 CURVE SMOOTH",
"78 270 OFFCURVE",
"78 189 OFFCURVE",
"78 117 CURVE SMOOTH",
"78 26 OFFCURVE",
"78 0 OFFCURVE",
"78 0 CURVE SMOOTH"
);
}
);
};
layerId = "116FA8D2-93BA-48BE-A336-ADFD733FF7C5";
paths = (
{
closed = 1;
nodes = (
"275 0 OFFCURVE",
"262 0 OFFCURVE",
"275 0 CURVE",
"275 0 OFFCURVE",
"301 126 OFFCURVE",
"301 126 CURVE",
"301 126 OFFCURVE",
"352 376 OFFCURVE",
"371 469 CURVE SMOOTH",
"384 535 OFFCURVE",
"405 558 OFFCURVE",
"433 558 CURVE SMOOTH",
"468 558 OFFCURVE",
"482 526 OFFCURVE",
"482 446 CURVE SMOOTH",
"482 424 OFFCURVE",
"482 164 OFFCURVE",
"482 102 CURVE SMOOTH",
"482 19 OFFCURVE",
"482 0 OFFCURVE",
"482 0 CURVE SMOOTH",
"482 0 OFFCURVE",
"646 0 OFFCURVE",
"646 0 CURVE SMOOTH",
"646 0 OFFCURVE",
"646 26 OFFCURVE",
"646 125 CURVE SMOOTH",
"646 201 OFFCURVE",
"646 455 OFFCURVE",
"646 531 CURVE SMOOTH",
"646 652 OFFCURVE",
"604 712 OFFCURVE",
"516 712 CURVE SMOOTH",
"438 712 OFFCURVE",
"382 651 OFFCURVE",
"356 521 CURVE SMOOTH",
"346 472 OFFCURVE",
"255 20 OFFCURVE",
"255 20 CURVE",
"255 20 OFFCURVE",
"242 20 OFFCURVE",
"242 20 CURVE",
"242 20 OFFCURVE",
"242 700 OFFCURVE",
"242 700 CURVE SMOOTH",
"242 700 OFFCURVE",
"78 700 OFFCURVE",
"78 700 CURVE",
"78 700 OFFCURVE",
"78 692 OFFCURVE",
"78 592 CURVE SMOOTH",
"78 511 OFFCURVE",
"78 431 OFFCURVE",
"78 350 CURVE SMOOTH",
"78 270 OFFCURVE",
"78 189 OFFCURVE",
"78 117 CURVE SMOOTH",
"78 26 OFFCURVE",
"78 0 OFFCURVE",
"78 0 CURVE SMOOTH"
);
}
);
width = 719;
},
{
background = {
paths = (
{
closed = 1;
nodes = (
"175 0 OFFCURVE",
"230 0 OFFCURVE",
"286 0 CURVE SMOOTH",
"364 0 OFFCURVE",
"382 40 OFFCURVE",
"392 96 CURVE",
"392 96 OFFCURVE",
"226 285 OFFCURVE",
"226 285 CURVE",
"282 307 OFFCURVE",
"337 328 OFFCURVE",
"393 350 CURVE",
"400 328 OFFCURVE",
"405 297 OFFCURVE",
"406 258 CURVE SMOOTH",
"407 213 OFFCURVE",
"403 158 OFFCURVE",
"392 96 CURVE",
"451 12 OFFCURVE",
"482 0 OFFCURVE",
"525 0 CURVE SMOOTH",
"537 0 OFFCURVE",
"549 0 OFFCURVE",
"561 0 CURVE SMOOTH",
"644 0 OFFCURVE",
"669 26 OFFCURVE",
"669 125 CURVE SMOOTH",
"669 201 OFFCURVE",
"669 277 OFFCURVE",
"669 353 CURVE SMOOTH",
"669 585 OFFCURVE",
"557 700 OFFCURVE",
"285 700 CURVE SMOOTH",
"267 700 OFFCURVE",
"204 700 OFFCURVE",
"204 700 CURVE SMOOTH",
"204 700 OFFCURVE",
"204 700 OFFCURVE",
"204 700 CURVE SMOOTH",
"204 700 OFFCURVE",
"204 700 OFFCURVE",
"204 700 CURVE SMOOTH",
"204 700 OFFCURVE",
"204 700 OFFCURVE",
"204 700 CURVE SMOOTH",
"204 700 OFFCURVE",
"147 700 OFFCURVE",
"137 700 CURVE",
"38 700 OFFCURVE",
"10 675 OFFCURVE",
"10 592 CURVE SMOOTH",
"10 511 OFFCURVE",
"20 431 OFFCURVE",
"20 350 CURVE SMOOTH",
"20 269 OFFCURVE",
"10 189 OFFCURVE",
"10 117 CURVE SMOOTH",
"10 26 OFFCURVE",
"36 0 OFFCURVE",
"119 0 CURVE SMOOTH"
);
}
);
};
layerId = "35B903E1-0971-4EA2-AC4E-2C87C1F50A16";
paths = (
{
closed = 1;
nodes = (
"175 0 OFFCURVE",
"230 0 OFFCURVE",
"286 0 CURVE SMOOTH",
"364 0 OFFCURVE",
"382 40 OFFCURVE",
"392 96 CURVE",
"392 96 OFFCURVE",
"226 285 OFFCURVE",
"226 285 CURVE",
"282 307 OFFCURVE",
"337 328 OFFCURVE",
"393 350 CURVE",
"400 328 OFFCURVE",
"405 297 OFFCURVE",
"406 258 CURVE SMOOTH",
"407 213 OFFCURVE",
"403 158 OFFCURVE",
"392 96 CURVE",
"451 12 OFFCURVE",
"482 0 OFFCURVE",
"525 0 CURVE SMOOTH",
"537 0 OFFCURVE",
"549 0 OFFCURVE",
"561 0 CURVE SMOOTH",
"644 0 OFFCURVE",
"669 26 OFFCURVE",
"669 125 CURVE SMOOTH",
"669 201 OFFCURVE",
"669 277 OFFCURVE",
"669 353 CURVE SMOOTH",
"669 585 OFFCURVE",
"557 700 OFFCURVE",
"285 700 CURVE SMOOTH",
"267 700 OFFCURVE",
"204 700 OFFCURVE",
"204 700 CURVE SMOOTH",
"204 700 OFFCURVE",
"204 700 OFFCURVE",
"204 700 CURVE SMOOTH",
"204 700 OFFCURVE",
"204 700 OFFCURVE",
"204 700 CURVE SMOOTH",
"204 700 OFFCURVE",
"204 700 OFFCURVE",
"204 700 CURVE SMOOTH",
"204 700 OFFCURVE",
"147 700 OFFCURVE",
"137 700 CURVE",
"38 700 OFFCURVE",
"10 675 OFFCURVE",
"10 592 CURVE SMOOTH",
"10 511 OFFCURVE",
"20 431 OFFCURVE",
"20 350 CURVE SMOOTH",
"20 269 OFFCURVE",
"10 189 OFFCURVE",
"10 117 CURVE SMOOTH",
"10 26 OFFCURVE",
"36 0 OFFCURVE",
"119 0 CURVE SMOOTH"
);
}
);
width = 679;
}
);
unicode = "004E,006E";
},
{
glyphname = O;
lastChange = "2022-01-14 06:54:36 +0000";
layers = (
{
background = {
paths = (
{
closed = 1;
nodes = (
"175 718 OFFCURVE",
"30 569 OFFCURVE",
"30 350 CURVE SMOOTH",
"30 131 OFFCURVE",
"175 -18 OFFCURVE",
"391 -18 CURVE SMOOTH",
"605 -18 OFFCURVE",
"752 131 OFFCURVE",
"752 350 CURVE SMOOTH",
"752 569 OFFCURVE",
"605 718 OFFCURVE",
"391 718 CURVE SMOOTH"
);
},
{
closed = 1;
nodes = (
"593 209 OFFCURVE",
"511 124 OFFCURVE",
"391 124 CURVE SMOOTH",
"271 124 OFFCURVE",
"189 209 OFFCURVE",
"189 350 CURVE SMOOTH",
"189 491 OFFCURVE",
"271 576 OFFCURVE",
"391 576 CURVE SMOOTH",
"511 576 OFFCURVE",
"593 491 OFFCURVE",
"593 350 CURVE SMOOTH"
);
}
);
};
layerId = "116FA8D2-93BA-48BE-A336-ADFD733FF7C5";
paths = (
{
closed = 1;
nodes = (
"175 718 OFFCURVE",
"30 569 OFFCURVE",
"30 350 CURVE SMOOTH",
"30 131 OFFCURVE",
"175 -18 OFFCURVE",
"391 -18 CURVE SMOOTH",
"605 -18 OFFCURVE",
"752 131 OFFCURVE",
"752 350 CURVE SMOOTH",
"752 569 OFFCURVE",
"605 718 OFFCURVE",
"391 718 CURVE SMOOTH"
);
},
{
closed = 1;
nodes = (
"593 209 OFFCURVE",
"511 124 OFFCURVE",
"391 124 CURVE SMOOTH",
"271 124 OFFCURVE",
"189 209 OFFCURVE",
"189 350 CURVE SMOOTH",
"189 491 OFFCURVE",
"271 576 OFFCURVE",
"391 576 CURVE SMOOTH",
"511 576 OFFCURVE",
"593 491 OFFCURVE",
"593 350 CURVE SMOOTH"
);
}
);
width = 782;
},
{
background = {
paths = (
{
closed = 1;
nodes = (
"156 714 OFFCURVE",
"5 625 OFFCURVE",
"5 350 CURVE SMOOTH",
"5 75 OFFCURVE",
"156 -14 OFFCURVE",
"352 -14 CURVE SMOOTH",
"548 -14 OFFCURVE",
"699 75 OFFCURVE",
"699 350 CURVE SMOOTH",
"699 625 OFFCURVE",
"548 714 OFFCURVE",
"352 714 CURVE SMOOTH"
);
},
{
closed = 1;
nodes = (
"436 169 OFFCURVE",
"441 82 OFFCURVE",
"445 -6 CURVE",
"347 23 OFFCURVE",
"264 126 OFFCURVE",
"253 236 CURVE",
"253 236 OFFCURVE",
"346 247 OFFCURVE",
"346 247 CURVE",
"346 247 OFFCURVE",
"432 257 OFFCURVE",
"432 257 CURVE"
);
}
);
};
layerId = "35B903E1-0971-4EA2-AC4E-2C87C1F50A16";
paths = (
{
closed = 1;
nodes = (
"156 714 OFFCURVE",
"5 625 OFFCURVE",
"5 350 CURVE SMOOTH",
"5 75 OFFCURVE",
"156 -14 OFFCURVE",
"352 -14 CURVE SMOOTH",
"548 -14 OFFCURVE",
"699 75 OFFCURVE",
"699 350 CURVE SMOOTH",
"699 625 OFFCURVE",
"548 714 OFFCURVE",
"352 714 CURVE SMOOTH"
);
},
{
closed = 1;
nodes = (
"436 169 OFFCURVE",
"441 82 OFFCURVE",
"445 -6 CURVE",
"347 23 OFFCURVE",
"264 126 OFFCURVE",
"253 236 CURVE",
"253 236 OFFCURVE",
"346 247 OFFCURVE",
"346 247 CURVE",
"346 247 OFFCURVE",
"432 257 OFFCURVE",
"432 257 CURVE"
);
}
);
width = 704;
}
);
unicode = "004F,006F";
},
{
glyphname = P;
lastChange = "2022-01-14 06:54:36 +0000";
layers = (
{
background = {
paths = (
{
closed = 1;
nodes = (
"98 0 OFFCURVE",
"242 0 OFFCURVE",
"242 0 CURVE",
"242 0 OFFCURVE",
"242 155 OFFCURVE",
"242 258 CURVE",
"242 271 OFFCURVE",
"242 505 OFFCURVE",
"242 560 CURVE",
"261 560 OFFCURVE",
"279 560 OFFCURVE",
"298 560 CURVE SMOOTH",
"400 560 OFFCURVE",
"456 518 OFFCURVE",
"456 441 CURVE SMOOTH",
"456 355 OFFCURVE",
"399 301 OFFCURVE",
"272 301 CURVE SMOOTH",
"230 301 OFFCURVE",
"189 301 OFFCURVE",
"147 301 CURVE",
"147 292 OFFCURVE",
"147 288 OFFCURVE",
"147 281 CURVE",
"165 281 OFFCURVE",
"340 281 OFFCURVE",
"356 281 CURVE SMOOTH",
"532 281 OFFCURVE",
"612 354 OFFCURVE",
"612 481 CURVE SMOOTH",
"612 622 OFFCURVE",
"513 700 OFFCURVE",
"334 700 CURVE SMOOTH",
"323 700 OFFCURVE",
"113 700 OFFCURVE",
"78 700 CURVE",
"78 665 OFFCURVE",
"78 641 OFFCURVE",
"78 592 CURVE SMOOTH",
"78 491 OFFCURVE",
"78 431 OFFCURVE",
"78 350 CURVE SMOOTH",
"78 335 OFFCURVE",
"78 318 OFFCURVE",
"78 302 CURVE SMOOTH",
"78 277 OFFCURVE",
"78 207 OFFCURVE",
"78 159 CURVE SMOOTH",
"78 144 OFFCURVE",
"78 125 OFFCURVE",
"78 108 CURVE SMOOTH",
"78 97 OFFCURVE",
"78 35 OFFCURVE",
"78 0 CURVE"
);
}
);
};
layerId = "116FA8D2-93BA-48BE-A336-ADFD733FF7C5";
paths = (
{
closed = 1;
nodes = (
"98 0 OFFCURVE",
"242 0 OFFCURVE",
"242 0 CURVE",
"242 0 OFFCURVE",
"242 155 OFFCURVE",
"242 258 CURVE",
"242 271 OFFCURVE",
"242 505 OFFCURVE",
"242 560 CURVE",
"261 560 OFFCURVE",
"279 560 OFFCURVE",
"298 560 CURVE SMOOTH",
"400 560 OFFCURVE",
"456 518 OFFCURVE",
"456 441 CURVE SMOOTH",
"456 355 OFFCURVE",
"399 301 OFFCURVE",
"272 301 CURVE SMOOTH",
"230 301 OFFCURVE",
"189 301 OFFCURVE",
"147 301 CURVE",
"147 292 OFFCURVE",
"147 288 OFFCURVE",
"147 281 CURVE",
"165 281 OFFCURVE",
"340 281 OFFCURVE",
"356 281 CURVE SMOOTH",
"532 281 OFFCURVE",
"612 354 OFFCURVE",
"612 481 CURVE SMOOTH",
"612 622 OFFCURVE",
"513 700 OFFCURVE",
"334 700 CURVE SMOOTH",
"323 700 OFFCURVE",
"113 700 OFFCURVE",
"78 700 CURVE",
"78 665 OFFCURVE",
"78 641 OFFCURVE",
"78 592 CURVE SMOOTH",
"78 491 OFFCURVE",
"78 431 OFFCURVE",
"78 350 CURVE SMOOTH",
"78 335 OFFCURVE",
"78 318 OFFCURVE",
"78 302 CURVE SMOOTH",
"78 277 OFFCURVE",
"78 207 OFFCURVE",
"78 159 CURVE SMOOTH",
"78 144 OFFCURVE",
"78 125 OFFCURVE",
"78 108 CURVE SMOOTH",
"78 97 OFFCURVE",
"78 35 OFFCURVE",
"78 0 CURVE"
);
}
);
width = 622;
},
{
background = {
paths = (
{
closed = 1;
nodes = (
"172 0 OFFCURVE",
"208 0 OFFCURVE",
"244 0 CURVE",
"328 0 OFFCURVE",
"357 155 OFFCURVE",
"368 258 CURVE",
"283 268 OFFCURVE",
"238 349 OFFCURVE",
"209 418 CURVE",
"209 418 OFFCURVE",
"386 514 OFFCURVE",
"386 514 CURVE",
"385 501 OFFCURVE",
"384 489 OFFCURVE",
"383 476 CURVE",
"382 458 OFFCURVE",
"380 441 OFFCURVE",
"379 423 CURVE",
"377 398 OFFCURVE",
"376 374 OFFCURVE",
"374 349 CURVE",
"372 319 OFFCURVE",
"370 288 OFFCURVE",
"368 258 CURVE",
"387 255 OFFCURVE",
"465 253 OFFCURVE",
"471 253 CURVE SMOOTH",
"609 253 OFFCURVE",
"641 360 OFFCURVE",
"637 532 CURVE SMOOTH",
"635 662 OFFCURVE",
"561 700 OFFCURVE",
"397 700 CURVE SMOOTH",
"378 700 OFFCURVE",
"128 700 OFFCURVE",
"115 700 CURVE SMOOTH",
"45 700 OFFCURVE",
"7 655 OFFCURVE",
"10 592 CURVE SMOOTH",
"15 491 OFFCURVE",
"29 431 OFFCURVE",
"32 350 CURVE SMOOTH",
"33 334 OFFCURVE",
"33 318 OFFCURVE",
"33 302 CURVE SMOOTH",
"33 254 OFFCURVE",
"31 207 OFFCURVE",
"31 159 CURVE SMOOTH",
"31 142 OFFCURVE",
"31 125 OFFCURVE",
"32 108 CURVE SMOOTH",
"35 59 OFFCURVE",
"44 0 OFFCURVE",
"136 0 CURVE SMOOTH"
);
}
);
};
layerId = "35B903E1-0971-4EA2-AC4E-2C87C1F50A16";
paths = (
{
closed = 1;
nodes = (
"172 0 OFFCURVE",
"208 0 OFFCURVE",
"244 0 CURVE",
"328 0 OFFCURVE",
"357 155 OFFCURVE",
"368 258 CURVE",
"283 268 OFFCURVE",
"238 349 OFFCURVE",
"209 418 CURVE",
"209 418 OFFCURVE",
"386 514 OFFCURVE",
"386 514 CURVE",
"385 501 OFFCURVE",
"384 489 OFFCURVE",
"383 476 CURVE",
"382 458 OFFCURVE",
"380 441 OFFCURVE",
"379 423 CURVE",
"377 398 OFFCURVE",
"376 374 OFFCURVE",
"374 349 CURVE",
"372 319 OFFCURVE",
"370 288 OFFCURVE",
"368 258 CURVE",
"387 255 OFFCURVE",
"465 253 OFFCURVE",
"471 253 CURVE SMOOTH",
"609 253 OFFCURVE",
"641 360 OFFCURVE",
"637 532 CURVE SMOOTH",
"635 662 OFFCURVE",
"561 700 OFFCURVE",
"397 700 CURVE SMOOTH",
"378 700 OFFCURVE",
"128 700 OFFCURVE",
"115 700 CURVE SMOOTH",
"45 700 OFFCURVE",
"7 655 OFFCURVE",
"10 592 CURVE SMOOTH",
"15 491 OFFCURVE",
"29 431 OFFCURVE",
"32 350 CURVE SMOOTH",
"33 334 OFFCURVE",
"33 318 OFFCURVE",
"33 302 CURVE SMOOTH",
"33 254 OFFCURVE",
"31 207 OFFCURVE",
"31 159 CURVE SMOOTH",
"31 142 OFFCURVE",
"31 125 OFFCURVE",
"32 108 CURVE SMOOTH",
"35 59 OFFCURVE",
"44 0 OFFCURVE",
"136 0 CURVE SMOOTH"
);
}
);
width = 637;
}
);
unicode = "0050,0070";
},
{
glyphname = Q;
lastChange = "2022-01-14 06:54:36 +0000";
layers = (
{
background = {
paths = (
{
closed = 1;
nodes = (
"605 -12 OFFCURVE",
"752 131 OFFCURVE",
"752 350 CURVE SMOOTH",
"752 569 OFFCURVE",
"605 718 OFFCURVE",
"391 718 CURVE SMOOTH",
"175 718 OFFCURVE",
"30 569 OFFCURVE",
"30 350 CURVE SMOOTH",
"30 131 OFFCURVE",
"175 -12 OFFCURVE",
"391 -12 CURVE SMOOTH"
);
},
{
closed = 1;
nodes = (
"189 491 OFFCURVE",
"271 576 OFFCURVE",
"391 576 CURVE SMOOTH",
"511 576 OFFCURVE",
"593 491 OFFCURVE",
"593 350 CURVE SMOOTH",
"593 209 OFFCURVE",
"511 124 OFFCURVE",
"391 124 CURVE SMOOTH",
"372 124 OFFCURVE",
"355 126 OFFCURVE",
"338 130 CURVE",
"366 200 OFFCURVE",
"395 270 OFFCURVE",
"423 340 CURVE",
"416 343 OFFCURVE",
"409 345 OFFCURVE",
"402 348 CURVE",
"373 278 OFFCURVE",
"344 207 OFFCURVE",
"315 137 CURVE",
"238 166 OFFCURVE",
"189 241 OFFCURVE",
"189 350 CURVE SMOOTH"
);
},
{
closed = 1;
nodes = (
"244 -58 OFFCURVE",
"186 -200 OFFCURVE",
"186 -200 CURVE",
"239 -200 OFFCURVE",
"399 -200 OFFCURVE",
"490 -200 CURVE SMOOTH",
"539 -200 OFFCURVE",
"640 -200 OFFCURVE",
"670 -200 CURVE",
"670 -200 OFFCURVE",
"670 -107 OFFCURVE",
"670 -60 CURVE",
"614 -60 OFFCURVE",
"370 -60 OFFCURVE",
"273 -60 CURVE",
"273 -60 OFFCURVE",
"305 20 OFFCURVE",
"305 20 CURVE",
"305 20 OFFCURVE",
"284 35 OFFCURVE",
"284 35 CURVE",
"284 35 OFFCURVE",
"244 -58 OFFCURVE",
"244 -58 CURVE SMOOTH"
);
}
);
};
layerId = "116FA8D2-93BA-48BE-A336-ADFD733FF7C5";
paths = (
{
closed = 1;
nodes = (
"605 -12 OFFCURVE",
"752 131 OFFCURVE",
"752 350 CURVE SMOOTH",
"752 569 OFFCURVE",
"605 718 OFFCURVE",
"391 718 CURVE SMOOTH",
"175 718 OFFCURVE",
"30 569 OFFCURVE",
"30 350 CURVE SMOOTH",
"30 131 OFFCURVE",
"175 -12 OFFCURVE",
"391 -12 CURVE SMOOTH"
);
},
{
closed = 1;
nodes = (
"189 491 OFFCURVE",
"271 576 OFFCURVE",
"391 576 CURVE SMOOTH",
"511 576 OFFCURVE",
"593 491 OFFCURVE",
"593 350 CURVE SMOOTH",
"593 209 OFFCURVE",
"511 124 OFFCURVE",
"391 124 CURVE SMOOTH",
"372 124 OFFCURVE",
"355 126 OFFCURVE",
"338 130 CURVE",
"366 200 OFFCURVE",
"395 270 OFFCURVE",
"423 340 CURVE",
"416 343 OFFCURVE",
"409 345 OFFCURVE",
"402 348 CURVE",
"373 278 OFFCURVE",
"344 207 OFFCURVE",
"315 137 CURVE",
"238 166 OFFCURVE",
"189 241 OFFCURVE",
"189 350 CURVE SMOOTH"
);
},
{
closed = 1;
nodes = (
"244 -58 OFFCURVE",
"186 -200 OFFCURVE",
"186 -200 CURVE",
"239 -200 OFFCURVE",
"399 -200 OFFCURVE",
"490 -200 CURVE SMOOTH",
"539 -200 OFFCURVE",
"640 -200 OFFCURVE",
"670 -200 CURVE",
"670 -200 OFFCURVE",
"670 -107 OFFCURVE",
"670 -60 CURVE",
"614 -60 OFFCURVE",
"370 -60 OFFCURVE",
"273 -60 CURVE",
"273 -60 OFFCURVE",
"305 20 OFFCURVE",
"305 20 CURVE",
"305 20 OFFCURVE",
"284 35 OFFCURVE",
"284 35 CURVE",
"284 35 OFFCURVE",
"244 -58 OFFCURVE",
"244 -58 CURVE SMOOTH"
);
}
);
width = 782;
},
{
background = {
paths = (
{
closed = 1;
nodes = (
"546 2 OFFCURVE",
"699 75 OFFCURVE",
"699 350 CURVE SMOOTH",
"699 625 OFFCURVE",
"548 714 OFFCURVE",
"352 714 CURVE SMOOTH",
"156 714 OFFCURVE",
"5 625 OFFCURVE",
"5 350 CURVE SMOOTH",
"5 75 OFFCURVE",
"154 2 OFFCURVE",
"350 2 CURVE SMOOTH"
);
},
{
closed = 1;
nodes = (
"280 318 OFFCURVE",
"406 318 OFFCURVE",
"406 318 CURVE",
"406 318 OFFCURVE",
"462 318 OFFCURVE",
"462 318 CURVE",
"462 318 OFFCURVE",
"410 5 OFFCURVE",
"410 5 CURVE",
"410 5 OFFCURVE",
"410 5 OFFCURVE",
"410 5 CURVE",
"410 5 OFFCURVE",
"410 5 OFFCURVE",
"410 5 CURVE",
"410 5 OFFCURVE",
"410 5 OFFCURVE",
"410 5 CURVE",
"410 5 OFFCURVE",
"410 5 OFFCURVE",
"410 5 CURVE",
"380 23 OFFCURVE",
"227 93 OFFCURVE",
"280 318 CURVE"
);
},
{
closed = 1;
nodes = (
"410 5 OFFCURVE",
"394 -17 OFFCURVE",
"394 -74 CURVE SMOOTH",
"394 -138 OFFCURVE",
"429 -197 OFFCURVE",
"520 -197 CURVE SMOOTH",
"569 -197 OFFCURVE",
"653 -178 OFFCURVE",
"700 -156 CURVE",
"700 -100 OFFCURVE",
"700 -57 OFFCURVE",
"700 -10 CURVE",
"662 -13 OFFCURVE",
"619 -15 OFFCURVE",
"574 -15 CURVE SMOOTH",
"518 -15 OFFCURVE",
"460 -10 OFFCURVE",
"410 5 CURVE",
"410 5 OFFCURVE",
"410 5 OFFCURVE",
"410 5 CURVE",
"410 5 OFFCURVE",
"410 5 OFFCURVE",
"410 5 CURVE SMOOTH"
);
}
);
};
layerId = "35B903E1-0971-4EA2-AC4E-2C87C1F50A16";
paths = (
{
closed = 1;
nodes = (
"546 2 OFFCURVE",
"699 75 OFFCURVE",
"699 350 CURVE SMOOTH",
"699 625 OFFCURVE",
"548 714 OFFCURVE",
"352 714 CURVE SMOOTH",
"156 714 OFFCURVE",
"5 625 OFFCURVE",
"5 350 CURVE SMOOTH",
"5 75 OFFCURVE",
"154 2 OFFCURVE",
"350 2 CURVE SMOOTH"
);
},
{
closed = 1;
nodes = (
"280 318 OFFCURVE",
"406 318 OFFCURVE",
"406 318 CURVE",
"406 318 OFFCURVE",
"462 318 OFFCURVE",
"462 318 CURVE",
"462 318 OFFCURVE",
"410 5 OFFCURVE",
"410 5 CURVE",
"410 5 OFFCURVE",
"410 5 OFFCURVE",
"410 5 CURVE",
"410 5 OFFCURVE",
"410 5 OFFCURVE",
"410 5 CURVE",
"410 5 OFFCURVE",
"410 5 OFFCURVE",
"410 5 CURVE",
"410 5 OFFCURVE",
"410 5 OFFCURVE",
"410 5 CURVE",
"380 23 OFFCURVE",
"227 93 OFFCURVE",
"280 318 CURVE"
);
},
{
closed = 1;
nodes = (
"410 5 OFFCURVE",
"394 -17 OFFCURVE",
"394 -74 CURVE SMOOTH",
"394 -138 OFFCURVE",
"429 -197 OFFCURVE",
"520 -197 CURVE SMOOTH",
"569 -197 OFFCURVE",
"653 -178 OFFCURVE",
"700 -156 CURVE",
"700 -100 OFFCURVE",
"700 -57 OFFCURVE",
"700 -10 CURVE",
"662 -13 OFFCURVE",
"619 -15 OFFCURVE",
"574 -15 CURVE SMOOTH",
"518 -15 OFFCURVE",
"460 -10 OFFCURVE",
"410 5 CURVE",
"410 5 OFFCURVE",
"410 5 OFFCURVE",
"410 5 CURVE",
"410 5 OFFCURVE",
"410 5 OFFCURVE",
"410 5 CURVE SMOOTH"
);
}
);
width = 705;
}
);
unicode = "0051,0071";
},
{
glyphname = R;
lastChange = "2022-01-14 06:54:36 +0000";
layers = (
{
background = {
paths = (
{
closed = 1;
nodes = (
"612 623 OFFCURVE",
"536 700 OFFCURVE",
"399 700 CURVE SMOOTH",
"292 700 OFFCURVE",
"187 700 OFFCURVE",
"78 700 CURVE",
"78 687 OFFCURVE",
"78 675 OFFCURVE",
"78 592 CURVE SMOOTH",
"78 513 OFFCURVE",
"78 431 OFFCURVE",
"78 350 CURVE SMOOTH",
"78 269 OFFCURVE",
"78 189 OFFCURVE",
"78 108 CURVE SMOOTH",
"78 33 OFFCURVE",
"78 14 OFFCURVE",
"78 0 CURVE",
"133 0 OFFCURVE",
"187 0 OFFCURVE",
"242 0 CURVE",
"242 100 OFFCURVE",
"242 200 OFFCURVE",
"242 300 CURVE",
"270 300 OFFCURVE",
"297 300 OFFCURVE",
"325 300 CURVE",
"368 200 OFFCURVE",
"411 100 OFFCURVE",
"454 0 CURVE",
"517 0 OFFCURVE",
"579 0 OFFCURVE",
"642 0 CURVE",
"593 107 OFFCURVE",
"544 213 OFFCURVE",
"495 320 CURVE",
"411 320 OFFCURVE",
"326 320 OFFCURVE",
"242 320 CURVE",
"242 333 OFFCURVE",
"242 347 OFFCURVE",
"242 360 CURVE",
"296 360 OFFCURVE",
"349 360 OFFCURVE",
"403 360 CURVE SMOOTH",
"538 360 OFFCURVE",
"612 429 OFFCURVE",
"612 526 CURVE SMOOTH"
);
},
{
closed = 1;
nodes = (
"242 440 OFFCURVE",
"242 500 OFFCURVE",
"242 560 CURVE",
"279 560 OFFCURVE",
"315 560 OFFCURVE",
"352 560 CURVE SMOOTH",
"422 560 OFFCURVE",
"456 522 OFFCURVE",
"456 470 CURVE SMOOTH",
"456 421 OFFCURVE",
"428 380 OFFCURVE",
"354 380 CURVE SMOOTH",
"317 380 OFFCURVE",
"279 380 OFFCURVE",
"242 380 CURVE"
);
}
);
};
layerId = "116FA8D2-93BA-48BE-A336-ADFD733FF7C5";
paths = (
{
closed = 1;
nodes = (
"612 623 OFFCURVE",
"536 700 OFFCURVE",
"399 700 CURVE SMOOTH",
"292 700 OFFCURVE",
"187 700 OFFCURVE",
"78 700 CURVE",
"78 687 OFFCURVE",
"78 675 OFFCURVE",
"78 592 CURVE SMOOTH",
"78 513 OFFCURVE",
"78 431 OFFCURVE",
"78 350 CURVE SMOOTH",
"78 269 OFFCURVE",
"78 189 OFFCURVE",
"78 108 CURVE SMOOTH",
"78 33 OFFCURVE",
"78 14 OFFCURVE",
"78 0 CURVE",
"133 0 OFFCURVE",
"187 0 OFFCURVE",
"242 0 CURVE",
"242 100 OFFCURVE",
"242 200 OFFCURVE",
"242 300 CURVE",
"270 300 OFFCURVE",
"297 300 OFFCURVE",
"325 300 CURVE",
"368 200 OFFCURVE",
"411 100 OFFCURVE",
"454 0 CURVE",
"517 0 OFFCURVE",
"579 0 OFFCURVE",
"642 0 CURVE",
"593 107 OFFCURVE",
"544 213 OFFCURVE",
"495 320 CURVE",
"411 320 OFFCURVE",
"326 320 OFFCURVE",
"242 320 CURVE",
"242 333 OFFCURVE",
"242 347 OFFCURVE",
"242 360 CURVE",
"296 360 OFFCURVE",
"349 360 OFFCURVE",
"403 360 CURVE SMOOTH",
"538 360 OFFCURVE",
"612 429 OFFCURVE",
"612 526 CURVE SMOOTH"
);
},
{
closed = 1;
nodes = (
"242 440 OFFCURVE",
"242 500 OFFCURVE",
"242 560 CURVE",
"279 560 OFFCURVE",
"315 560 OFFCURVE",
"352 560 CURVE SMOOTH",
"422 560 OFFCURVE",
"456 522 OFFCURVE",
"456 470 CURVE SMOOTH",
"456 421 OFFCURVE",
"428 380 OFFCURVE",
"354 380 CURVE SMOOTH",
"317 380 OFFCURVE",
"279 380 OFFCURVE",
"242 380 CURVE"
);
}
);
width = 667;
},
{
background = {
paths = (
{
closed = 1;
nodes = (
"622 623 OFFCURVE",
"616 700 OFFCURVE",
"479 700 CURVE SMOOTH",
"372 700 OFFCURVE",
"240 700 OFFCURVE",
"133 700 CURVE SMOOTH",
"34 700 OFFCURVE",
"7 675 OFFCURVE",
"10 592 CURVE SMOOTH",
"12 511 OFFCURVE",
"23 431 OFFCURVE",
"25 350 CURVE SMOOTH",
"27 269 OFFCURVE",
"20 189 OFFCURVE",
"22 108 CURVE SMOOTH",
"25 25 OFFCURVE",
"52 0 OFFCURVE",
"151 0 CURVE SMOOTH",
"164 0 OFFCURVE",
"155 0 OFFCURVE",
"190 0 CURVE SMOOTH",
"277 0 OFFCURVE",
"320 95 OFFCURVE",
"372 298 CURVE",
"372 298 OFFCURVE",
"372 298 OFFCURVE",
"372 298 CURVE",
"381 70 OFFCURVE",
"404 0 OFFCURVE",
"471 0 CURVE",
"605 -14 OFFCURVE",
"629 2 OFFCURVE",
"629 107 CURVE SMOOTH",
"629 213 OFFCURVE",
"451 298 OFFCURVE",
"372 298 CURVE",
"372 298 OFFCURVE",
"372 298 OFFCURVE",
"372 298 CURVE",
"372 298 OFFCURVE",
"372 298 OFFCURVE",
"372 298 CURVE",
"372 298 OFFCURVE",
"372 298 OFFCURVE",
"372 298 CURVE SMOOTH",
"560 279 OFFCURVE",
"622 288 OFFCURVE",
"622 467 CURVE SMOOTH"
);
},
{
closed = 1;
nodes = (
"176 299 OFFCURVE",
"410 562 OFFCURVE",
"410 562 CURVE",
"410 562 OFFCURVE",
"410 562 OFFCURVE",
"410 562 CURVE SMOOTH",
"406 491 OFFCURVE",
"392 394 OFFCURVE",
"372 298 CURVE SMOOTH",
"372 298 OFFCURVE",
"372 298 OFFCURVE",
"372 298 CURVE SMOOTH",
"335 298 OFFCURVE",
"176 299 OFFCURVE",
"176 299 CURVE"
);
}
);
};
layerId = "35B903E1-0971-4EA2-AC4E-2C87C1F50A16";
paths = (
{
closed = 1;
nodes = (
"622 623 OFFCURVE",
"616 700 OFFCURVE",
"479 700 CURVE SMOOTH",
"372 700 OFFCURVE",
"240 700 OFFCURVE",
"133 700 CURVE SMOOTH",
"34 700 OFFCURVE",
"7 675 OFFCURVE",
"10 592 CURVE SMOOTH",
"12 511 OFFCURVE",
"23 431 OFFCURVE",
"25 350 CURVE SMOOTH",
"27 269 OFFCURVE",
"20 189 OFFCURVE",
"22 108 CURVE SMOOTH",
"25 25 OFFCURVE",
"52 0 OFFCURVE",
"151 0 CURVE SMOOTH",
"164 0 OFFCURVE",
"155 0 OFFCURVE",
"190 0 CURVE SMOOTH",
"277 0 OFFCURVE",
"320 95 OFFCURVE",
"372 298 CURVE",
"372 298 OFFCURVE",
"372 298 OFFCURVE",
"372 298 CURVE",
"381 70 OFFCURVE",
"404 0 OFFCURVE",
"471 0 CURVE",
"605 -14 OFFCURVE",
"629 2 OFFCURVE",
"629 107 CURVE SMOOTH",
"629 213 OFFCURVE",
"451 298 OFFCURVE",
"372 298 CURVE",
"372 298 OFFCURVE",
"372 298 OFFCURVE",
"372 298 CURVE",
"372 298 OFFCURVE",
"372 298 OFFCURVE",
"372 298 CURVE",
"372 298 OFFCURVE",
"372 298 OFFCURVE",
"372 298 CURVE SMOOTH",
"560 279 OFFCURVE",
"622 288 OFFCURVE",
"622 467 CURVE SMOOTH"
);
},
{
closed = 1;
nodes = (
"176 299 OFFCURVE",
"410 562 OFFCURVE",
"410 562 CURVE",
"410 562 OFFCURVE",
"410 562 OFFCURVE",
"410 562 CURVE SMOOTH",
"406 491 OFFCURVE",
"392 394 OFFCURVE",
"372 298 CURVE SMOOTH",
"372 298 OFFCURVE",
"372 298 OFFCURVE",
"372 298 CURVE SMOOTH",
"335 298 OFFCURVE",
"176 299 OFFCURVE",
"176 299 CURVE"
);
}
);
width = 639;
}
);
unicode = "0052,0072";
},
{
glyphname = S;
lastChange = "2022-01-14 06:54:36 +0000";
layers = (
{
background = {
paths = (
{
closed = 1;
nodes = (
"337 321 LINE SMOOTH",
"375 304 OFFCURVE",
"389 278 OFFCURVE",
"389 228 CURVE SMOOTH",
"389 167 OFFCURVE",
"349 134 OFFCURVE",
"260 134 CURVE SMOOTH",
"118 134 OFFCURVE",
"65 188 OFFCURVE",
"65 322 CURVE SMOOTH",
"65 343 LINE",
"43 343 LINE",
"43 220 LINE SMOOTH",
"43 44 OFFCURVE",
"132 -12 OFFCURVE",
"312 -12 CURVE SMOOTH",
"468 -12 OFFCURVE",
"549 38 OFFCURVE",
"549 160 CURVE SMOOTH",
"549 211 OFFCURVE",
"527 260 OFFCURVE",
"464 287 CURVE SMOOTH",
"257 377 LINE SMOOTH",
"212 396 OFFCURVE",
"195 420 OFFCURVE",
"195 461 CURVE SMOOTH",
"195 529 OFFCURVE",
"242 566 OFFCURVE",
"337 566 CURVE SMOOTH",
"432 566 OFFCURVE",
"502 521 OFFCURVE",
"502 418 CURVE SMOOTH",
"502 360 LINE",
"524 360 LINE",
"524 480 LINE SMOOTH",
"524 656 OFFCURVE",
"467 712 OFFCURVE",
"278 712 CURVE SMOOTH",
"122 712 OFFCURVE",
"35 639 OFFCURVE",
"35 551 CURVE SMOOTH",
"35 495 OFFCURVE",
"51 452 OFFCURVE",
"117 422 CURVE SMOOTH"
);
}
);
};
layerId = "116FA8D2-93BA-48BE-A336-ADFD733FF7C5";
paths = (
{
closed = 1;
nodes = (
"337 321 LINE SMOOTH",
"375 304 OFFCURVE",
"389 278 OFFCURVE",
"389 228 CURVE SMOOTH",
"389 167 OFFCURVE",
"349 134 OFFCURVE",
"260 134 CURVE SMOOTH",
"118 134 OFFCURVE",
"65 188 OFFCURVE",
"65 322 CURVE SMOOTH",
"65 343 LINE",
"43 343 LINE",
"43 220 LINE SMOOTH",
"43 44 OFFCURVE",
"132 -12 OFFCURVE",
"312 -12 CURVE SMOOTH",
"468 -12 OFFCURVE",
"549 38 OFFCURVE",
"549 160 CURVE SMOOTH",
"549 211 OFFCURVE",
"527 260 OFFCURVE",
"464 287 CURVE SMOOTH",
"257 377 LINE SMOOTH",
"212 396 OFFCURVE",
"195 420 OFFCURVE",
"195 461 CURVE SMOOTH",
"195 529 OFFCURVE",
"242 566 OFFCURVE",
"337 566 CURVE SMOOTH",
"432 566 OFFCURVE",
"502 521 OFFCURVE",
"502 418 CURVE SMOOTH",
"502 360 LINE",
"524 360 LINE",
"524 480 LINE SMOOTH",
"524 656 OFFCURVE",
"467 712 OFFCURVE",
"278 712 CURVE SMOOTH",
"122 712 OFFCURVE",
"35 639 OFFCURVE",
"35 551 CURVE SMOOTH",
"35 495 OFFCURVE",
"51 452 OFFCURVE",
"117 422 CURVE SMOOTH"
);
}
);
width = 584;
},
{
background = {
paths = (
{
closed = 1;
nodes = (
"366 315 LINE",
"366 315 OFFCURVE",
"411 242 OFFCURVE",
"411 242 CURVE",
"359 233 OFFCURVE",
"299 241 OFFCURVE",
"237 261 CURVE SMOOTH",
"175 281 OFFCURVE",
"115 314 OFFCURVE",
"53 356 CURVE SMOOTH",
"53 356 LINE",
"53 356 LINE",
"53 356 LINE",
"-80 118 OFFCURVE",
"128 -14 OFFCURVE",
"345 -14 CURVE SMOOTH",
"552 -14 OFFCURVE",
"645 105 OFFCURVE",
"645 228 CURVE SMOOTH",
"645 291 OFFCURVE",
"621 342 OFFCURVE",
"591 362 CURVE",
"259 392 LINE",
"259 392 OFFCURVE",
"273 496 OFFCURVE",
"273 496 CURVE",
"273 496 OFFCURVE",
"273 496 OFFCURVE",
"273 496 CURVE",
"423 463 OFFCURVE",
"508 425 OFFCURVE",
"591 362 CURVE",
"591 362 LINE",
"591 362 LINE",
"591 362 LINE",
"699 564 OFFCURVE",
"560 714 OFFCURVE",
"330 714 CURVE SMOOTH",
"140 714 OFFCURVE",
"10 613 OFFCURVE",
"10 467 CURVE SMOOTH",
"10 423 OFFCURVE",
"22 400 OFFCURVE",
"53 356 CURVE"
);
}
);
};
layerId = "35B903E1-0971-4EA2-AC4E-2C87C1F50A16";
paths = (
{
closed = 1;
nodes = (
"366 315 LINE",
"366 315 OFFCURVE",
"411 242 OFFCURVE",
"411 242 CURVE",
"359 233 OFFCURVE",
"299 241 OFFCURVE",
"237 261 CURVE SMOOTH",
"175 281 OFFCURVE",
"115 314 OFFCURVE",
"53 356 CURVE SMOOTH",
"53 356 LINE",
"53 356 LINE",
"53 356 LINE",
"-80 118 OFFCURVE",
"128 -14 OFFCURVE",
"345 -14 CURVE SMOOTH",
"552 -14 OFFCURVE",
"645 105 OFFCURVE",
"645 228 CURVE SMOOTH",
"645 291 OFFCURVE",
"621 342 OFFCURVE",
"591 362 CURVE",
"259 392 LINE",
"259 392 OFFCURVE",
"273 496 OFFCURVE",
"273 496 CURVE",
"273 496 OFFCURVE",
"273 496 OFFCURVE",
"273 496 CURVE",
"423 463 OFFCURVE",
"508 425 OFFCURVE",
"591 362 CURVE",
"591 362 LINE",
"591 362 LINE",
"591 362 LINE",
"699 564 OFFCURVE",
"560 714 OFFCURVE",
"330 714 CURVE SMOOTH",
"140 714 OFFCURVE",
"10 613 OFFCURVE",
"10 467 CURVE SMOOTH",
"10 423 OFFCURVE",
"22 400 OFFCURVE",
"53 356 CURVE"
);
}
);
width = 655;
}
);
unicode = "0053,0073";
},
{
glyphname = T;
lastChange = "2022-01-14 06:54:36 +0000";
layers = (
{
background = {
paths = (
{
closed = 1;
nodes = (
"354 0 LINE",
"354 0 OFFCURVE",
"354 44 OFFCURVE",
"354 120 CURVE",
"354 188 OFFCURVE",
"354 300 OFFCURVE",
"354 397 CURVE",
"354 386 OFFCURVE",
"354 388 OFFCURVE",
"354 397 CURVE",
"354 681 LINE",
"354 681 LINE",
"550 681 LINE",
"550 681 OFFCURVE",
"550 700 OFFCURVE",
"550 700 CURVE",
"-10 700 LINE",
"-10 700 OFFCURVE",
"-10 681 OFFCURVE",
"-10 681 CURVE",
"190 681 LINE",
"190 681 LINE",
"190 397 LINE",
"190 388 OFFCURVE",
"190 386 OFFCURVE",
"190 397 CURVE",
"190 300 OFFCURVE",
"190 188 OFFCURVE",
"190 120 CURVE",
"190 44 OFFCURVE",
"190 0 OFFCURVE",
"190 0 CURVE"
);
}
);
};
layerId = "116FA8D2-93BA-48BE-A336-ADFD733FF7C5";
paths = (
{
closed = 1;
nodes = (
"354 0 LINE",
"354 0 OFFCURVE",
"354 44 OFFCURVE",
"354 120 CURVE",
"354 188 OFFCURVE",
"354 300 OFFCURVE",
"354 397 CURVE",
"354 386 OFFCURVE",
"354 388 OFFCURVE",
"354 397 CURVE",
"354 681 LINE",
"354 681 LINE",
"550 681 LINE",
"550 681 OFFCURVE",
"550 700 OFFCURVE",
"550 700 CURVE",
"-10 700 LINE",
"-10 700 OFFCURVE",
"-10 681 OFFCURVE",
"-10 681 CURVE",
"190 681 LINE",
"190 681 LINE",
"190 397 LINE",
"190 388 OFFCURVE",
"190 386 OFFCURVE",
"190 397 CURVE",
"190 300 OFFCURVE",
"190 188 OFFCURVE",
"190 120 CURVE",
"190 44 OFFCURVE",
"190 0 OFFCURVE",
"190 0 CURVE"
);
}
);
width = 550;
},
{
background = {
paths = (
{
closed = 1;
nodes = (
"442 0 LINE",
"525 0 OFFCURVE",
"551 26 OFFCURVE",
"551 117 CURVE SMOOTH",
"551 189 OFFCURVE",
"541 276 OFFCURVE",
"541 357 CURVE",
"494 346 OFFCURVE",
"440 348 OFFCURVE",
"379 357 CURVE",
"541 572 LINE",
"541 357 LINE",
"558 361 LINE SMOOTH",
"719 399 OFFCURVE",
"752 700 OFFCURVE",
"513 700 CURVE",
"173 700 LINE",
"-66 700 OFFCURVE",
"-33 399 OFFCURVE",
"128 361 CURVE SMOOTH",
"145 357 LINE",
"145 572 LINE",
"307 357 LINE",
"246 348 OFFCURVE",
"192 346 OFFCURVE",
"145 357 CURVE",
"145 276 OFFCURVE",
"135 189 OFFCURVE",
"135 117 CURVE SMOOTH",
"135 26 OFFCURVE",
"161 0 OFFCURVE",
"244 0 CURVE"
);
}
);
};
layerId = "35B903E1-0971-4EA2-AC4E-2C87C1F50A16";
paths = (
{
closed = 1;
nodes = (
"442 0 LINE",
"525 0 OFFCURVE",
"551 26 OFFCURVE",
"551 117 CURVE SMOOTH",
"551 189 OFFCURVE",
"541 276 OFFCURVE",
"541 357 CURVE",
"494 346 OFFCURVE",
"440 348 OFFCURVE",
"379 357 CURVE",
"541 572 LINE",
"541 357 LINE",
"558 361 LINE SMOOTH",
"719 399 OFFCURVE",
"752 700 OFFCURVE",
"513 700 CURVE",
"173 700 LINE",
"-66 700 OFFCURVE",
"-33 399 OFFCURVE",
"128 361 CURVE SMOOTH",
"145 357 LINE",
"145 572 LINE",
"307 357 LINE",
"246 348 OFFCURVE",
"192 346 OFFCURVE",
"145 357 CURVE",
"145 276 OFFCURVE",
"135 189 OFFCURVE",
"135 117 CURVE SMOOTH",
"135 26 OFFCURVE",
"161 0 OFFCURVE",
"244 0 CURVE"
);
}
);
width = 686;
}
);
unicode = "0054,0074";
},
{
glyphname = U;
lastChange = "2022-01-14 06:54:36 +0000";
layers = (
{
background = {
paths = (
{
closed = 1;
nodes = (
"312 -12 OFFCURVE",
"369 49 OFFCURVE",
"390 189 CURVE",
"390 189 OFFCURVE",
"461 664 OFFCURVE",
"464 680 CURVE",
"466 680 OFFCURVE",
"474 680 OFFCURVE",
"477 680 CURVE",
"477 633 OFFCURVE",
"477 31 OFFCURVE",
"477 0 CURVE",
"481 0 OFFCURVE",
"637 0 OFFCURVE",
"641 0 CURVE",
"641 100 OFFCURVE",
"641 171 OFFCURVE",
"641 396 CURVE SMOOTH",
"641 532 OFFCURVE",
"641 515 OFFCURVE",
"641 574 CURVE SMOOTH",
"641 676 OFFCURVE",
"641 700 OFFCURVE",
"641 700 CURVE",
"641 700 OFFCURVE",
"444 700 OFFCURVE",
"444 700 CURVE",
"444 700 OFFCURVE",
"444 700 OFFCURVE",
"444 700 CURVE",
"444 700 OFFCURVE",
"399 404 OFFCURVE",
"374 251 CURVE SMOOTH",
"361 170 OFFCURVE",
"340 142 OFFCURVE",
"299 142 CURVE SMOOTH",
"257 142 OFFCURVE",
"237 175 OFFCURVE",
"237 244 CURVE SMOOTH",
"237 355 OFFCURVE",
"237 700 OFFCURVE",
"237 700 CURVE",
"237 700 OFFCURVE",
"237 700 OFFCURVE",
"237 700 CURVE SMOOTH",
"168 700 OFFCURVE",
"237 700 OFFCURVE",
"73 700 CURVE",
"73 700 OFFCURVE",
"73 673 OFFCURVE",
"73 574 CURVE SMOOTH",
"73 506 OFFCURVE",
"73 252 OFFCURVE",
"73 184 CURVE SMOOTH",
"73 53 OFFCURVE",
"119 -12 OFFCURVE",
"213 -12 CURVE SMOOTH"
);
}
);
};
layerId = "116FA8D2-93BA-48BE-A336-ADFD733FF7C5";
paths = (
{
closed = 1;
nodes = (
"312 -12 OFFCURVE",
"369 49 OFFCURVE",
"390 189 CURVE",
"390 189 OFFCURVE",
"461 664 OFFCURVE",
"464 680 CURVE",
"466 680 OFFCURVE",
"474 680 OFFCURVE",
"477 680 CURVE",
"477 633 OFFCURVE",
"477 31 OFFCURVE",
"477 0 CURVE",
"481 0 OFFCURVE",
"637 0 OFFCURVE",
"641 0 CURVE",
"641 100 OFFCURVE",
"641 171 OFFCURVE",
"641 396 CURVE SMOOTH",
"641 532 OFFCURVE",
"641 515 OFFCURVE",
"641 574 CURVE SMOOTH",
"641 676 OFFCURVE",
"641 700 OFFCURVE",
"641 700 CURVE",
"641 700 OFFCURVE",
"444 700 OFFCURVE",
"444 700 CURVE",
"444 700 OFFCURVE",
"444 700 OFFCURVE",
"444 700 CURVE",
"444 700 OFFCURVE",
"399 404 OFFCURVE",
"374 251 CURVE SMOOTH",
"361 170 OFFCURVE",
"340 142 OFFCURVE",
"299 142 CURVE SMOOTH",
"257 142 OFFCURVE",
"237 175 OFFCURVE",
"237 244 CURVE SMOOTH",
"237 355 OFFCURVE",
"237 700 OFFCURVE",
"237 700 CURVE",
"237 700 OFFCURVE",
"237 700 OFFCURVE",
"237 700 CURVE SMOOTH",
"168 700 OFFCURVE",
"237 700 OFFCURVE",
"73 700 CURVE",
"73 700 OFFCURVE",
"73 673 OFFCURVE",
"73 574 CURVE SMOOTH",
"73 506 OFFCURVE",
"73 252 OFFCURVE",
"73 184 CURVE SMOOTH",
"73 53 OFFCURVE",
"119 -12 OFFCURVE",
"213 -12 CURVE SMOOTH"
);
}
);
width = 719;
},
{
background = {
paths = (
{
closed = 1;
nodes = (
"291 0 OFFCURVE",
"389 0 OFFCURVE",
"389 0 CURVE SMOOTH",
"389 0 OFFCURVE",
"389 0 OFFCURVE",
"389 0 CURVE SMOOTH",
"389 0 OFFCURVE",
"389 0 OFFCURVE",
"389 0 CURVE SMOOTH",
"389 0 OFFCURVE",
"389 0 OFFCURVE",
"389 0 CURVE SMOOTH",
"389 0 OFFCURVE",
"395 0 OFFCURVE",
"399 0 CURVE SMOOTH",
"612 0 OFFCURVE",
"671 171 OFFCURVE",
"671 396 CURVE SMOOTH",
"671 455 OFFCURVE",
"671 515 OFFCURVE",
"671 574 CURVE SMOOTH",
"671 673 OFFCURVE",
"646 700 OFFCURVE",
"563 700 CURVE SMOOTH",
"544 700 OFFCURVE",
"524 700 OFFCURVE",
"505 700 CURVE SMOOTH",
"461 700 OFFCURVE",
"427 683 OFFCURVE",
"371 606 CURVE",
"381 510 OFFCURVE",
"392 387 OFFCURVE",
"402 291 CURVE",
"379 291 OFFCURVE",
"355 292 OFFCURVE",
"332 293 CURVE SMOOTH",
"306 294 OFFCURVE",
"280 294 OFFCURVE",
"254 295 CURVE",
"260 410 OFFCURVE",
"307 517 OFFCURVE",
"371 606 CURVE",
"362 670 OFFCURVE",
"328 700 OFFCURVE",
"258 700 CURVE SMOOTH",
"212 700 OFFCURVE",
"165 700 OFFCURVE",
"119 700 CURVE",
"36 700 OFFCURVE",
"10 673 OFFCURVE",
"10 574 CURVE SMOOTH",
"10 506 OFFCURVE",
"10 437 OFFCURVE",
"10 369 CURVE SMOOTH",
"10 51 OFFCURVE",
"152 0 OFFCURVE",
"275 0 CURVE SMOOTH"
);
}
);
};
layerId = "35B903E1-0971-4EA2-AC4E-2C87C1F50A16";
paths = (
{
closed = 1;
nodes = (
"291 0 OFFCURVE",
"389 0 OFFCURVE",
"389 0 CURVE SMOOTH",
"389 0 OFFCURVE",
"389 0 OFFCURVE",
"389 0 CURVE SMOOTH",
"389 0 OFFCURVE",
"389 0 OFFCURVE",
"389 0 CURVE SMOOTH",
"389 0 OFFCURVE",
"389 0 OFFCURVE",
"389 0 CURVE SMOOTH",
"389 0 OFFCURVE",
"395 0 OFFCURVE",
"399 0 CURVE SMOOTH",
"612 0 OFFCURVE",
"671 171 OFFCURVE",
"671 396 CURVE SMOOTH",
"671 455 OFFCURVE",
"671 515 OFFCURVE",
"671 574 CURVE SMOOTH",
"671 673 OFFCURVE",
"646 700 OFFCURVE",
"563 700 CURVE SMOOTH",
"544 700 OFFCURVE",
"524 700 OFFCURVE",
"505 700 CURVE SMOOTH",
"461 700 OFFCURVE",
"427 683 OFFCURVE",
"371 606 CURVE",
"381 510 OFFCURVE",
"392 387 OFFCURVE",
"402 291 CURVE",
"379 291 OFFCURVE",
"355 292 OFFCURVE",
"332 293 CURVE SMOOTH",
"306 294 OFFCURVE",
"280 294 OFFCURVE",
"254 295 CURVE",
"260 410 OFFCURVE",
"307 517 OFFCURVE",
"371 606 CURVE",
"362 670 OFFCURVE",
"328 700 OFFCURVE",
"258 700 CURVE SMOOTH",
"212 700 OFFCURVE",
"165 700 OFFCURVE",
"119 700 CURVE",
"36 700 OFFCURVE",
"10 673 OFFCURVE",
"10 574 CURVE SMOOTH",
"10 506 OFFCURVE",
"10 437 OFFCURVE",
"10 369 CURVE SMOOTH",
"10 51 OFFCURVE",
"152 0 OFFCURVE",
"275 0 CURVE SMOOTH"
);
}
);
width = 681;
}
);
unicode = "0055,0075";
},
{
glyphname = V;
lastChange = "2022-01-14 06:54:36 +0000";
layers = (
{
background = {
paths = (
{
closed = 1;
nodes = (
"133 0 OFFCURVE",
"478 1 OFFCURVE",
"478 1 CURVE SMOOTH",
"478 1 OFFCURVE",
"601 701 OFFCURVE",
"601 701 CURVE",
"601 701 OFFCURVE",
"601 701 OFFCURVE",
"601 701 CURVE",
"601 701 OFFCURVE",
"436 700 OFFCURVE",
"436 700 CURVE",
"436 700 OFFCURVE",
"436 700 OFFCURVE",
"436 700 CURVE",
"436 700 OFFCURVE",
"323 20 OFFCURVE",
"323 20 CURVE",
"323 20 OFFCURVE",
"290 20 OFFCURVE",
"290 20 CURVE",
"290 20 OFFCURVE",
"177 700 OFFCURVE",
"177 700 CURVE",
"177 700 OFFCURVE",
"177 700 OFFCURVE",
"177 700 CURVE",
"177 700 OFFCURVE",
"10 700 OFFCURVE",
"10 700 CURVE SMOOTH",
"10 700 OFFCURVE",
"10 700 OFFCURVE",
"10 700 CURVE SMOOTH",
"10 700 OFFCURVE",
"133 0 OFFCURVE",
"133 0 CURVE SMOOTH"
);
}
);
};
layerId = "116FA8D2-93BA-48BE-A336-ADFD733FF7C5";
paths = (
{
closed = 1;
nodes = (
"133 0 OFFCURVE",
"478 1 OFFCURVE",
"478 1 CURVE SMOOTH",
"478 1 OFFCURVE",
"601 701 OFFCURVE",
"601 701 CURVE",
"601 701 OFFCURVE",
"601 701 OFFCURVE",
"601 701 CURVE",
"601 701 OFFCURVE",
"436 700 OFFCURVE",
"436 700 CURVE",
"436 700 OFFCURVE",
"436 700 OFFCURVE",
"436 700 CURVE",
"436 700 OFFCURVE",
"323 20 OFFCURVE",
"323 20 CURVE",
"323 20 OFFCURVE",
"290 20 OFFCURVE",
"290 20 CURVE",
"290 20 OFFCURVE",
"177 700 OFFCURVE",
"177 700 CURVE",
"177 700 OFFCURVE",
"177 700 OFFCURVE",
"177 700 CURVE",
"177 700 OFFCURVE",
"10 700 OFFCURVE",
"10 700 CURVE SMOOTH",
"10 700 OFFCURVE",
"10 700 OFFCURVE",
"10 700 CURVE SMOOTH",
"10 700 OFFCURVE",
"133 0 OFFCURVE",
"133 0 CURVE SMOOTH"
);
}
);
width = 611;
},
{
background = {
paths = (
{
closed = 1;
nodes = (
"360 0 OFFCURVE",
"360 0 OFFCURVE",
"360 0 CURVE SMOOTH",
"606 0 OFFCURVE",
"721 491 OFFCURVE",
"721 574 CURVE SMOOTH",
"721 673 OFFCURVE",
"696 700 OFFCURVE",
"613 700 CURVE SMOOTH",
"579 700 OFFCURVE",
"544 700 OFFCURVE",
"510 700 CURVE SMOOTH",
"466 700 OFFCURVE",
"434 685 OFFCURVE",
"377 608 CURVE",
"397 533 OFFCURVE",
"415 457 OFFCURVE",
"434 382 CURVE",
"378 356 OFFCURVE",
"323 331 OFFCURVE",
"267 305 CURVE",
"263 402 OFFCURVE",
"320 526 OFFCURVE",
"377 608 CURVE",
"367 672 OFFCURVE",
"333 700 OFFCURVE",
"263 700 CURVE SMOOTH",
"212 700 OFFCURVE",
"160 700 OFFCURVE",
"109 700 CURVE SMOOTH",
"26 700 OFFCURVE",
"0 673 OFFCURVE",
"0 574 CURVE SMOOTH",
"0 371 OFFCURVE",
"189 0 OFFCURVE",
"360 0 CURVE SMOOTH"
);
}
);
};
layerId = "35B903E1-0971-4EA2-AC4E-2C87C1F50A16";
paths = (
{
closed = 1;
nodes = (
"360 0 OFFCURVE",
"360 0 OFFCURVE",
"360 0 CURVE SMOOTH",
"606 0 OFFCURVE",
"721 491 OFFCURVE",
"721 574 CURVE SMOOTH",
"721 673 OFFCURVE",
"696 700 OFFCURVE",
"613 700 CURVE SMOOTH",
"579 700 OFFCURVE",
"544 700 OFFCURVE",
"510 700 CURVE SMOOTH",
"466 700 OFFCURVE",
"434 685 OFFCURVE",
"377 608 CURVE",
"397 533 OFFCURVE",
"415 457 OFFCURVE",
"434 382 CURVE",
"378 356 OFFCURVE",
"323 331 OFFCURVE",
"267 305 CURVE",
"263 402 OFFCURVE",
"320 526 OFFCURVE",
"377 608 CURVE",
"367 672 OFFCURVE",
"333 700 OFFCURVE",
"263 700 CURVE SMOOTH",
"212 700 OFFCURVE",
"160 700 OFFCURVE",
"109 700 CURVE SMOOTH",
"26 700 OFFCURVE",
"0 673 OFFCURVE",
"0 574 CURVE SMOOTH",
"0 371 OFFCURVE",
"189 0 OFFCURVE",
"360 0 CURVE SMOOTH"
);
}
);
width = 721;
}
);
unicode = "0056,0076";
},
{
glyphname = W;
lastChange = "2022-01-14 06:54:36 +0000";
layers = (
{
background = {
paths = (
{
closed = 1;
nodes = (
"110 0 OFFCURVE",
"299 0 OFFCURVE",
"299 0 CURVE",
"299 0 OFFCURVE",
"397 680 OFFCURVE",
"397 680 CURVE",
"397 680 OFFCURVE",
"410 680 OFFCURVE",
"410 680 CURVE",
"410 680 OFFCURVE",
"508 0 OFFCURVE",
"508 0 CURVE",
"508 0 OFFCURVE",
"696 0 OFFCURVE",
"696 0 CURVE",
"696 0 OFFCURVE",
"797 700 OFFCURVE",
"797 700 CURVE",
"797 700 OFFCURVE",
"797 700 OFFCURVE",
"797 700 CURVE",
"797 700 OFFCURVE",
"632 700 OFFCURVE",
"632 700 CURVE",
"632 700 OFFCURVE",
"632 700 OFFCURVE",
"632 700 CURVE",
"632 700 OFFCURVE",
"542 20 OFFCURVE",
"542 20 CURVE",
"542 20 OFFCURVE",
"529 20 OFFCURVE",
"529 20 CURVE",
"529 20 OFFCURVE",
"429 700 OFFCURVE",
"429 700 CURVE",
"429 700 OFFCURVE",
"429 700 OFFCURVE",
"429 700 CURVE",
"429 700 OFFCURVE",
"378 700 OFFCURVE",
"378 700 CURVE",
"378 700 OFFCURVE",
"278 20 OFFCURVE",
"278 20 CURVE",
"278 20 OFFCURVE",
"265 20 OFFCURVE",
"265 20 CURVE",
"265 20 OFFCURVE",
"175 700 OFFCURVE",
"175 700 CURVE",
"175 700 OFFCURVE",
"175 700 OFFCURVE",
"175 700 CURVE",
"175 700 OFFCURVE",
"10 700 OFFCURVE",
"10 700 CURVE",
"10 700 OFFCURVE",
"10 700 OFFCURVE",
"10 700 CURVE",
"10 700 OFFCURVE",
"110 0 OFFCURVE",
"110 0 CURVE"
);
}
);
};
layerId = "116FA8D2-93BA-48BE-A336-ADFD733FF7C5";
paths = (
{
closed = 1;
nodes = (
"110 0 OFFCURVE",
"299 0 OFFCURVE",
"299 0 CURVE",
"299 0 OFFCURVE",
"397 680 OFFCURVE",
"397 680 CURVE",
"397 680 OFFCURVE",
"410 680 OFFCURVE",
"410 680 CURVE",
"410 680 OFFCURVE",
"508 0 OFFCURVE",
"508 0 CURVE",
"508 0 OFFCURVE",
"696 0 OFFCURVE",
"696 0 CURVE",
"696 0 OFFCURVE",
"797 700 OFFCURVE",
"797 700 CURVE",
"797 700 OFFCURVE",
"797 700 OFFCURVE",
"797 700 CURVE",
"797 700 OFFCURVE",
"632 700 OFFCURVE",
"632 700 CURVE",
"632 700 OFFCURVE",
"632 700 OFFCURVE",
"632 700 CURVE",
"632 700 OFFCURVE",
"542 20 OFFCURVE",
"542 20 CURVE",
"542 20 OFFCURVE",
"529 20 OFFCURVE",
"529 20 CURVE",
"529 20 OFFCURVE",
"429 700 OFFCURVE",
"429 700 CURVE",
"429 700 OFFCURVE",
"429 700 OFFCURVE",
"429 700 CURVE",
"429 700 OFFCURVE",
"378 700 OFFCURVE",
"378 700 CURVE",
"378 700 OFFCURVE",
"278 20 OFFCURVE",
"278 20 CURVE",
"278 20 OFFCURVE",
"265 20 OFFCURVE",
"265 20 CURVE",
"265 20 OFFCURVE",
"175 700 OFFCURVE",
"175 700 CURVE",
"175 700 OFFCURVE",
"175 700 OFFCURVE",
"175 700 CURVE",
"175 700 OFFCURVE",
"10 700 OFFCURVE",
"10 700 CURVE",
"10 700 OFFCURVE",
"10 700 OFFCURVE",
"10 700 CURVE",
"10 700 OFFCURVE",
"110 0 OFFCURVE",
"110 0 CURVE"
);
}
);
width = 807;
},
{
background = {
paths = (
{
closed = 1;
nodes = (
"403 0 OFFCURVE",
"472 0 OFFCURVE",
"472 0 CURVE SMOOTH",
"472 0 OFFCURVE",
"472 0 OFFCURVE",
"472 0 CURVE SMOOTH",
"472 0 OFFCURVE",
"472 0 OFFCURVE",
"472 0 CURVE SMOOTH",
"472 0 OFFCURVE",
"472 0 OFFCURVE",
"472 0 CURVE SMOOTH",
"472 0 OFFCURVE",
"590 0 OFFCURVE",
"590 0 CURVE SMOOTH",
"888 0 OFFCURVE",
"923 491 OFFCURVE",
"922 574 CURVE SMOOTH",
"921 673 OFFCURVE",
"896 700 OFFCURVE",
"813 700 CURVE SMOOTH",
"792 700 OFFCURVE",
"771 700 OFFCURVE",
"750 700 CURVE SMOOTH",
"706 700 OFFCURVE",
"674 686 OFFCURVE",
"618 609 CURVE",
"633 511 OFFCURVE",
"668 372 OFFCURVE",
"683 274 CURVE",
"645 275 OFFCURVE",
"587 275 OFFCURVE",
"549 276 CURVE",
"517 334 OFFCURVE",
"525 469 OFFCURVE",
"618 609 CURVE",
"607 673 OFFCURVE",
"573 700 OFFCURVE",
"487 700 CURVE SMOOTH",
"426 700 OFFCURVE",
"394 685 OFFCURVE",
"338 608 CURVE",
"353 510 OFFCURVE",
"388 372 OFFCURVE",
"403 274 CURVE",
"365 275 OFFCURVE",
"307 275 OFFCURVE",
"269 276 CURVE",
"250 345 OFFCURVE",
"245 468 OFFCURVE",
"338 608 CURVE",
"327 672 OFFCURVE",
"293 700 OFFCURVE",
"223 700 CURVE SMOOTH",
"185 700 OFFCURVE",
"147 700 OFFCURVE",
"109 700 CURVE SMOOTH",
"26 700 OFFCURVE",
"-8 673 OFFCURVE",
"1 574 CURVE SMOOTH",
"26 296 OFFCURVE",
"88 0 OFFCURVE",
"403 0 CURVE SMOOTH"
);
}
);
};
layerId = "35B903E1-0971-4EA2-AC4E-2C87C1F50A16";
paths = (
{
closed = 1;
nodes = (
"403 0 OFFCURVE",
"472 0 OFFCURVE",
"472 0 CURVE SMOOTH",
"472 0 OFFCURVE",
"472 0 OFFCURVE",
"472 0 CURVE SMOOTH",
"472 0 OFFCURVE",
"472 0 OFFCURVE",
"472 0 CURVE SMOOTH",
"472 0 OFFCURVE",
"472 0 OFFCURVE",
"472 0 CURVE SMOOTH",
"472 0 OFFCURVE",
"590 0 OFFCURVE",
"590 0 CURVE SMOOTH",
"888 0 OFFCURVE",
"923 491 OFFCURVE",
"922 574 CURVE SMOOTH",
"921 673 OFFCURVE",
"896 700 OFFCURVE",
"813 700 CURVE SMOOTH",
"792 700 OFFCURVE",
"771 700 OFFCURVE",
"750 700 CURVE SMOOTH",
"706 700 OFFCURVE",
"674 686 OFFCURVE",
"618 609 CURVE",
"633 511 OFFCURVE",
"668 372 OFFCURVE",
"683 274 CURVE",
"645 275 OFFCURVE",
"587 275 OFFCURVE",
"549 276 CURVE",
"517 334 OFFCURVE",
"525 469 OFFCURVE",
"618 609 CURVE",
"607 673 OFFCURVE",
"573 700 OFFCURVE",
"487 700 CURVE SMOOTH",
"426 700 OFFCURVE",
"394 685 OFFCURVE",
"338 608 CURVE",
"353 510 OFFCURVE",
"388 372 OFFCURVE",
"403 274 CURVE",
"365 275 OFFCURVE",
"307 275 OFFCURVE",
"269 276 CURVE",
"250 345 OFFCURVE",
"245 468 OFFCURVE",
"338 608 CURVE",
"327 672 OFFCURVE",
"293 700 OFFCURVE",
"223 700 CURVE SMOOTH",
"185 700 OFFCURVE",
"147 700 OFFCURVE",
"109 700 CURVE SMOOTH",
"26 700 OFFCURVE",
"-8 673 OFFCURVE",
"1 574 CURVE SMOOTH",
"26 296 OFFCURVE",
"88 0 OFFCURVE",
"403 0 CURVE SMOOTH"
);
}
);
width = 922;
}
);
leftMetricsKey = V;
rightMetricsKey = V;
unicode = "0057,0077";
},
{
glyphname = X;
lastChange = "2022-01-14 06:54:36 +0000";
layers = (
{
background = {
paths = (
{
closed = 1;
nodes = (
"319 345 LINE",
"319 345 OFFCURVE",
"433 0 OFFCURVE",
"433 0 CURVE",
"607 0 LINE",
"607 0 OFFCURVE",
"568 107 OFFCURVE",
"568 107 CURVE",
"568 107 OFFCURVE",
"476 355 OFFCURVE",
"476 355 CURVE",
"476 355 OFFCURVE",
"560 589 OFFCURVE",
"560 589 CURVE",
"560 589 OFFCURVE",
"600 700 OFFCURVE",
"600 700 CURVE",
"439 700 LINE",
"439 700 OFFCURVE",
"320 365 OFFCURVE",
"320 365 CURVE SMOOTH",
"287 365 LINE",
"287 365 OFFCURVE",
"168 700 OFFCURVE",
"168 700 CURVE",
"7 700 LINE",
"7 700 OFFCURVE",
"47 589 OFFCURVE",
"47 589 CURVE",
"47 589 OFFCURVE",
"131 355 OFFCURVE",
"131 355 CURVE",
"131 355 OFFCURVE",
"39 107 OFFCURVE",
"39 107 CURVE",
"39 107 OFFCURVE",
"0 0 OFFCURVE",
"0 0 CURVE",
"174 0 LINE",
"174 0 OFFCURVE",
"288 345 OFFCURVE",
"288 345 CURVE"
);
}
);
};
layerId = "116FA8D2-93BA-48BE-A336-ADFD733FF7C5";
paths = (
{
closed = 1;
nodes = (
"319 345 LINE",
"319 345 OFFCURVE",
"433 0 OFFCURVE",
"433 0 CURVE",
"607 0 LINE",
"607 0 OFFCURVE",
"568 107 OFFCURVE",
"568 107 CURVE",
"568 107 OFFCURVE",
"476 355 OFFCURVE",
"476 355 CURVE",
"476 355 OFFCURVE",
"560 589 OFFCURVE",
"560 589 CURVE",
"560 589 OFFCURVE",
"600 700 OFFCURVE",
"600 700 CURVE",
"439 700 LINE",
"439 700 OFFCURVE",
"320 365 OFFCURVE",
"320 365 CURVE SMOOTH",
"287 365 LINE",
"287 365 OFFCURVE",
"168 700 OFFCURVE",
"168 700 CURVE",
"7 700 LINE",
"7 700 OFFCURVE",
"47 589 OFFCURVE",
"47 589 CURVE",
"47 589 OFFCURVE",
"131 355 OFFCURVE",
"131 355 CURVE",
"131 355 OFFCURVE",
"39 107 OFFCURVE",
"39 107 CURVE",
"39 107 OFFCURVE",
"0 0 OFFCURVE",
"0 0 CURVE",
"174 0 LINE",
"174 0 OFFCURVE",
"288 345 OFFCURVE",
"288 345 CURVE"
);
}
);
width = 607;
},
{
background = {
paths = (
{
closed = 1;
nodes = (
"350 267 LINE",
"380 106 OFFCURVE",
"478 0 OFFCURVE",
"511 0 CURVE SMOOTH",
"559 0 LINE SMOOTH",
"658 0 OFFCURVE",
"686 25 OFFCURVE",
"686 108 CURVE SMOOTH",
"686 189 OFFCURVE",
"646 269 OFFCURVE",
"646 350 CURVE SMOOTH",
"646 431 OFFCURVE",
"686 511 OFFCURVE",
"686 592 CURVE SMOOTH",
"686 675 OFFCURVE",
"658 700 OFFCURVE",
"559 700 CURVE SMOOTH",
"511 700 LINE SMOOTH",
"478 700 OFFCURVE",
"377 592 OFFCURVE",
"349 436 CURVE",
"349 436 LINE",
"315 591 OFFCURVE",
"219 700 OFFCURVE",
"184 700 CURVE SMOOTH",
"136 700 LINE SMOOTH",
"37 700 OFFCURVE",
"10 675 OFFCURVE",
"10 592 CURVE SMOOTH",
"10 511 OFFCURVE",
"49 431 OFFCURVE",
"49 350 CURVE SMOOTH",
"49 269 OFFCURVE",
"10 189 OFFCURVE",
"10 108 CURVE SMOOTH",
"10 25 OFFCURVE",
"37 0 OFFCURVE",
"136 0 CURVE SMOOTH",
"184 0 LINE SMOOTH",
"220 0 OFFCURVE",
"314 112 OFFCURVE",
"350 267 CURVE"
);
}
);
};
layerId = "35B903E1-0971-4EA2-AC4E-2C87C1F50A16";
paths = (
{
closed = 1;
nodes = (
"350 267 LINE",
"380 106 OFFCURVE",
"478 0 OFFCURVE",
"511 0 CURVE SMOOTH",
"559 0 LINE SMOOTH",
"658 0 OFFCURVE",
"686 25 OFFCURVE",
"686 108 CURVE SMOOTH",
"686 189 OFFCURVE",
"646 269 OFFCURVE",
"646 350 CURVE SMOOTH",
"646 431 OFFCURVE",
"686 511 OFFCURVE",
"686 592 CURVE SMOOTH",
"686 675 OFFCURVE",
"658 700 OFFCURVE",
"559 700 CURVE SMOOTH",
"511 700 LINE SMOOTH",
"478 700 OFFCURVE",
"377 592 OFFCURVE",
"349 436 CURVE",
"349 436 LINE",
"315 591 OFFCURVE",
"219 700 OFFCURVE",
"184 700 CURVE SMOOTH",
"136 700 LINE SMOOTH",
"37 700 OFFCURVE",
"10 675 OFFCURVE",
"10 592 CURVE SMOOTH",
"10 511 OFFCURVE",
"49 431 OFFCURVE",
"49 350 CURVE SMOOTH",
"49 269 OFFCURVE",
"10 189 OFFCURVE",
"10 108 CURVE SMOOTH",
"10 25 OFFCURVE",
"37 0 OFFCURVE",
"136 0 CURVE SMOOTH",
"184 0 LINE SMOOTH",
"220 0 OFFCURVE",
"314 112 OFFCURVE",
"350 267 CURVE"
);
}
);
width = 696;
}
);
unicode = "0058,0078";
},
{
glyphname = Y;
lastChange = "2022-01-14 06:54:36 +0000";
layers = (
{
background = {
paths = (
{
closed = 1;
nodes = (
"291 118 OFFCURVE",
"345 196 OFFCURVE",
"367 374 CURVE SMOOTH",
"374 432 OFFCURVE",
"405 679 OFFCURVE",
"405 679 CURVE",
"405 679 OFFCURVE",
"418 679 OFFCURVE",
"418 679 CURVE",
"418 661 OFFCURVE",
"411 20 OFFCURVE",
"411 20 CURVE",
"283 20 OFFCURVE",
"42 20 OFFCURVE",
"42 20 CURVE",
"42 20 OFFCURVE",
"42 0 OFFCURVE",
"42 0 CURVE",
"42 0 OFFCURVE",
"178 0 OFFCURVE",
"324 0 CURVE",
"355 0 OFFCURVE",
"575 0 OFFCURVE",
"575 0 CURVE",
"575 0 OFFCURVE",
"575 51 OFFCURVE",
"575 350 CURVE SMOOTH",
"575 467 OFFCURVE",
"575 700 OFFCURVE",
"575 700 CURVE",
"575 700 OFFCURVE",
"388 700 OFFCURVE",
"388 700 CURVE",
"388 700 OFFCURVE",
"368 535 OFFCURVE",
"354 424 CURVE SMOOTH",
"338 298 OFFCURVE",
"311 272 OFFCURVE",
"273 272 CURVE SMOOTH",
"233 272 OFFCURVE",
"214 313 OFFCURVE",
"214 399 CURVE SMOOTH",
"214 439 OFFCURVE",
"214 700 OFFCURVE",
"214 700 CURVE",
"214 700 OFFCURVE",
"50 700 OFFCURVE",
"50 700 CURVE",
"50 700 OFFCURVE",
"50 450 OFFCURVE",
"50 342 CURVE SMOOTH",
"50 190 OFFCURVE",
"93 118 OFFCURVE",
"193 118 CURVE SMOOTH"
);
}
);
};
layerId = "116FA8D2-93BA-48BE-A336-ADFD733FF7C5";
paths = (
{
closed = 1;
nodes = (
"291 118 OFFCURVE",
"345 196 OFFCURVE",
"367 374 CURVE SMOOTH",
"374 432 OFFCURVE",
"405 679 OFFCURVE",
"405 679 CURVE",
"405 679 OFFCURVE",
"418 679 OFFCURVE",
"418 679 CURVE",
"418 661 OFFCURVE",
"411 20 OFFCURVE",
"411 20 CURVE",
"283 20 OFFCURVE",
"42 20 OFFCURVE",
"42 20 CURVE",
"42 20 OFFCURVE",
"42 0 OFFCURVE",
"42 0 CURVE",
"42 0 OFFCURVE",
"178 0 OFFCURVE",
"324 0 CURVE",
"355 0 OFFCURVE",
"575 0 OFFCURVE",
"575 0 CURVE",
"575 0 OFFCURVE",
"575 51 OFFCURVE",
"575 350 CURVE SMOOTH",
"575 467 OFFCURVE",
"575 700 OFFCURVE",
"575 700 CURVE",
"575 700 OFFCURVE",
"388 700 OFFCURVE",
"388 700 CURVE",
"388 700 OFFCURVE",
"368 535 OFFCURVE",
"354 424 CURVE SMOOTH",
"338 298 OFFCURVE",
"311 272 OFFCURVE",
"273 272 CURVE SMOOTH",
"233 272 OFFCURVE",
"214 313 OFFCURVE",
"214 399 CURVE SMOOTH",
"214 439 OFFCURVE",
"214 700 OFFCURVE",
"214 700 CURVE",
"214 700 OFFCURVE",
"50 700 OFFCURVE",
"50 700 CURVE",
"50 700 OFFCURVE",
"50 450 OFFCURVE",
"50 342 CURVE SMOOTH",
"50 190 OFFCURVE",
"93 118 OFFCURVE",
"193 118 CURVE SMOOTH"
);
}
);
width = 653;
},
{
background = {
paths = (
{
closed = 1;
nodes = (
"269 292 OFFCURVE",
"341 297 OFFCURVE",
"412 303 CURVE",
"409 280 OFFCURVE",
"406 258 OFFCURVE",
"403 235 CURVE SMOOTH",
"398 205 OFFCURVE",
"394 174 OFFCURVE",
"390 144 CURVE",
"390 144 OFFCURVE",
"390 144 OFFCURVE",
"390 144 CURVE",
"319 191 OFFCURVE",
"247 239 OFFCURVE",
"176 286 CURVE",
"97 288 OFFCURVE",
"45 247 OFFCURVE",
"45 143 CURVE SMOOTH",
"45 30 OFFCURVE",
"106 0 OFFCURVE",
"230 0 CURVE SMOOTH",
"301 0 OFFCURVE",
"453 0 OFFCURVE",
"486 0 CURVE SMOOTH",
"621 0 OFFCURVE",
"658 52 OFFCURVE",
"660 350 CURVE SMOOTH",
"662 592 OFFCURVE",
"619 714 OFFCURVE",
"535 714 CURVE SMOOTH",
"499 714 OFFCURVE",
"434 691 OFFCURVE",
"376 644 CURVE",
"395 610 OFFCURVE",
"413 504 OFFCURVE",
"411 439 CURVE",
"401 439 OFFCURVE",
"362 439 OFFCURVE",
"327 439 CURVE SMOOTH",
"294 439 OFFCURVE",
"262 439 OFFCURVE",
"229 439 CURVE",
"237 475 OFFCURVE",
"303 589 OFFCURVE",
"376 644 CURVE",
"351 691 OFFCURVE",
"296 714 OFFCURVE",
"234 714 CURVE SMOOTH",
"94 714 OFFCURVE",
"10 623 OFFCURVE",
"10 498 CURVE SMOOTH",
"10 392 OFFCURVE",
"49 340 OFFCURVE",
"176 286 CURVE"
);
}
);
};
layerId = "35B903E1-0971-4EA2-AC4E-2C87C1F50A16";
paths = (
{
closed = 1;
nodes = (
"269 292 OFFCURVE",
"341 297 OFFCURVE",
"412 303 CURVE",
"409 280 OFFCURVE",
"406 258 OFFCURVE",
"403 235 CURVE SMOOTH",
"398 205 OFFCURVE",
"394 174 OFFCURVE",
"390 144 CURVE",
"390 144 OFFCURVE",
"390 144 OFFCURVE",
"390 144 CURVE",
"319 191 OFFCURVE",
"247 239 OFFCURVE",
"176 286 CURVE",
"97 288 OFFCURVE",
"45 247 OFFCURVE",
"45 143 CURVE SMOOTH",
"45 30 OFFCURVE",
"106 0 OFFCURVE",
"230 0 CURVE SMOOTH",
"301 0 OFFCURVE",
"453 0 OFFCURVE",
"486 0 CURVE SMOOTH",
"621 0 OFFCURVE",
"658 52 OFFCURVE",
"660 350 CURVE SMOOTH",
"662 592 OFFCURVE",
"619 714 OFFCURVE",
"535 714 CURVE SMOOTH",
"499 714 OFFCURVE",
"434 691 OFFCURVE",
"376 644 CURVE",
"395 610 OFFCURVE",
"413 504 OFFCURVE",
"411 439 CURVE",
"401 439 OFFCURVE",
"362 439 OFFCURVE",
"327 439 CURVE SMOOTH",
"294 439 OFFCURVE",
"262 439 OFFCURVE",
"229 439 CURVE",
"237 475 OFFCURVE",
"303 589 OFFCURVE",
"376 644 CURVE",
"351 691 OFFCURVE",
"296 714 OFFCURVE",
"234 714 CURVE SMOOTH",
"94 714 OFFCURVE",
"10 623 OFFCURVE",
"10 498 CURVE SMOOTH",
"10 392 OFFCURVE",
"49 340 OFFCURVE",
"176 286 CURVE"
);
}
);
width = 670;
}
);
unicode = "0059,0079";
},
{
glyphname = Z;
lastChange = "2022-01-14 06:54:36 +0000";
layers = (
{
background = {
paths = (
{
closed = 1;
nodes = (
"276 140 LINE",
"143 140 LINE",
"461 538 LINE",
"461 538 OFFCURVE",
"589 700 OFFCURVE",
"589 700 CURVE",
"589 700 LINE",
"589 700 OFFCURVE",
"562 700 OFFCURVE",
"523 700 CURVE SMOOTH",
"327 700 LINE",
"130 700 LINE SMOOTH",
"45 700 OFFCURVE",
"45 700 OFFCURVE",
"45 700 CURVE",
"45 561 LINE",
"45 561 OFFCURVE",
"45 561 OFFCURVE",
"109 561 CURVE",
"454 561 LINE",
"454 561 LINE",
"454 561 OFFCURVE",
"205 247 OFFCURVE",
"205 247 CURVE",
"205 247 OFFCURVE",
"10 0 OFFCURVE",
"10 0 CURVE",
"10 0 OFFCURVE",
"70 0 OFFCURVE",
"263 0 CURVE SMOOTH",
"289 0 OFFCURVE",
"573 0 OFFCURVE",
"573 0 CURVE",
"573 0 OFFCURVE",
"573 0 OFFCURVE",
"573 0 CURVE",
"573 140 LINE",
"573 140 OFFCURVE",
"573 140 OFFCURVE",
"573 140 CURVE"
);
}
);
};
layerId = "116FA8D2-93BA-48BE-A336-ADFD733FF7C5";
paths = (
{
closed = 1;
nodes = (
"276 140 LINE",
"143 140 LINE",
"461 538 LINE",
"461 538 OFFCURVE",
"589 700 OFFCURVE",
"589 700 CURVE",
"589 700 LINE",
"589 700 OFFCURVE",
"562 700 OFFCURVE",
"523 700 CURVE SMOOTH",
"327 700 LINE",
"130 700 LINE SMOOTH",
"45 700 OFFCURVE",
"45 700 OFFCURVE",
"45 700 CURVE",
"45 561 LINE",
"45 561 OFFCURVE",
"45 561 OFFCURVE",
"109 561 CURVE",
"454 561 LINE",
"454 561 LINE",
"454 561 OFFCURVE",
"205 247 OFFCURVE",
"205 247 CURVE",
"205 247 OFFCURVE",
"10 0 OFFCURVE",
"10 0 CURVE",
"10 0 OFFCURVE",
"70 0 OFFCURVE",
"263 0 CURVE SMOOTH",
"289 0 OFFCURVE",
"573 0 OFFCURVE",
"573 0 CURVE",
"573 0 OFFCURVE",
"573 0 OFFCURVE",
"573 0 CURVE",
"573 140 LINE",
"573 140 OFFCURVE",
"573 140 OFFCURVE",
"573 140 CURVE"
);
}
);
width = 597;
},
{
background = {
paths = (
{
closed = 1;
nodes = (
"282 207 LINE",
"235 303 LINE",
"557 302 LINE",
"628 340 OFFCURVE",
"655 380 OFFCURVE",
"655 465 CURVE SMOOTH",
"655 592 LINE SMOOTH",
"655 675 OFFCURVE",
"628 700 OFFCURVE",
"529 700 CURVE SMOOTH",
"333 700 LINE",
"136 700 LINE SMOOTH",
"37 700 OFFCURVE",
"10 675 OFFCURVE",
"10 592 CURVE SMOOTH",
"10 493 LINE SMOOTH",
"10 423 OFFCURVE",
"51 387 OFFCURVE",
"115 378 CURVE",
"445 502 LINE",
"434 378 LINE",
"152 375 OFFCURVE",
"117 379 OFFCURVE",
"115 378 CURVE",
"40 337 OFFCURVE",
"16 372 OFFCURVE",
"16 221 CURVE SMOOTH",
"16 146 OFFCURVE",
"76 0 OFFCURVE",
"269 0 CURVE SMOOTH",
"295 0 OFFCURVE",
"526 1 OFFCURVE",
"553 1 CURVE",
"617 10 OFFCURVE",
"658 46 OFFCURVE",
"658 116 CURVE SMOOTH",
"658 196 LINE SMOOTH",
"658 279 OFFCURVE",
"654 303 OFFCURVE",
"555 303 CURVE"
);
}
);
};
layerId = "35B903E1-0971-4EA2-AC4E-2C87C1F50A16";
paths = (
{
closed = 1;
nodes = (
"282 207 LINE",
"235 303 LINE",
"557 302 LINE",
"628 340 OFFCURVE",
"655 380 OFFCURVE",
"655 465 CURVE SMOOTH",
"655 592 LINE SMOOTH",
"655 675 OFFCURVE",
"628 700 OFFCURVE",
"529 700 CURVE SMOOTH",
"333 700 LINE",
"136 700 LINE SMOOTH",
"37 700 OFFCURVE",
"10 675 OFFCURVE",
"10 592 CURVE SMOOTH",
"10 493 LINE SMOOTH",
"10 423 OFFCURVE",
"51 387 OFFCURVE",
"115 378 CURVE",
"445 502 LINE",
"434 378 LINE",
"152 375 OFFCURVE",
"117 379 OFFCURVE",
"115 378 CURVE",
"40 337 OFFCURVE",
"16 372 OFFCURVE",
"16 221 CURVE SMOOTH",
"16 146 OFFCURVE",
"76 0 OFFCURVE",
"269 0 CURVE SMOOTH",
"295 0 OFFCURVE",
"526 1 OFFCURVE",
"553 1 CURVE",
"617 10 OFFCURVE",
"658 46 OFFCURVE",
"658 116 CURVE SMOOTH",
"658 196 LINE SMOOTH",
"658 279 OFFCURVE",
"654 303 OFFCURVE",
"555 303 CURVE"
);
}
);
width = 668;
}
);
unicode = "005A,007A";
},
{
glyphname = zero;
lastChange = "2022-01-14 06:54:36 +0000";
layers = (
{
background = {
paths = (
{
closed = 1;
nodes = (
"175 718 OFFCURVE",
"30 569 OFFCURVE",
"30 350 CURVE SMOOTH",
"30 131 OFFCURVE",
"175 -18 OFFCURVE",
"391 -18 CURVE SMOOTH",
"605 -18 OFFCURVE",
"752 131 OFFCURVE",
"752 350 CURVE SMOOTH",
"752 569 OFFCURVE",
"605 718 OFFCURVE",
"391 718 CURVE SMOOTH"
);
},
{
closed = 1;
nodes = (
"593 209 OFFCURVE",
"511 124 OFFCURVE",
"391 124 CURVE SMOOTH",
"271 124 OFFCURVE",
"189 209 OFFCURVE",
"189 350 CURVE SMOOTH",
"189 491 OFFCURVE",
"271 576 OFFCURVE",
"391 576 CURVE SMOOTH",
"511 576 OFFCURVE",
"593 491 OFFCURVE",
"593 350 CURVE SMOOTH"
);
},
{
closed = 1;
nodes = (
"202 89 LINE",
"598 578 LINE",
"581 591 LINE",
"183 105 LINE"
);
}
);
};
layerId = "116FA8D2-93BA-48BE-A336-ADFD733FF7C5";
paths = (
{
closed = 1;
nodes = (
"175 718 OFFCURVE",
"30 569 OFFCURVE",
"30 350 CURVE SMOOTH",
"30 131 OFFCURVE",
"175 -18 OFFCURVE",
"391 -18 CURVE SMOOTH",
"605 -18 OFFCURVE",
"752 131 OFFCURVE",
"752 350 CURVE SMOOTH",
"752 569 OFFCURVE",
"605 718 OFFCURVE",
"391 718 CURVE SMOOTH"
);
},
{
closed = 1;
nodes = (
"593 209 OFFCURVE",
"511 124 OFFCURVE",
"391 124 CURVE SMOOTH",
"271 124 OFFCURVE",
"189 209 OFFCURVE",
"189 350 CURVE SMOOTH",
"189 491 OFFCURVE",
"271 576 OFFCURVE",
"391 576 CURVE SMOOTH",
"511 576 OFFCURVE",
"593 491 OFFCURVE",
"593 350 CURVE SMOOTH"
);
},
{
closed = 1;
nodes = (
"202 89 LINE",
"598 578 LINE",
"581 591 LINE",
"183 105 LINE"
);
}
);
width = 782;
},
{
background = {
paths = (
{
closed = 1;
nodes = (
"156 714 OFFCURVE",
"5 625 OFFCURVE",
"5 350 CURVE SMOOTH",
"5 75 OFFCURVE",
"156 -14 OFFCURVE",
"352 -14 CURVE SMOOTH",
"548 -14 OFFCURVE",
"699 75 OFFCURVE",
"699 350 CURVE SMOOTH",
"699 625 OFFCURVE",
"548 714 OFFCURVE",
"352 714 CURVE SMOOTH"
);
},
{
closed = 1;
nodes = (
"436 169 OFFCURVE",
"441 82 OFFCURVE",
"445 -6 CURVE",
"347 23 OFFCURVE",
"264 126 OFFCURVE",
"253 236 CURVE",
"253 236 OFFCURVE",
"346 247 OFFCURVE",
"346 247 CURVE",
"346 247 OFFCURVE",
"432 257 OFFCURVE",
"432 257 CURVE"
);
},
{
closed = 1;
nodes = (
"102 89 LINE",
"498 578 LINE",
"481 591 LINE",
"83 105 LINE"
);
}
);
};
layerId = "35B903E1-0971-4EA2-AC4E-2C87C1F50A16";
paths = (
{
closed = 1;
nodes = (
"156 714 OFFCURVE",
"5 625 OFFCURVE",
"5 350 CURVE SMOOTH",
"5 75 OFFCURVE",
"156 -14 OFFCURVE",
"352 -14 CURVE SMOOTH",
"548 -14 OFFCURVE",
"699 75 OFFCURVE",
"699 350 CURVE SMOOTH",
"699 625 OFFCURVE",
"548 714 OFFCURVE",
"352 714 CURVE SMOOTH"
);
},
{
closed = 1;
nodes = (
"436 169 OFFCURVE",
"441 82 OFFCURVE",
"445 -6 CURVE",
"347 23 OFFCURVE",
"264 126 OFFCURVE",
"253 236 CURVE",
"253 236 OFFCURVE",
"346 247 OFFCURVE",
"346 247 CURVE",
"346 247 OFFCURVE",
"432 257 OFFCURVE",
"432 257 CURVE"
);
},
{
closed = 1;
nodes = (
"102 89 LINE",
"498 578 LINE",
"481 591 LINE",
"83 105 LINE"
);
}
);
width = 692;
}
);
unicode = 0030;
},
{
glyphname = one;
lastChange = "2022-01-14 06:54:36 +0000";
layers = (
{
background = {
paths = (
{
closed = 1;
nodes = (
"290 107 OFFCURVE",
"290 0 OFFCURVE",
"290 0 CURVE",
"290 0 OFFCURVE",
"146 0 OFFCURVE",
"146 0 CURVE",
"146 0 OFFCURVE",
"146 340 OFFCURVE",
"146 340 CURVE",
"146 340 OFFCURVE",
"146 340 OFFCURVE",
"146 340 CURVE",
"146 340 OFFCURVE",
"146 642 OFFCURVE",
"146 642 CURVE",
"146 642 OFFCURVE",
"146 642 OFFCURVE",
"146 642 CURVE",
"146 642 OFFCURVE",
"5 596 OFFCURVE",
"5 596 CURVE",
"5 596 OFFCURVE",
"0 615 OFFCURVE",
"0 615 CURVE",
"0 615 OFFCURVE",
"290 718 OFFCURVE",
"290 718 CURVE",
"290 718 OFFCURVE",
"290 256 OFFCURVE",
"290 149 CURVE"
);
}
);
};
layerId = "116FA8D2-93BA-48BE-A336-ADFD733FF7C5";
paths = (
{
closed = 1;
nodes = (
"290 107 OFFCURVE",
"290 0 OFFCURVE",
"290 0 CURVE",
"290 0 OFFCURVE",
"146 0 OFFCURVE",
"146 0 CURVE",
"146 0 OFFCURVE",
"146 340 OFFCURVE",
"146 340 CURVE",
"146 340 OFFCURVE",
"146 340 OFFCURVE",
"146 340 CURVE",
"146 340 OFFCURVE",
"146 642 OFFCURVE",
"146 642 CURVE",
"146 642 OFFCURVE",
"146 642 OFFCURVE",
"146 642 CURVE",
"146 642 OFFCURVE",
"5 596 OFFCURVE",
"5 596 CURVE",
"5 596 OFFCURVE",
"0 615 OFFCURVE",
"0 615 CURVE",
"0 615 OFFCURVE",
"290 718 OFFCURVE",
"290 718 CURVE",
"290 718 OFFCURVE",
"290 256 OFFCURVE",
"290 149 CURVE"
);
}
);
width = 368;
},
{
background = {
paths = (
{
closed = 1;
nodes = (
"489 357 OFFCURVE",
"540 0 OFFCURVE",
"383 0 CURVE SMOOTH",
"328 0 OFFCURVE",
"272 0 OFFCURVE",
"217 0 CURVE SMOOTH",
"53 0 OFFCURVE",
"106 198 OFFCURVE",
"110 378 CURVE",
"181 364 OFFCURVE",
"287 380 OFFCURVE",
"359 491 CURVE",
"277 490 OFFCURVE",
"195 488 OFFCURVE",
"113 487 CURVE",
"112 451 OFFCURVE",
"111 414 OFFCURVE",
"110 378 CURVE",
"101 379 OFFCURVE",
"92 380 OFFCURVE",
"83 384 CURVE SMOOTH",
"-60 445 OFFCURVE",
"-19 700 OFFCURVE",
"211 700 CURVE SMOOTH",
"291 700 OFFCURVE",
"290 700 OFFCURVE",
"370 700 CURVE SMOOTH",
"517 700 OFFCURVE",
"489 506 OFFCURVE",
"489 399 CURVE SMOOTH"
);
}
);
};
layerId = "35B903E1-0971-4EA2-AC4E-2C87C1F50A16";
paths = (
{
closed = 1;
nodes = (
"489 357 OFFCURVE",
"540 0 OFFCURVE",
"383 0 CURVE SMOOTH",
"328 0 OFFCURVE",
"272 0 OFFCURVE",
"217 0 CURVE SMOOTH",
"53 0 OFFCURVE",
"106 198 OFFCURVE",
"110 378 CURVE",
"181 364 OFFCURVE",
"287 380 OFFCURVE",
"359 491 CURVE",
"277 490 OFFCURVE",
"195 488 OFFCURVE",
"113 487 CURVE",
"112 451 OFFCURVE",
"111 414 OFFCURVE",
"110 378 CURVE",
"101 379 OFFCURVE",
"92 380 OFFCURVE",
"83 384 CURVE SMOOTH",
"-60 445 OFFCURVE",
"-19 700 OFFCURVE",
"211 700 CURVE SMOOTH",
"291 700 OFFCURVE",
"290 700 OFFCURVE",
"370 700 CURVE SMOOTH",
"517 700 OFFCURVE",
"489 506 OFFCURVE",
"489 399 CURVE SMOOTH"
);
}
);
width = 507;
}
);
rightMetricsKey = H;
unicode = 0031;
},
{
glyphname = two;
lastChange = "2022-01-14 06:54:36 +0000";
layers = (
{
background = {
paths = (
{
closed = 1;
nodes = (
"443 712 OFFCURVE",
"527 641 OFFCURVE",
"527 530 CURVE SMOOTH",
"527 473 OFFCURVE",
"502 415 OFFCURVE",
"420 358 CURVE SMOOTH",
"315 286 OFFCURVE",
"209 212 OFFCURVE",
"104 140 CURVE",
"157 140 OFFCURVE",
"368 140 OFFCURVE",
"404 140 CURVE SMOOTH",
"510 140 OFFCURVE",
"530 159 OFFCURVE",
"530 232 CURVE SMOOTH",
"530 260 OFFCURVE",
"530 293 OFFCURVE",
"530 304 CURVE",
"536 304 OFFCURVE",
"544 304 OFFCURVE",
"552 304 CURVE",
"552 285 OFFCURVE",
"552 292 OFFCURVE",
"552 257 CURVE SMOOTH",
"552 230 OFFCURVE",
"552 204 OFFCURVE",
"552 177 CURVE SMOOTH",
"552 24 OFFCURVE",
"539 0 OFFCURVE",
"375 0 CURVE SMOOTH",
"348 0 OFFCURVE",
"69 0 OFFCURVE",
"43 0 CURVE",
"43 25 OFFCURVE",
"43 49 OFFCURVE",
"43 124 CURVE",
"123 178 OFFCURVE",
"203 231 OFFCURVE",
"283 285 CURVE SMOOTH",
"350 330 OFFCURVE",
"368 378 OFFCURVE",
"368 432 CURVE SMOOTH",
"368 514 OFFCURVE",
"326 566 OFFCURVE",
"216 566 CURVE SMOOTH",
"139 566 OFFCURVE",
"92 539 OFFCURVE",
"45 441 CURVE SMOOTH",
"37 425 OFFCURVE",
"30 409 OFFCURVE",
"22 393 CURVE",
"16 396 OFFCURVE",
"11 398 OFFCURVE",
"5 401 CURVE",
"24 446 OFFCURVE",
"43 492 OFFCURVE",
"62 537 CURVE SMOOTH",
"111 654 OFFCURVE",
"197 712 OFFCURVE",
"317 712 CURVE SMOOTH"
);
}
);
};
layerId = "116FA8D2-93BA-48BE-A336-ADFD733FF7C5";
paths = (
{
closed = 1;
nodes = (
"443 712 OFFCURVE",
"527 641 OFFCURVE",
"527 530 CURVE SMOOTH",
"527 473 OFFCURVE",
"502 415 OFFCURVE",
"420 358 CURVE SMOOTH",
"315 286 OFFCURVE",
"209 212 OFFCURVE",
"104 140 CURVE",
"157 140 OFFCURVE",
"368 140 OFFCURVE",
"404 140 CURVE SMOOTH",
"510 140 OFFCURVE",
"530 159 OFFCURVE",
"530 232 CURVE SMOOTH",
"530 260 OFFCURVE",
"530 293 OFFCURVE",
"530 304 CURVE",
"536 304 OFFCURVE",
"544 304 OFFCURVE",
"552 304 CURVE",
"552 285 OFFCURVE",
"552 292 OFFCURVE",
"552 257 CURVE SMOOTH",
"552 230 OFFCURVE",
"552 204 OFFCURVE",
"552 177 CURVE SMOOTH",
"552 24 OFFCURVE",
"539 0 OFFCURVE",
"375 0 CURVE SMOOTH",
"348 0 OFFCURVE",
"69 0 OFFCURVE",
"43 0 CURVE",
"43 25 OFFCURVE",
"43 49 OFFCURVE",
"43 124 CURVE",
"123 178 OFFCURVE",
"203 231 OFFCURVE",
"283 285 CURVE SMOOTH",
"350 330 OFFCURVE",
"368 378 OFFCURVE",
"368 432 CURVE SMOOTH",
"368 514 OFFCURVE",
"326 566 OFFCURVE",
"216 566 CURVE SMOOTH",
"139 566 OFFCURVE",
"92 539 OFFCURVE",
"45 441 CURVE SMOOTH",
"37 425 OFFCURVE",
"30 409 OFFCURVE",
"22 393 CURVE",
"16 396 OFFCURVE",
"11 398 OFFCURVE",
"5 401 CURVE",
"24 446 OFFCURVE",
"43 492 OFFCURVE",
"62 537 CURVE SMOOTH",
"111 654 OFFCURVE",
"197 712 OFFCURVE",
"317 712 CURVE SMOOTH"
);
}
);
width = 587;
},
{
background = {
paths = (
{
closed = 1;
nodes = (
"530 700 OFFCURVE",
"642 585 OFFCURVE",
"642 437 CURVE SMOOTH",
"642 380 OFFCURVE",
"615 340 OFFCURVE",
"544 302 CURVE",
"437 302 OFFCURVE",
"331 303 OFFCURVE",
"224 303 CURVE",
"240 271 OFFCURVE",
"255 239 OFFCURVE",
"271 207 CURVE",
"308 220 OFFCURVE",
"346 233 OFFCURVE",
"383 246 CURVE SMOOTH",
"423 260 OFFCURVE",
"463 275 OFFCURVE",
"503 289 CURVE SMOOTH",
"517 293 OFFCURVE",
"530 298 OFFCURVE",
"544 303 CURVE",
"643 303 OFFCURVE",
"647 279 OFFCURVE",
"647 196 CURVE SMOOTH",
"647 169 OFFCURVE",
"647 143 OFFCURVE",
"647 116 CURVE SMOOTH",
"647 46 OFFCURVE",
"606 1 OFFCURVE",
"542 1 CURVE",
"515 1 OFFCURVE",
"284 0 OFFCURVE",
"258 0 CURVE SMOOTH",
"65 0 OFFCURVE",
"5 146 OFFCURVE",
"5 221 CURVE SMOOTH",
"5 292 OFFCURVE",
"28 340 OFFCURVE",
"104 378 CURVE",
"106 379 OFFCURVE",
"141 375 OFFCURVE",
"423 378 CURVE",
"390 419 OFFCURVE",
"357 461 OFFCURVE",
"324 502 CURVE",
"287 481 OFFCURVE",
"250 460 OFFCURVE",
"213 439 CURVE SMOOTH",
"177 419 OFFCURVE",
"140 398 OFFCURVE",
"104 378 CURVE",
"49 378 OFFCURVE",
"2 436 OFFCURVE",
"19 510 CURVE SMOOTH",
"25 537 OFFCURVE",
"34 561 OFFCURVE",
"45 581 CURVE SMOOTH",
"90 665 OFFCURVE",
"176 700 OFFCURVE",
"312 700 CURVE SMOOTH"
);
}
);
};
layerId = "35B903E1-0971-4EA2-AC4E-2C87C1F50A16";
paths = (
{
closed = 1;
nodes = (
"530 700 OFFCURVE",
"642 585 OFFCURVE",
"642 437 CURVE SMOOTH",
"642 380 OFFCURVE",
"615 340 OFFCURVE",
"544 302 CURVE",
"437 302 OFFCURVE",
"331 303 OFFCURVE",
"224 303 CURVE",
"240 271 OFFCURVE",
"255 239 OFFCURVE",
"271 207 CURVE",
"308 220 OFFCURVE",
"346 233 OFFCURVE",
"383 246 CURVE SMOOTH",
"423 260 OFFCURVE",
"463 275 OFFCURVE",
"503 289 CURVE SMOOTH",
"517 293 OFFCURVE",
"530 298 OFFCURVE",
"544 303 CURVE",
"643 303 OFFCURVE",
"647 279 OFFCURVE",
"647 196 CURVE SMOOTH",
"647 169 OFFCURVE",
"647 143 OFFCURVE",
"647 116 CURVE SMOOTH",
"647 46 OFFCURVE",
"606 1 OFFCURVE",
"542 1 CURVE",
"515 1 OFFCURVE",
"284 0 OFFCURVE",
"258 0 CURVE SMOOTH",
"65 0 OFFCURVE",
"5 146 OFFCURVE",
"5 221 CURVE SMOOTH",
"5 292 OFFCURVE",
"28 340 OFFCURVE",
"104 378 CURVE",
"106 379 OFFCURVE",
"141 375 OFFCURVE",
"423 378 CURVE",
"390 419 OFFCURVE",
"357 461 OFFCURVE",
"324 502 CURVE",
"287 481 OFFCURVE",
"250 460 OFFCURVE",
"213 439 CURVE SMOOTH",
"177 419 OFFCURVE",
"140 398 OFFCURVE",
"104 378 CURVE",
"49 378 OFFCURVE",
"2 436 OFFCURVE",
"19 510 CURVE SMOOTH",
"25 537 OFFCURVE",
"34 561 OFFCURVE",
"45 581 CURVE SMOOTH",
"90 665 OFFCURVE",
"176 700 OFFCURVE",
"312 700 CURVE SMOOTH"
);
}
);
width = 652;
}
);
unicode = 0032;
},
{
glyphname = three;
lastChange = "2022-01-14 06:54:36 +0000";
layers = (
{
background = {
paths = (
{
closed = 1;
nodes = (
"252 700 OFFCURVE",
"49 700 OFFCURVE",
"49 700 CURVE",
"49 700 OFFCURVE",
"49 560 OFFCURVE",
"49 560 CURVE",
"49 560 OFFCURVE",
"470 560 OFFCURVE",
"470 560 CURVE",
"470 560 OFFCURVE",
"470 560 OFFCURVE",
"470 560 CURVE",
"470 560 OFFCURVE",
"213 412 OFFCURVE",
"213 412 CURVE",
"213 412 OFFCURVE",
"213 393 OFFCURVE",
"213 393 CURVE",
"213 393 OFFCURVE",
"228 393 OFFCURVE",
"249 393 CURVE SMOOTH",
"317 393 OFFCURVE",
"370 336 OFFCURVE",
"370 263 CURVE SMOOTH",
"370 172 OFFCURVE",
"320 134 OFFCURVE",
"218 134 CURVE SMOOTH",
"105 134 OFFCURVE",
"52 177 OFFCURVE",
"52 269 CURVE SMOOTH",
"52 298 OFFCURVE",
"52 304 OFFCURVE",
"52 304 CURVE",
"52 304 OFFCURVE",
"30 304 OFFCURVE",
"30 304 CURVE",
"30 304 OFFCURVE",
"30 299 OFFCURVE",
"30 220 CURVE SMOOTH",
"30 63 OFFCURVE",
"110 -12 OFFCURVE",
"278 -12 CURVE SMOOTH",
"443 -12 OFFCURVE",
"530 58 OFFCURVE",
"530 205 CURVE SMOOTH",
"530 344 OFFCURVE",
"439 412 OFFCURVE",
"248 412 CURVE SMOOTH",
"247 412 OFFCURVE",
"245 412 OFFCURVE",
"245 412 CURVE",
"245 412 OFFCURVE",
"503 560 OFFCURVE",
"503 560 CURVE",
"503 560 OFFCURVE",
"503 700 OFFCURVE",
"503 700 CURVE",
"503 700 OFFCURVE",
"252 700 OFFCURVE",
"252 700 CURVE SMOOTH"
);
}
);
};
layerId = "116FA8D2-93BA-48BE-A336-ADFD733FF7C5";
paths = (
{
closed = 1;
nodes = (
"252 700 OFFCURVE",
"49 700 OFFCURVE",
"49 700 CURVE",
"49 700 OFFCURVE",
"49 560 OFFCURVE",
"49 560 CURVE",
"49 560 OFFCURVE",
"470 560 OFFCURVE",
"470 560 CURVE",
"470 560 OFFCURVE",
"470 560 OFFCURVE",
"470 560 CURVE",
"470 560 OFFCURVE",
"213 412 OFFCURVE",
"213 412 CURVE",
"213 412 OFFCURVE",
"213 393 OFFCURVE",
"213 393 CURVE",
"213 393 OFFCURVE",
"228 393 OFFCURVE",
"249 393 CURVE SMOOTH",
"317 393 OFFCURVE",
"370 336 OFFCURVE",
"370 263 CURVE SMOOTH",
"370 172 OFFCURVE",
"320 134 OFFCURVE",
"218 134 CURVE SMOOTH",
"105 134 OFFCURVE",
"52 177 OFFCURVE",
"52 269 CURVE SMOOTH",
"52 298 OFFCURVE",
"52 304 OFFCURVE",
"52 304 CURVE",
"52 304 OFFCURVE",
"30 304 OFFCURVE",
"30 304 CURVE",
"30 304 OFFCURVE",
"30 299 OFFCURVE",
"30 220 CURVE SMOOTH",
"30 63 OFFCURVE",
"110 -12 OFFCURVE",
"278 -12 CURVE SMOOTH",
"443 -12 OFFCURVE",
"530 58 OFFCURVE",
"530 205 CURVE SMOOTH",
"530 344 OFFCURVE",
"439 412 OFFCURVE",
"248 412 CURVE SMOOTH",
"247 412 OFFCURVE",
"245 412 OFFCURVE",
"245 412 CURVE",
"245 412 OFFCURVE",
"503 560 OFFCURVE",
"503 560 CURVE",
"503 560 OFFCURVE",
"503 700 OFFCURVE",
"503 700 CURVE",
"503 700 OFFCURVE",
"252 700 OFFCURVE",
"252 700 CURVE SMOOTH"
);
}
);
width = 565;
},
{
background = {
paths = (
{
closed = 1;
nodes = (
"85 714 OFFCURVE",
"10 572 OFFCURVE",
"10 481 CURVE SMOOTH",
"11 404 OFFCURVE",
"68 374 OFFCURVE",
"105 374 CURVE",
"186 451 OFFCURVE",
"249 491 OFFCURVE",
"321 532 CURVE",
"337 502 OFFCURVE",
"354 442 OFFCURVE",
"370 374 CURVE",
"321 374 OFFCURVE",
"174 374 OFFCURVE",
"105 374 CURVE",
"90 375 OFFCURVE",
"76 357 OFFCURVE",
"76 337 CURVE SMOOTH",
"76 324 OFFCURVE",
"83 309 OFFCURVE",
"101 299 CURVE",
"142 299 OFFCURVE",
"255 299 OFFCURVE",
"384 299 CURVE",
"368 256 OFFCURVE",
"351 222 OFFCURVE",
"335 187 CURVE",
"279 213 OFFCURVE",
"223 238 OFFCURVE",
"167 263 CURVE SMOOTH",
"145 273 OFFCURVE",
"124 284 OFFCURVE",
"101 299 CURVE",
"85 292 OFFCURVE",
"71 284 OFFCURVE",
"55 271 CURVE SMOOTH",
"26 246 OFFCURVE",
"11 166 OFFCURVE",
"58 98 CURVE SMOOTH",
"99 38 OFFCURVE",
"187 -14 OFFCURVE",
"353 -14 CURVE SMOOTH",
"521 -14 OFFCURVE",
"643 88 OFFCURVE",
"643 229 CURVE SMOOTH",
"643 264 OFFCURVE",
"628 305 OFFCURVE",
"595 334 CURVE",
"606 354 OFFCURVE",
"616 375 OFFCURVE",
"622 396 CURVE SMOOTH",
"629 416 OFFCURVE",
"633 436 OFFCURVE",
"633 454 CURVE SMOOTH",
"633 519 OFFCURVE",
"615 580 OFFCURVE",
"572 627 CURVE SMOOTH",
"525 678 OFFCURVE",
"448 714 OFFCURVE",
"333 714 CURVE SMOOTH"
);
}
);
};
layerId = "35B903E1-0971-4EA2-AC4E-2C87C1F50A16";
paths = (
{
closed = 1;
nodes = (
"85 714 OFFCURVE",
"10 572 OFFCURVE",
"10 481 CURVE SMOOTH",
"11 404 OFFCURVE",
"68 374 OFFCURVE",
"105 374 CURVE",
"186 451 OFFCURVE",
"249 491 OFFCURVE",
"321 532 CURVE",
"337 502 OFFCURVE",
"354 442 OFFCURVE",
"370 374 CURVE",
"321 374 OFFCURVE",
"174 374 OFFCURVE",
"105 374 CURVE",
"90 375 OFFCURVE",
"76 357 OFFCURVE",
"76 337 CURVE SMOOTH",
"76 324 OFFCURVE",
"83 309 OFFCURVE",
"101 299 CURVE",
"142 299 OFFCURVE",
"255 299 OFFCURVE",
"384 299 CURVE",
"368 256 OFFCURVE",
"351 222 OFFCURVE",
"335 187 CURVE",
"279 213 OFFCURVE",
"223 238 OFFCURVE",
"167 263 CURVE SMOOTH",
"145 273 OFFCURVE",
"124 284 OFFCURVE",
"101 299 CURVE",
"85 292 OFFCURVE",
"71 284 OFFCURVE",
"55 271 CURVE SMOOTH",
"26 246 OFFCURVE",
"11 166 OFFCURVE",
"58 98 CURVE SMOOTH",
"99 38 OFFCURVE",
"187 -14 OFFCURVE",
"353 -14 CURVE SMOOTH",
"521 -14 OFFCURVE",
"643 88 OFFCURVE",
"643 229 CURVE SMOOTH",
"643 264 OFFCURVE",
"628 305 OFFCURVE",
"595 334 CURVE",
"606 354 OFFCURVE",
"616 375 OFFCURVE",
"622 396 CURVE SMOOTH",
"629 416 OFFCURVE",
"633 436 OFFCURVE",
"633 454 CURVE SMOOTH",
"633 519 OFFCURVE",
"615 580 OFFCURVE",
"572 627 CURVE SMOOTH",
"525 678 OFFCURVE",
"448 714 OFFCURVE",
"333 714 CURVE SMOOTH"
);
}
);
width = 653;
}
);
unicode = 0033;
},
{
glyphname = four;
lastChange = "2022-01-14 06:54:36 +0000";
layers = (
{
background = {
paths = (
{
closed = 1;
nodes = (
"305 182 OFFCURVE",
"22 182 OFFCURVE",
"22 182 CURVE",
"22 182 OFFCURVE",
"22 212 OFFCURVE",
"22 212 CURVE",
"22 212 OFFCURVE",
"305 654 OFFCURVE",
"305 654 CURVE",
"305 654 OFFCURVE",
"305 687 OFFCURVE",
"305 687 CURVE",
"305 687 OFFCURVE",
"305 687 OFFCURVE",
"305 687 CURVE",
"305 687 OFFCURVE",
"155 454 OFFCURVE",
"155 454 CURVE",
"155 454 OFFCURVE",
"155 454 OFFCURVE",
"155 454 CURVE",
"155 454 OFFCURVE",
"0 212 OFFCURVE",
"0 212 CURVE",
"0 212 OFFCURVE",
"0 162 OFFCURVE",
"0 162 CURVE",
"0 162 OFFCURVE",
"86 162 OFFCURVE",
"130 162 CURVE SMOOTH",
"142 162 OFFCURVE",
"270 162 OFFCURVE",
"305 162 CURVE",
"305 9 OFFCURVE",
"305 0 OFFCURVE",
"305 0 CURVE",
"305 0 OFFCURVE",
"469 0 OFFCURVE",
"469 0 CURVE",
"469 0 OFFCURVE",
"469 162 OFFCURVE",
"469 162 CURVE",
"469 162 OFFCURVE",
"565 162 OFFCURVE",
"565 162 CURVE",
"565 162 OFFCURVE",
"565 181 OFFCURVE",
"565 181 CURVE",
"565 181 OFFCURVE",
"469 182 OFFCURVE",
"469 182 CURVE",
"469 182 OFFCURVE",
"469 700 OFFCURVE",
"469 700 CURVE",
"469 700 OFFCURVE",
"313 700 OFFCURVE",
"313 700 CURVE",
"313 700 OFFCURVE",
"305 687 OFFCURVE",
"305 687 CURVE",
"305 687 OFFCURVE",
"305 182 OFFCURVE",
"305 182 CURVE"
);
}
);
};
layerId = "116FA8D2-93BA-48BE-A336-ADFD733FF7C5";
paths = (
{
closed = 1;
nodes = (
"305 182 OFFCURVE",
"22 182 OFFCURVE",
"22 182 CURVE",
"22 182 OFFCURVE",
"22 212 OFFCURVE",
"22 212 CURVE",
"22 212 OFFCURVE",
"305 654 OFFCURVE",
"305 654 CURVE",
"305 654 OFFCURVE",
"305 687 OFFCURVE",
"305 687 CURVE",
"305 687 OFFCURVE",
"305 687 OFFCURVE",
"305 687 CURVE",
"305 687 OFFCURVE",
"155 454 OFFCURVE",
"155 454 CURVE",
"155 454 OFFCURVE",
"155 454 OFFCURVE",
"155 454 CURVE",
"155 454 OFFCURVE",
"0 212 OFFCURVE",
"0 212 CURVE",
"0 212 OFFCURVE",
"0 162 OFFCURVE",
"0 162 CURVE",
"0 162 OFFCURVE",
"86 162 OFFCURVE",
"130 162 CURVE SMOOTH",
"142 162 OFFCURVE",
"270 162 OFFCURVE",
"305 162 CURVE",
"305 9 OFFCURVE",
"305 0 OFFCURVE",
"305 0 CURVE",
"305 0 OFFCURVE",
"469 0 OFFCURVE",
"469 0 CURVE",
"469 0 OFFCURVE",
"469 162 OFFCURVE",
"469 162 CURVE",
"469 162 OFFCURVE",
"565 162 OFFCURVE",
"565 162 CURVE",
"565 162 OFFCURVE",
"565 181 OFFCURVE",
"565 181 CURVE",
"565 181 OFFCURVE",
"469 182 OFFCURVE",
"469 182 CURVE",
"469 182 OFFCURVE",
"469 700 OFFCURVE",
"469 700 CURVE",
"469 700 OFFCURVE",
"313 700 OFFCURVE",
"313 700 CURVE",
"313 700 OFFCURVE",
"305 687 OFFCURVE",
"305 687 CURVE",
"305 687 OFFCURVE",
"305 182 OFFCURVE",
"305 182 CURVE"
);
}
);
width = 575;
},
{
background = {
paths = (
{
closed = 1;
nodes = (
"315 259 OFFCURVE",
"298 268 OFFCURVE",
"279 278 CURVE SMOOTH",
"261 288 OFFCURVE",
"242 299 OFFCURVE",
"220 311 CURVE",
"272 379 OFFCURVE",
"338 417 OFFCURVE",
"480 415 CURVE",
"513 475 OFFCURVE",
"530 566 OFFCURVE",
"528 624 CURVE SMOOTH",
"526 680 OFFCURVE",
"498 699 OFFCURVE",
"428 700 CURVE SMOOTH",
"309 701 OFFCURVE",
"283 696 OFFCURVE",
"204 608 CURVE SMOOTH",
"179 580 OFFCURVE",
"94 467 OFFCURVE",
"81 448 CURVE SMOOTH",
"21 360 OFFCURVE",
"0 314 OFFCURVE",
"0 236 CURVE SMOOTH",
"0 192 OFFCURVE",
"9 158 OFFCURVE",
"28 136 CURVE SMOOTH",
"48 114 OFFCURVE",
"78 105 OFFCURVE",
"122 105 CURVE SMOOTH",
"142 105 OFFCURVE",
"148 105 OFFCURVE",
"173 104 CURVE",
"183 25 OFFCURVE",
"237 -14 OFFCURVE",
"347 -14 CURVE SMOOTH",
"352 -14 OFFCURVE",
"355 -14 OFFCURVE",
"360 -14 CURVE SMOOTH",
"460 -14 OFFCURVE",
"495 31 OFFCURVE",
"505 104 CURVE",
"508 104 OFFCURVE",
"511 104 OFFCURVE",
"515 104 CURVE SMOOTH",
"564 102 OFFCURVE",
"638 127 OFFCURVE",
"642 225 CURVE SMOOTH",
"642 227 OFFCURVE",
"642 234 OFFCURVE",
"642 235 CURVE SMOOTH",
"646 338 OFFCURVE",
"598 397 OFFCURVE",
"511 412 CURVE SMOOTH",
"506 413 OFFCURVE",
"501 413 OFFCURVE",
"495 414 CURVE SMOOTH",
"490 414 OFFCURVE",
"485 415 OFFCURVE",
"480 415 CURVE",
"444 359 OFFCURVE",
"407 303 OFFCURVE",
"332 251 CURVE"
);
}
);
};
layerId = "35B903E1-0971-4EA2-AC4E-2C87C1F50A16";
paths = (
{
closed = 1;
nodes = (
"315 259 OFFCURVE",
"298 268 OFFCURVE",
"279 278 CURVE SMOOTH",
"261 288 OFFCURVE",
"242 299 OFFCURVE",
"220 311 CURVE",
"272 379 OFFCURVE",
"338 417 OFFCURVE",
"480 415 CURVE",
"513 475 OFFCURVE",
"530 566 OFFCURVE",
"528 624 CURVE SMOOTH",
"526 680 OFFCURVE",
"498 699 OFFCURVE",
"428 700 CURVE SMOOTH",
"309 701 OFFCURVE",
"283 696 OFFCURVE",
"204 608 CURVE SMOOTH",
"179 580 OFFCURVE",
"94 467 OFFCURVE",
"81 448 CURVE SMOOTH",
"21 360 OFFCURVE",
"0 314 OFFCURVE",
"0 236 CURVE SMOOTH",
"0 192 OFFCURVE",
"9 158 OFFCURVE",
"28 136 CURVE SMOOTH",
"48 114 OFFCURVE",
"78 105 OFFCURVE",
"122 105 CURVE SMOOTH",
"142 105 OFFCURVE",
"148 105 OFFCURVE",
"173 104 CURVE",
"183 25 OFFCURVE",
"237 -14 OFFCURVE",
"347 -14 CURVE SMOOTH",
"352 -14 OFFCURVE",
"355 -14 OFFCURVE",
"360 -14 CURVE SMOOTH",
"460 -14 OFFCURVE",
"495 31 OFFCURVE",
"505 104 CURVE",
"508 104 OFFCURVE",
"511 104 OFFCURVE",
"515 104 CURVE SMOOTH",
"564 102 OFFCURVE",
"638 127 OFFCURVE",
"642 225 CURVE SMOOTH",
"642 227 OFFCURVE",
"642 234 OFFCURVE",
"642 235 CURVE SMOOTH",
"646 338 OFFCURVE",
"598 397 OFFCURVE",
"511 412 CURVE SMOOTH",
"506 413 OFFCURVE",
"501 413 OFFCURVE",
"495 414 CURVE SMOOTH",
"490 414 OFFCURVE",
"485 415 OFFCURVE",
"480 415 CURVE",
"444 359 OFFCURVE",
"407 303 OFFCURVE",
"332 251 CURVE"
);
}
);
width = 647;
}
);
unicode = 0034;
},
{
glyphname = five;
lastChange = "2022-01-14 06:54:36 +0000";
layers = (
{
background = {
paths = (
{
closed = 1;
nodes = (
"537 700 OFFCURVE",
"537 700 CURVE",
"537 700 OFFCURVE",
"537 700 OFFCURVE",
"537 700 CURVE",
"537 700 OFFCURVE",
"537 560 OFFCURVE",
"537 560 CURVE",
"537 560 OFFCURVE",
"537 560 OFFCURVE",
"537 560 CURVE",
"537 560 OFFCURVE",
"212 560 OFFCURVE",
"212 560 CURVE",
"212 560 OFFCURVE",
"212 420 OFFCURVE",
"212 420 CURVE",
"212 420 OFFCURVE",
"260 420 OFFCURVE",
"300 420 CURVE SMOOTH",
"489 420 OFFCURVE",
"570 346 OFFCURVE",
"570 213 CURVE SMOOTH",
"570 74 OFFCURVE",
"490 -12 OFFCURVE",
"304 -12 CURVE SMOOTH",
"135 -12 OFFCURVE",
"55 69 OFFCURVE",
"55 221 CURVE SMOOTH",
"55 248 OFFCURVE",
"55 265 OFFCURVE",
"55 304 CURVE",
"55 304 OFFCURVE",
"77 304 OFFCURVE",
"77 304 CURVE",
"77 304 OFFCURVE",
"77 284 OFFCURVE",
"77 273 CURVE SMOOTH",
"77 169 OFFCURVE",
"138 134 OFFCURVE",
"252 134 CURVE SMOOTH",
"354 134 OFFCURVE",
"410 180 OFFCURVE",
"410 270 CURVE SMOOTH",
"410 364 OFFCURVE",
"375 400 OFFCURVE",
"212 400 CURVE SMOOTH",
"131 400 OFFCURVE",
"68 400 OFFCURVE",
"68 400 CURVE",
"68 400 OFFCURVE",
"68 700 OFFCURVE",
"68 700 CURVE",
"68 700 OFFCURVE",
"68 700 OFFCURVE",
"68 700 CURVE",
"68 700 OFFCURVE"
);
}
);
};
layerId = "116FA8D2-93BA-48BE-A336-ADFD733FF7C5";
paths = (
{
closed = 1;
nodes = (
"537 700 OFFCURVE",
"537 700 CURVE",
"537 700 OFFCURVE",
"537 700 OFFCURVE",
"537 700 CURVE",
"537 700 OFFCURVE",
"537 560 OFFCURVE",
"537 560 CURVE",
"537 560 OFFCURVE",
"537 560 OFFCURVE",
"537 560 CURVE",
"537 560 OFFCURVE",
"212 560 OFFCURVE",
"212 560 CURVE",
"212 560 OFFCURVE",
"212 420 OFFCURVE",
"212 420 CURVE",
"212 420 OFFCURVE",
"260 420 OFFCURVE",
"300 420 CURVE SMOOTH",
"489 420 OFFCURVE",
"570 346 OFFCURVE",
"570 213 CURVE SMOOTH",
"570 74 OFFCURVE",
"490 -12 OFFCURVE",
"304 -12 CURVE SMOOTH",
"135 -12 OFFCURVE",
"55 69 OFFCURVE",
"55 221 CURVE SMOOTH",
"55 248 OFFCURVE",
"55 265 OFFCURVE",
"55 304 CURVE",
"55 304 OFFCURVE",
"77 304 OFFCURVE",
"77 304 CURVE",
"77 304 OFFCURVE",
"77 284 OFFCURVE",
"77 273 CURVE SMOOTH",
"77 169 OFFCURVE",
"138 134 OFFCURVE",
"252 134 CURVE SMOOTH",
"354 134 OFFCURVE",
"410 180 OFFCURVE",
"410 270 CURVE SMOOTH",
"410 364 OFFCURVE",
"375 400 OFFCURVE",
"212 400 CURVE SMOOTH",
"131 400 OFFCURVE",
"68 400 OFFCURVE",
"68 400 CURVE",
"68 400 OFFCURVE",
"68 700 OFFCURVE",
"68 700 CURVE",
"68 700 OFFCURVE",
"68 700 OFFCURVE",
"68 700 CURVE",
"68 700 OFFCURVE"
);
}
);
width = 591;
},
{
background = {
paths = (
{
closed = 1;
nodes = (
"435 700 OFFCURVE",
"488 700 CURVE SMOOTH",
"587 700 OFFCURVE",
"615 675 OFFCURVE",
"610 592 CURVE SMOOTH",
"609 575 OFFCURVE",
"608 542 OFFCURVE",
"607 508 CURVE SMOOTH",
"604 438 OFFCURVE",
"590 404 OFFCURVE",
"526 395 CURVE",
"431 440 OFFCURVE",
"336 484 OFFCURVE",
"241 529 CURVE",
"239 484 OFFCURVE",
"238 440 OFFCURVE",
"236 395 CURVE",
"298 412 OFFCURVE",
"385 427 OFFCURVE",
"526 396 CURVE SMOOTH",
"610 378 OFFCURVE",
"622 309 OFFCURVE",
"619 238 CURVE SMOOTH",
"617 163 OFFCURVE",
"552 0 OFFCURVE",
"359 0 CURVE SMOOTH",
"195 0 OFFCURVE",
"72 21 OFFCURVE",
"21 171 CURVE SMOOTH",
"8 211 OFFCURVE",
"18 264 OFFCURVE",
"39 288 CURVE SMOOTH",
"55 308 OFFCURVE",
"79 320 OFFCURVE",
"103 320 CURVE",
"147 298 OFFCURVE",
"190 276 OFFCURVE",
"234 254 CURVE SMOOTH",
"274 234 OFFCURVE",
"314 214 OFFCURVE",
"353 194 CURVE",
"369 222 OFFCURVE",
"386 251 OFFCURVE",
"402 279 CURVE",
"296 320 OFFCURVE",
"228 339 OFFCURVE",
"103 319 CURVE",
"34 357 OFFCURVE",
"8 397 OFFCURVE",
"10 454 CURVE",
"11 507 OFFCURVE",
"13 528 OFFCURVE",
"15 592 CURVE SMOOTH",
"18 675 OFFCURVE",
"47 700 OFFCURVE",
"146 700 CURVE SMOOTH",
"182 700 OFFCURVE"
);
}
);
};
layerId = "35B903E1-0971-4EA2-AC4E-2C87C1F50A16";
paths = (
{
closed = 1;
nodes = (
"435 700 OFFCURVE",
"488 700 CURVE SMOOTH",
"587 700 OFFCURVE",
"615 675 OFFCURVE",
"610 592 CURVE SMOOTH",
"609 575 OFFCURVE",
"608 542 OFFCURVE",
"607 508 CURVE SMOOTH",
"604 438 OFFCURVE",
"590 404 OFFCURVE",
"526 395 CURVE",
"431 440 OFFCURVE",
"336 484 OFFCURVE",
"241 529 CURVE",
"239 484 OFFCURVE",
"238 440 OFFCURVE",
"236 395 CURVE",
"298 412 OFFCURVE",
"385 427 OFFCURVE",
"526 396 CURVE SMOOTH",
"610 378 OFFCURVE",
"622 309 OFFCURVE",
"619 238 CURVE SMOOTH",
"617 163 OFFCURVE",
"552 0 OFFCURVE",
"359 0 CURVE SMOOTH",
"195 0 OFFCURVE",
"72 21 OFFCURVE",
"21 171 CURVE SMOOTH",
"8 211 OFFCURVE",
"18 264 OFFCURVE",
"39 288 CURVE SMOOTH",
"55 308 OFFCURVE",
"79 320 OFFCURVE",
"103 320 CURVE",
"147 298 OFFCURVE",
"190 276 OFFCURVE",
"234 254 CURVE SMOOTH",
"274 234 OFFCURVE",
"314 214 OFFCURVE",
"353 194 CURVE",
"369 222 OFFCURVE",
"386 251 OFFCURVE",
"402 279 CURVE",
"296 320 OFFCURVE",
"228 339 OFFCURVE",
"103 319 CURVE",
"34 357 OFFCURVE",
"8 397 OFFCURVE",
"10 454 CURVE",
"11 507 OFFCURVE",
"13 528 OFFCURVE",
"15 592 CURVE SMOOTH",
"18 675 OFFCURVE",
"47 700 OFFCURVE",
"146 700 CURVE SMOOTH",
"182 700 OFFCURVE"
);
}
);
width = 629;
}
);
unicode = 0035;
},
{
glyphname = six;
lastChange = "2022-01-14 06:54:36 +0000";
layers = (
{
background = {
paths = (
{
closed = 1;
nodes = (
"143 700 OFFCURVE",
"50 596 OFFCURVE",
"50 327 CURVE SMOOTH",
"50 97 OFFCURVE",
"141 -12 OFFCURVE",
"334 -12 CURVE SMOOTH",
"338 -12 OFFCURVE",
"341 -12 OFFCURVE",
"341 -12 CURVE SMOOTH",
"508 -12 OFFCURVE",
"610 84 OFFCURVE",
"610 242 CURVE SMOOTH",
"610 366 OFFCURVE",
"562 455 OFFCURVE",
"441 458 CURVE SMOOTH",
"438 458 OFFCURVE",
"436 458 OFFCURVE",
"433 458 CURVE SMOOTH",
"348 458 OFFCURVE",
"288 441 OFFCURVE",
"206 417 CURVE",
"211 530 OFFCURVE",
"252 595 OFFCURVE",
"300 632 CURVE SMOOTH",
"340 663 OFFCURVE",
"394 680 OFFCURVE",
"459 680 CURVE SMOOTH",
"496 680 OFFCURVE",
"536 680 OFFCURVE",
"553 680 CURVE",
"553 690 OFFCURVE",
"553 692 OFFCURVE",
"553 700 CURVE",
"514 700 OFFCURVE",
"493 700 OFFCURVE",
"414 700 CURVE SMOOTH"
);
},
{
closed = 1;
nodes = (
"241 129 OFFCURVE",
"207 203 OFFCURVE",
"207 305 CURVE SMOOTH",
"207 307 OFFCURVE",
"207 308 OFFCURVE",
"207 310 CURVE SMOOTH",
"207 335 OFFCURVE",
"206 371 OFFCURVE",
"206 397 CURVE",
"275 415 OFFCURVE",
"299 420 OFFCURVE",
"322 420 CURVE SMOOTH",
"347 420 OFFCURVE",
"379 417 OFFCURVE",
"408 390 CURVE SMOOTH",
"428 371 OFFCURVE",
"449 331 OFFCURVE",
"449 264 CURVE SMOOTH",
"449 150 OFFCURVE",
"387 131 OFFCURVE",
"334 130 CURVE SMOOTH"
);
}
);
};
layerId = "116FA8D2-93BA-48BE-A336-ADFD733FF7C5";
paths = (
{
closed = 1;
nodes = (
"143 700 OFFCURVE",
"50 596 OFFCURVE",
"50 327 CURVE SMOOTH",
"50 97 OFFCURVE",
"141 -12 OFFCURVE",
"334 -12 CURVE SMOOTH",
"338 -12 OFFCURVE",
"341 -12 OFFCURVE",
"341 -12 CURVE SMOOTH",
"508 -12 OFFCURVE",
"610 84 OFFCURVE",
"610 242 CURVE SMOOTH",
"610 366 OFFCURVE",
"562 455 OFFCURVE",
"441 458 CURVE SMOOTH",
"438 458 OFFCURVE",
"436 458 OFFCURVE",
"433 458 CURVE SMOOTH",
"348 458 OFFCURVE",
"288 441 OFFCURVE",
"206 417 CURVE",
"211 530 OFFCURVE",
"252 595 OFFCURVE",
"300 632 CURVE SMOOTH",
"340 663 OFFCURVE",
"394 680 OFFCURVE",
"459 680 CURVE SMOOTH",
"496 680 OFFCURVE",
"536 680 OFFCURVE",
"553 680 CURVE",
"553 690 OFFCURVE",
"553 692 OFFCURVE",
"553 700 CURVE",
"514 700 OFFCURVE",
"493 700 OFFCURVE",
"414 700 CURVE SMOOTH"
);
},
{
closed = 1;
nodes = (
"241 129 OFFCURVE",
"207 203 OFFCURVE",
"207 305 CURVE SMOOTH",
"207 307 OFFCURVE",
"207 308 OFFCURVE",
"207 310 CURVE SMOOTH",
"207 335 OFFCURVE",
"206 371 OFFCURVE",
"206 397 CURVE",
"275 415 OFFCURVE",
"299 420 OFFCURVE",
"322 420 CURVE SMOOTH",
"347 420 OFFCURVE",
"379 417 OFFCURVE",
"408 390 CURVE SMOOTH",
"428 371 OFFCURVE",
"449 331 OFFCURVE",
"449 264 CURVE SMOOTH",
"449 150 OFFCURVE",
"387 131 OFFCURVE",
"334 130 CURVE SMOOTH"
);
}
);
width = 640;
},
{
background = {
paths = (
{
closed = 1;
nodes = (
"184 700 OFFCURVE",
"5 491 OFFCURVE",
"5 284 CURVE SMOOTH",
"5 130 OFFCURVE",
"99 0 OFFCURVE",
"291 0 CURVE SMOOTH",
"311 0 OFFCURVE",
"330 0 OFFCURVE",
"350 0 CURVE SMOOTH",
"491 0 OFFCURVE",
"606 107 OFFCURVE",
"606 237 CURVE SMOOTH",
"606 374 OFFCURVE",
"494 418 OFFCURVE",
"443 418 CURVE SMOOTH",
"438 418 OFFCURVE",
"429 418 OFFCURVE",
"429 418 CURVE",
"448 456 OFFCURVE",
"511 568 OFFCURVE",
"508 635 CURVE",
"508 635 OFFCURVE",
"508 635 OFFCURVE",
"508 635 CURVE",
"508 635 OFFCURVE",
"508 635 OFFCURVE",
"508 635 CURVE",
"508 635 OFFCURVE",
"508 635 OFFCURVE",
"508 635 CURVE",
"508 635 OFFCURVE",
"508 628 OFFCURVE",
"508 635 CURVE SMOOTH",
"508 683 OFFCURVE",
"497 700 OFFCURVE",
"398 700 CURVE SMOOTH"
);
},
{
closed = 1;
nodes = (
"323 225 OFFCURVE",
"224 270 OFFCURVE",
"197 282 CURVE SMOOTH",
"192 284 OFFCURVE",
"190 285 OFFCURVE",
"190 285 CURVE",
"206 316 OFFCURVE",
"227 343 OFFCURVE",
"254 365 CURVE SMOOTH",
"266 374 OFFCURVE",
"280 383 OFFCURVE",
"295 390 CURVE SMOOTH",
"330 407 OFFCURVE",
"374 417 OFFCURVE",
"429 418 CURVE",
"427 414 OFFCURVE",
"393 352 OFFCURVE",
"364 299 CURVE SMOOTH",
"342 259 OFFCURVE",
"323 225 OFFCURVE",
"323 225 CURVE SMOOTH"
);
}
);
};
layerId = "35B903E1-0971-4EA2-AC4E-2C87C1F50A16";
paths = (
{
closed = 1;
nodes = (
"184 700 OFFCURVE",
"5 491 OFFCURVE",
"5 284 CURVE SMOOTH",
"5 130 OFFCURVE",
"99 0 OFFCURVE",
"291 0 CURVE SMOOTH",
"311 0 OFFCURVE",
"330 0 OFFCURVE",
"350 0 CURVE SMOOTH",
"491 0 OFFCURVE",
"606 107 OFFCURVE",
"606 237 CURVE SMOOTH",
"606 374 OFFCURVE",
"494 418 OFFCURVE",
"443 418 CURVE SMOOTH",
"438 418 OFFCURVE",
"429 418 OFFCURVE",
"429 418 CURVE",
"448 456 OFFCURVE",
"511 568 OFFCURVE",
"508 635 CURVE",
"508 635 OFFCURVE",
"508 635 OFFCURVE",
"508 635 CURVE",
"508 635 OFFCURVE",
"508 635 OFFCURVE",
"508 635 CURVE",
"508 635 OFFCURVE",
"508 635 OFFCURVE",
"508 635 CURVE",
"508 635 OFFCURVE",
"508 628 OFFCURVE",
"508 635 CURVE SMOOTH",
"508 683 OFFCURVE",
"497 700 OFFCURVE",
"398 700 CURVE SMOOTH"
);
},
{
closed = 1;
nodes = (
"323 225 OFFCURVE",
"224 270 OFFCURVE",
"197 282 CURVE SMOOTH",
"192 284 OFFCURVE",
"190 285 OFFCURVE",
"190 285 CURVE",
"206 316 OFFCURVE",
"227 343 OFFCURVE",
"254 365 CURVE SMOOTH",
"266 374 OFFCURVE",
"280 383 OFFCURVE",
"295 390 CURVE SMOOTH",
"330 407 OFFCURVE",
"374 417 OFFCURVE",
"429 418 CURVE",
"427 414 OFFCURVE",
"393 352 OFFCURVE",
"364 299 CURVE SMOOTH",
"342 259 OFFCURVE",
"323 225 OFFCURVE",
"323 225 CURVE SMOOTH"
);
}
);
width = 606;
}
);
unicode = 0036;
},
{
glyphname = seven;
lastChange = "2022-01-14 06:54:36 +0000";
layers = (
{
background = {
paths = (
{
closed = 1;
nodes = (
"39 700 OFFCURVE",
"25 676 OFFCURVE",
"25 525 CURVE SMOOTH",
"25 472 OFFCURVE",
"25 412 OFFCURVE",
"25 412 CURVE",
"25 412 OFFCURVE",
"47 412 OFFCURVE",
"47 412 CURVE",
"47 412 OFFCURVE",
"47 460 OFFCURVE",
"47 463 CURVE SMOOTH",
"47 543 OFFCURVE",
"67 560 OFFCURVE",
"173 560 CURVE SMOOTH",
"228 560 OFFCURVE",
"456 560 OFFCURVE",
"482 560 CURVE",
"469 546 OFFCURVE",
"325 412 OFFCURVE",
"257 348 CURVE SMOOTH",
"182 278 OFFCURVE",
"151 226 OFFCURVE",
"151 136 CURVE SMOOTH",
"151 98 OFFCURVE",
"150 0 OFFCURVE",
"150 0 CURVE",
"150 0 OFFCURVE",
"313 0 OFFCURVE",
"313 0 CURVE",
"313 0 OFFCURVE",
"314 183 OFFCURVE",
"314 281 CURVE SMOOTH",
"314 355 OFFCURVE",
"323 381 OFFCURVE",
"374 430 CURVE SMOOTH",
"427 480 OFFCURVE",
"481 531 OFFCURVE",
"534 581 CURVE",
"534 603 OFFCURVE",
"534 700 OFFCURVE",
"534 700 CURVE",
"534 700 OFFCURVE",
"343 700 OFFCURVE",
"343 700 CURVE",
"343 700 OFFCURVE",
"343 700 OFFCURVE",
"343 700 CURVE",
"343 700 OFFCURVE",
"256 700 OFFCURVE",
"200 700 CURVE SMOOTH"
);
}
);
};
layerId = "116FA8D2-93BA-48BE-A336-ADFD733FF7C5";
paths = (
{
closed = 1;
nodes = (
"39 700 OFFCURVE",
"25 676 OFFCURVE",
"25 525 CURVE SMOOTH",
"25 472 OFFCURVE",
"25 412 OFFCURVE",
"25 412 CURVE",
"25 412 OFFCURVE",
"47 412 OFFCURVE",
"47 412 CURVE",
"47 412 OFFCURVE",
"47 460 OFFCURVE",
"47 463 CURVE SMOOTH",
"47 543 OFFCURVE",
"67 560 OFFCURVE",
"173 560 CURVE SMOOTH",
"228 560 OFFCURVE",
"456 560 OFFCURVE",
"482 560 CURVE",
"469 546 OFFCURVE",
"325 412 OFFCURVE",
"257 348 CURVE SMOOTH",
"182 278 OFFCURVE",
"151 226 OFFCURVE",
"151 136 CURVE SMOOTH",
"151 98 OFFCURVE",
"150 0 OFFCURVE",
"150 0 CURVE",
"150 0 OFFCURVE",
"313 0 OFFCURVE",
"313 0 CURVE",
"313 0 OFFCURVE",
"314 183 OFFCURVE",
"314 281 CURVE SMOOTH",
"314 355 OFFCURVE",
"323 381 OFFCURVE",
"374 430 CURVE SMOOTH",
"427 480 OFFCURVE",
"481 531 OFFCURVE",
"534 581 CURVE",
"534 603 OFFCURVE",
"534 700 OFFCURVE",
"534 700 CURVE",
"534 700 OFFCURVE",
"343 700 OFFCURVE",
"343 700 CURVE",
"343 700 OFFCURVE",
"343 700 OFFCURVE",
"343 700 CURVE",
"343 700 OFFCURVE",
"256 700 OFFCURVE",
"200 700 CURVE SMOOTH"
);
}
);
width = 544;
},
{
background = {
paths = (
{
closed = 1;
nodes = (
"32 700 OFFCURVE",
"5 675 OFFCURVE",
"5 592 CURVE SMOOTH",
"5 569 OFFCURVE",
"5 546 OFFCURVE",
"5 523 CURVE SMOOTH",
"5 373 OFFCURVE",
"139 373 OFFCURVE",
"188 382 CURVE",
"190 386 OFFCURVE",
"192 389 OFFCURVE",
"194 393 CURVE SMOOTH",
"242 483 OFFCURVE",
"275 527 OFFCURVE",
"359 551 CURVE",
"359 551 OFFCURVE",
"359 551 OFFCURVE",
"359 551 CURVE",
"372 516 OFFCURVE",
"386 482 OFFCURVE",
"399 447 CURVE",
"329 425 OFFCURVE",
"258 404 OFFCURVE",
"188 382 CURVE",
"132 272 OFFCURVE",
"109 123 OFFCURVE",
"109 55 CURVE SMOOTH",
"109 7 OFFCURVE",
"120 0 OFFCURVE",
"219 0 CURVE SMOOTH",
"368 0 OFFCURVE",
"386 25 OFFCURVE",
"439 108 CURVE SMOOTH",
"469 154 OFFCURVE",
"538 304 OFFCURVE",
"584 427 CURVE SMOOTH",
"611 499 OFFCURVE",
"631 562 OFFCURVE",
"631 592 CURVE SMOOTH",
"631 675 OFFCURVE",
"613 700 OFFCURVE",
"563 700 CURVE SMOOTH",
"530 700 OFFCURVE",
"498 700 OFFCURVE",
"465 700 CURVE",
"410 700 OFFCURVE",
"354 700 OFFCURVE",
"299 700 CURVE",
"243 700 OFFCURVE",
"187 700 OFFCURVE",
"131 700 CURVE SMOOTH"
);
}
);
};
layerId = "35B903E1-0971-4EA2-AC4E-2C87C1F50A16";
paths = (
{
closed = 1;
nodes = (
"32 700 OFFCURVE",
"5 675 OFFCURVE",
"5 592 CURVE SMOOTH",
"5 569 OFFCURVE",
"5 546 OFFCURVE",
"5 523 CURVE SMOOTH",
"5 373 OFFCURVE",
"139 373 OFFCURVE",
"188 382 CURVE",
"190 386 OFFCURVE",
"192 389 OFFCURVE",
"194 393 CURVE SMOOTH",
"242 483 OFFCURVE",
"275 527 OFFCURVE",
"359 551 CURVE",
"359 551 OFFCURVE",
"359 551 OFFCURVE",
"359 551 CURVE",
"372 516 OFFCURVE",
"386 482 OFFCURVE",
"399 447 CURVE",
"329 425 OFFCURVE",
"258 404 OFFCURVE",
"188 382 CURVE",
"132 272 OFFCURVE",
"109 123 OFFCURVE",
"109 55 CURVE SMOOTH",
"109 7 OFFCURVE",
"120 0 OFFCURVE",
"219 0 CURVE SMOOTH",
"368 0 OFFCURVE",
"386 25 OFFCURVE",
"439 108 CURVE SMOOTH",
"469 154 OFFCURVE",
"538 304 OFFCURVE",
"584 427 CURVE SMOOTH",
"611 499 OFFCURVE",
"631 562 OFFCURVE",
"631 592 CURVE SMOOTH",
"631 675 OFFCURVE",
"613 700 OFFCURVE",
"563 700 CURVE SMOOTH",
"530 700 OFFCURVE",
"498 700 OFFCURVE",
"465 700 CURVE",
"410 700 OFFCURVE",
"354 700 OFFCURVE",
"299 700 CURVE",
"243 700 OFFCURVE",
"187 700 OFFCURVE",
"131 700 CURVE SMOOTH"
);
}
);
width = 631;
}
);
unicode = 0037;
},
{
glyphname = eight;
lastChange = "2022-01-14 06:54:36 +0000";
layers = (
{
background = {
paths = (
{
closed = 1;
nodes = (
"525 -12 OFFCURVE",
"615 76 OFFCURVE",
"615 199 CURVE SMOOTH",
"615 249 OFFCURVE",
"594 287 OFFCURVE",
"562 315 CURVE SMOOTH",
"524 348 OFFCURVE",
"471 366 OFFCURVE",
"417 369 CURVE",
"417 369 LINE",
"519 418 LINE",
"572 445 OFFCURVE",
"595 470 OFFCURVE",
"595 535 CURVE SMOOTH",
"595 635 OFFCURVE",
"505 712 OFFCURVE",
"330 712 CURVE SMOOTH",
"155 712 OFFCURVE",
"65 635 OFFCURVE",
"65 535 CURVE SMOOTH",
"65 470 OFFCURVE",
"88 445 OFFCURVE",
"141 418 CURVE",
"243 369 LINE",
"243 369 LINE",
"189 366 OFFCURVE",
"136 348 OFFCURVE",
"98 315 CURVE SMOOTH",
"66 287 OFFCURVE",
"45 249 OFFCURVE",
"45 199 CURVE SMOOTH",
"45 76 OFFCURVE",
"135 -12 OFFCURVE",
"330 -12 CURVE SMOOTH"
);
},
{
closed = 1;
nodes = (
"252 130 OFFCURVE",
"205 178 OFFCURVE",
"205 245 CURVE SMOOTH",
"205 294 OFFCURVE",
"229 330 OFFCURVE",
"268 353 CURVE",
"309 353 OFFCURVE",
"351 353 OFFCURVE",
"392 353 CURVE",
"431 330 OFFCURVE",
"455 294 OFFCURVE",
"455 245 CURVE SMOOTH",
"455 178 OFFCURVE",
"408 130 OFFCURVE",
"330 130 CURVE SMOOTH"
);
},
{
closed = 1;
nodes = (
"224 394 OFFCURVE",
"205 425 OFFCURVE",
"205 476 CURVE SMOOTH",
"205 528 OFFCURVE",
"250 570 OFFCURVE",
"330 570 CURVE SMOOTH",
"410 570 OFFCURVE",
"455 528 OFFCURVE",
"455 476 CURVE SMOOTH",
"455 425 OFFCURVE",
"436 394 OFFCURVE",
"392 371 CURVE",
"351 371 OFFCURVE",
"309 371 OFFCURVE",
"268 371 CURVE"
);
}
);
};
layerId = "116FA8D2-93BA-48BE-A336-ADFD733FF7C5";
paths = (
{
closed = 1;
nodes = (
"525 -12 OFFCURVE",
"615 76 OFFCURVE",
"615 199 CURVE SMOOTH",
"615 249 OFFCURVE",
"594 287 OFFCURVE",
"562 315 CURVE SMOOTH",
"524 348 OFFCURVE",
"471 366 OFFCURVE",
"417 369 CURVE",
"417 369 LINE",
"519 418 LINE",
"572 445 OFFCURVE",
"595 470 OFFCURVE",
"595 535 CURVE SMOOTH",
"595 635 OFFCURVE",
"505 712 OFFCURVE",
"330 712 CURVE SMOOTH",
"155 712 OFFCURVE",
"65 635 OFFCURVE",
"65 535 CURVE SMOOTH",
"65 470 OFFCURVE",
"88 445 OFFCURVE",
"141 418 CURVE",
"243 369 LINE",
"243 369 LINE",
"189 366 OFFCURVE",
"136 348 OFFCURVE",
"98 315 CURVE SMOOTH",
"66 287 OFFCURVE",
"45 249 OFFCURVE",
"45 199 CURVE SMOOTH",
"45 76 OFFCURVE",
"135 -12 OFFCURVE",
"330 -12 CURVE SMOOTH"
);
},
{
closed = 1;
nodes = (
"252 130 OFFCURVE",
"205 178 OFFCURVE",
"205 245 CURVE SMOOTH",
"205 294 OFFCURVE",
"229 330 OFFCURVE",
"268 353 CURVE",
"309 353 OFFCURVE",
"351 353 OFFCURVE",
"392 353 CURVE",
"431 330 OFFCURVE",
"455 294 OFFCURVE",
"455 245 CURVE SMOOTH",
"455 178 OFFCURVE",
"408 130 OFFCURVE",
"330 130 CURVE SMOOTH"
);
},
{
closed = 1;
nodes = (
"224 394 OFFCURVE",
"205 425 OFFCURVE",
"205 476 CURVE SMOOTH",
"205 528 OFFCURVE",
"250 570 OFFCURVE",
"330 570 CURVE SMOOTH",
"410 570 OFFCURVE",
"455 528 OFFCURVE",
"455 476 CURVE SMOOTH",
"455 425 OFFCURVE",
"436 394 OFFCURVE",
"392 371 CURVE",
"351 371 OFFCURVE",
"309 371 OFFCURVE",
"268 371 CURVE"
);
}
);
width = 660;
},
{
background = {
paths = (
{
closed = 1;
nodes = (
"544 -14 OFFCURVE",
"645 101 OFFCURVE",
"645 212 CURVE SMOOTH",
"645 271 OFFCURVE",
"610 324 OFFCURVE",
"535 358 CURVE",
"477 320 OFFCURVE",
"432 309 OFFCURVE",
"350 312 CURVE",
"387 435 LINE",
"535 358 LINE",
"602 400 OFFCURVE",
"626 436 OFFCURVE",
"627 493 CURVE SMOOTH",
"628 578 OFFCURVE",
"564 714 OFFCURVE",
"325 714 CURVE SMOOTH",
"86 714 OFFCURVE",
"22 578 OFFCURVE",
"23 493 CURVE SMOOTH",
"24 436 OFFCURVE",
"48 400 OFFCURVE",
"115 358 CURVE",
"263 435 LINE",
"300 312 LINE",
"218 309 OFFCURVE",
"173 320 OFFCURVE",
"115 358 CURVE",
"40 324 OFFCURVE",
"5 271 OFFCURVE",
"5 212 CURVE SMOOTH",
"5 101 OFFCURVE",
"106 -14 OFFCURVE",
"325 -14 CURVE SMOOTH"
);
},
{
closed = 1;
nodes = (
"324 242 OFFCURVE",
"324 242 OFFCURVE",
"324 242 CURVE",
"324 242 OFFCURVE",
"324 242 OFFCURVE",
"324 242 CURVE",
"324 242 OFFCURVE",
"324 242 OFFCURVE",
"324 242 CURVE SMOOTH",
"324 242 OFFCURVE",
"324 242 OFFCURVE",
"324 242 CURVE SMOOTH",
"324 242 OFFCURVE",
"324 242 OFFCURVE",
"324 242 CURVE SMOOTH"
);
},
{
closed = 1;
nodes = (
"324 471 OFFCURVE",
"324 471 OFFCURVE",
"324 471 CURVE SMOOTH",
"324 471 OFFCURVE",
"324 471 OFFCURVE",
"324 471 CURVE SMOOTH",
"324 471 OFFCURVE",
"324 471 OFFCURVE",
"324 471 CURVE SMOOTH",
"324 471 OFFCURVE",
"324 471 OFFCURVE",
"324 471 CURVE",
"324 471 OFFCURVE",
"324 471 OFFCURVE",
"324 471 CURVE"
);
}
);
};
layerId = "35B903E1-0971-4EA2-AC4E-2C87C1F50A16";
paths = (
{
closed = 1;
nodes = (
"544 -14 OFFCURVE",
"645 101 OFFCURVE",
"645 212 CURVE SMOOTH",
"645 271 OFFCURVE",
"610 324 OFFCURVE",
"535 358 CURVE",
"477 320 OFFCURVE",
"432 309 OFFCURVE",
"350 312 CURVE",
"387 435 LINE",
"535 358 LINE",
"602 400 OFFCURVE",
"626 436 OFFCURVE",
"627 493 CURVE SMOOTH",
"628 578 OFFCURVE",
"564 714 OFFCURVE",
"325 714 CURVE SMOOTH",
"86 714 OFFCURVE",
"22 578 OFFCURVE",
"23 493 CURVE SMOOTH",
"24 436 OFFCURVE",
"48 400 OFFCURVE",
"115 358 CURVE",
"263 435 LINE",
"300 312 LINE",
"218 309 OFFCURVE",
"173 320 OFFCURVE",
"115 358 CURVE",
"40 324 OFFCURVE",
"5 271 OFFCURVE",
"5 212 CURVE SMOOTH",
"5 101 OFFCURVE",
"106 -14 OFFCURVE",
"325 -14 CURVE SMOOTH"
);
},
{
closed = 1;
nodes = (
"324 242 OFFCURVE",
"324 242 OFFCURVE",
"324 242 CURVE",
"324 242 OFFCURVE",
"324 242 OFFCURVE",
"324 242 CURVE",
"324 242 OFFCURVE",
"324 242 OFFCURVE",
"324 242 CURVE SMOOTH",
"324 242 OFFCURVE",
"324 242 OFFCURVE",
"324 242 CURVE SMOOTH",
"324 242 OFFCURVE",
"324 242 OFFCURVE",
"324 242 CURVE SMOOTH"
);
},
{
closed = 1;
nodes = (
"324 471 OFFCURVE",
"324 471 OFFCURVE",
"324 471 CURVE SMOOTH",
"324 471 OFFCURVE",
"324 471 OFFCURVE",
"324 471 CURVE SMOOTH",
"324 471 OFFCURVE",
"324 471 OFFCURVE",
"324 471 CURVE SMOOTH",
"324 471 OFFCURVE",
"324 471 OFFCURVE",
"324 471 CURVE",
"324 471 OFFCURVE",
"324 471 OFFCURVE",
"324 471 CURVE"
);
}
);
width = 650;
}
);
unicode = 0038;
},
{
glyphname = nine;
lastChange = "2022-01-14 06:54:36 +0000";
layers = (
{
background = {
paths = (
{
closed = 1;
nodes = (
"497 0 OFFCURVE",
"590 104 OFFCURVE",
"590 373 CURVE SMOOTH",
"590 603 OFFCURVE",
"499 712 OFFCURVE",
"306 712 CURVE SMOOTH",
"302 712 OFFCURVE",
"299 712 OFFCURVE",
"299 712 CURVE SMOOTH",
"132 712 OFFCURVE",
"30 599 OFFCURVE",
"30 451 CURVE SMOOTH",
"30 327 OFFCURVE",
"78 245 OFFCURVE",
"199 242 CURVE SMOOTH",
"202 242 OFFCURVE",
"204 242 OFFCURVE",
"207 242 CURVE SMOOTH",
"292 242 OFFCURVE",
"352 259 OFFCURVE",
"434 283 CURVE",
"429 170 OFFCURVE",
"388 105 OFFCURVE",
"340 68 CURVE SMOOTH",
"300 37 OFFCURVE",
"246 20 OFFCURVE",
"161 20 CURVE SMOOTH",
"124 20 OFFCURVE",
"74 20 OFFCURVE",
"57 20 CURVE",
"57 10 OFFCURVE",
"57 8 OFFCURVE",
"57 0 CURVE",
"96 0 OFFCURVE",
"157 0 OFFCURVE",
"226 0 CURVE SMOOTH"
);
},
{
closed = 1;
nodes = (
"399 571 OFFCURVE",
"433 497 OFFCURVE",
"433 395 CURVE SMOOTH",
"433 393 OFFCURVE",
"433 392 OFFCURVE",
"433 390 CURVE SMOOTH",
"433 365 OFFCURVE",
"434 329 OFFCURVE",
"434 303 CURVE",
"365 285 OFFCURVE",
"341 280 OFFCURVE",
"318 280 CURVE SMOOTH",
"293 280 OFFCURVE",
"261 283 OFFCURVE",
"232 310 CURVE SMOOTH",
"212 329 OFFCURVE",
"191 362 OFFCURVE",
"191 429 CURVE SMOOTH",
"191 533 OFFCURVE",
"253 569 OFFCURVE",
"306 570 CURVE SMOOTH"
);
}
);
};
layerId = "116FA8D2-93BA-48BE-A336-ADFD733FF7C5";
paths = (
{
closed = 1;
nodes = (
"497 0 OFFCURVE",
"590 104 OFFCURVE",
"590 373 CURVE SMOOTH",
"590 603 OFFCURVE",
"499 712 OFFCURVE",
"306 712 CURVE SMOOTH",
"302 712 OFFCURVE",
"299 712 OFFCURVE",
"299 712 CURVE SMOOTH",
"132 712 OFFCURVE",
"30 599 OFFCURVE",
"30 451 CURVE SMOOTH",
"30 327 OFFCURVE",
"78 245 OFFCURVE",
"199 242 CURVE SMOOTH",
"202 242 OFFCURVE",
"204 242 OFFCURVE",
"207 242 CURVE SMOOTH",
"292 242 OFFCURVE",
"352 259 OFFCURVE",
"434 283 CURVE",
"429 170 OFFCURVE",
"388 105 OFFCURVE",
"340 68 CURVE SMOOTH",
"300 37 OFFCURVE",
"246 20 OFFCURVE",
"161 20 CURVE SMOOTH",
"124 20 OFFCURVE",
"74 20 OFFCURVE",
"57 20 CURVE",
"57 10 OFFCURVE",
"57 8 OFFCURVE",
"57 0 CURVE",
"96 0 OFFCURVE",
"157 0 OFFCURVE",
"226 0 CURVE SMOOTH"
);
},
{
closed = 1;
nodes = (
"399 571 OFFCURVE",
"433 497 OFFCURVE",
"433 395 CURVE SMOOTH",
"433 393 OFFCURVE",
"433 392 OFFCURVE",
"433 390 CURVE SMOOTH",
"433 365 OFFCURVE",
"434 329 OFFCURVE",
"434 303 CURVE",
"365 285 OFFCURVE",
"341 280 OFFCURVE",
"318 280 CURVE SMOOTH",
"293 280 OFFCURVE",
"261 283 OFFCURVE",
"232 310 CURVE SMOOTH",
"212 329 OFFCURVE",
"191 362 OFFCURVE",
"191 429 CURVE SMOOTH",
"191 533 OFFCURVE",
"253 569 OFFCURVE",
"306 570 CURVE SMOOTH"
);
}
);
width = 640;
},
{
background = {
paths = (
{
closed = 1;
nodes = (
"422 0 OFFCURVE",
"601 189 OFFCURVE",
"601 396 CURVE SMOOTH",
"601 570 OFFCURVE",
"507 700 OFFCURVE",
"315 700 CURVE SMOOTH",
"295 700 OFFCURVE",
"276 700 OFFCURVE",
"256 700 CURVE SMOOTH",
"115 700 OFFCURVE",
"0 593 OFFCURVE",
"0 443 CURVE SMOOTH",
"0 306 OFFCURVE",
"112 262 OFFCURVE",
"163 262 CURVE SMOOTH",
"168 262 OFFCURVE",
"177 262 OFFCURVE",
"177 262 CURVE",
"158 224 OFFCURVE",
"95 112 OFFCURVE",
"98 65 CURVE",
"98 65 OFFCURVE",
"98 65 OFFCURVE",
"98 65 CURVE",
"98 65 OFFCURVE",
"98 65 OFFCURVE",
"98 65 CURVE",
"98 65 OFFCURVE",
"98 65 OFFCURVE",
"98 65 CURVE",
"98 65 OFFCURVE",
"98 72 OFFCURVE",
"98 65 CURVE SMOOTH",
"98 17 OFFCURVE",
"109 0 OFFCURVE",
"208 0 CURVE SMOOTH"
);
},
{
closed = 1;
nodes = (
"283 455 OFFCURVE",
"382 410 OFFCURVE",
"409 398 CURVE SMOOTH",
"414 396 OFFCURVE",
"416 395 OFFCURVE",
"416 395 CURVE",
"400 364 OFFCURVE",
"379 337 OFFCURVE",
"352 315 CURVE SMOOTH",
"340 306 OFFCURVE",
"326 297 OFFCURVE",
"311 290 CURVE SMOOTH",
"276 273 OFFCURVE",
"232 263 OFFCURVE",
"177 262 CURVE",
"179 266 OFFCURVE",
"213 328 OFFCURVE",
"242 381 CURVE SMOOTH",
"264 421 OFFCURVE",
"283 455 OFFCURVE",
"283 455 CURVE SMOOTH"
);
}
);
};
layerId = "35B903E1-0971-4EA2-AC4E-2C87C1F50A16";
paths = (
{
closed = 1;
nodes = (
"422 0 OFFCURVE",
"601 189 OFFCURVE",
"601 396 CURVE SMOOTH",
"601 570 OFFCURVE",
"507 700 OFFCURVE",
"315 700 CURVE SMOOTH",
"295 700 OFFCURVE",
"276 700 OFFCURVE",
"256 700 CURVE SMOOTH",
"115 700 OFFCURVE",
"0 593 OFFCURVE",
"0 443 CURVE SMOOTH",
"0 306 OFFCURVE",
"112 262 OFFCURVE",
"163 262 CURVE SMOOTH",
"168 262 OFFCURVE",
"177 262 OFFCURVE",
"177 262 CURVE",
"158 224 OFFCURVE",
"95 112 OFFCURVE",
"98 65 CURVE",
"98 65 OFFCURVE",
"98 65 OFFCURVE",
"98 65 CURVE",
"98 65 OFFCURVE",
"98 65 OFFCURVE",
"98 65 CURVE",
"98 65 OFFCURVE",
"98 65 OFFCURVE",
"98 65 CURVE",
"98 65 OFFCURVE",
"98 72 OFFCURVE",
"98 65 CURVE SMOOTH",
"98 17 OFFCURVE",
"109 0 OFFCURVE",
"208 0 CURVE SMOOTH"
);
},
{
closed = 1;
nodes = (
"283 455 OFFCURVE",
"382 410 OFFCURVE",
"409 398 CURVE SMOOTH",
"414 396 OFFCURVE",
"416 395 OFFCURVE",
"416 395 CURVE",
"400 364 OFFCURVE",
"379 337 OFFCURVE",
"352 315 CURVE SMOOTH",
"340 306 OFFCURVE",
"326 297 OFFCURVE",
"311 290 CURVE SMOOTH",
"276 273 OFFCURVE",
"232 263 OFFCURVE",
"177 262 CURVE",
"179 266 OFFCURVE",
"213 328 OFFCURVE",
"242 381 CURVE SMOOTH",
"264 421 OFFCURVE",
"283 455 OFFCURVE",
"283 455 CURVE SMOOTH"
);
}
);
width = 606;
}
);
unicode = 0039;
},
{
glyphname = period;
lastChange = "2022-01-14 06:54:36 +0000";
layers = (
{
background = {
paths = (
{
closed = 1;
nodes = (
"70 22 OFFCURVE",
"103 -12 OFFCURVE",
"152 -12 CURVE SMOOTH",
"199 -12 OFFCURVE",
"234 22 OFFCURVE",
"234 71 CURVE SMOOTH",
"234 121 OFFCURVE",
"199 155 OFFCURVE",
"152 155 CURVE SMOOTH",
"103 155 OFFCURVE",
"70 121 OFFCURVE",
"70 71 CURVE SMOOTH"
);
}
);
};
layerId = "116FA8D2-93BA-48BE-A336-ADFD733FF7C5";
paths = (
{
closed = 1;
nodes = (
"70 22 OFFCURVE",
"103 -12 OFFCURVE",
"152 -12 CURVE SMOOTH",
"199 -12 OFFCURVE",
"234 22 OFFCURVE",
"234 71 CURVE SMOOTH",
"234 121 OFFCURVE",
"199 155 OFFCURVE",
"152 155 CURVE SMOOTH",
"103 155 OFFCURVE",
"70 121 OFFCURVE",
"70 71 CURVE SMOOTH"
);
}
);
width = 304;
},
{
background = {
paths = (
{
closed = 1;
nodes = (
"29 20 OFFCURVE",
"61 -10 OFFCURVE",
"138 -4 CURVE",
"174 -2 OFFCURVE",
"224 16 OFFCURVE",
"221 101 CURVE SMOOTH",
"218 167 OFFCURVE",
"185 197 OFFCURVE",
"108 191 CURVE SMOOTH",
"73 189 OFFCURVE",
"22 171 OFFCURVE",
"25 86 CURVE SMOOTH"
);
}
);
};
layerId = "35B903E1-0971-4EA2-AC4E-2C87C1F50A16";
paths = (
{
closed = 1;
nodes = (
"29 20 OFFCURVE",
"61 -10 OFFCURVE",
"138 -4 CURVE",
"174 -2 OFFCURVE",
"224 16 OFFCURVE",
"221 101 CURVE SMOOTH",
"218 167 OFFCURVE",
"185 197 OFFCURVE",
"108 191 CURVE SMOOTH",
"73 189 OFFCURVE",
"22 171 OFFCURVE",
"25 86 CURVE SMOOTH"
);
}
);
width = 246;
}
);
unicode = 002E;
},
{
glyphname = comma;
lastChange = "2022-01-14 06:54:36 +0000";
layers = (
{
background = {
paths = (
{
closed = 1;
nodes = (
"91 119 OFFCURVE",
"124 153 OFFCURVE",
"173 153 CURVE",
"173 153 OFFCURVE",
"173 153 OFFCURVE",
"173 153 CURVE",
"220 153 OFFCURVE",
"255 129 OFFCURVE",
"255 68 CURVE SMOOTH",
"255 34 OFFCURVE",
"238 7 OFFCURVE",
"206 -25 CURVE SMOOTH",
"187 -45 OFFCURVE",
"83 -148 OFFCURVE",
"83 -148 CURVE",
"83 -148 OFFCURVE",
"70 -137 OFFCURVE",
"70 -137 CURVE",
"70 -137 OFFCURVE",
"180 -28 OFFCURVE",
"196 -12 CURVE",
"137 -25 OFFCURVE",
"91 12 OFFCURVE",
"91 69 CURVE SMOOTH"
);
}
);
};
layerId = "116FA8D2-93BA-48BE-A336-ADFD733FF7C5";
paths = (
{
closed = 1;
nodes = (
"91 119 OFFCURVE",
"124 153 OFFCURVE",
"173 153 CURVE",
"173 153 OFFCURVE",
"173 153 OFFCURVE",
"173 153 CURVE",
"220 153 OFFCURVE",
"255 129 OFFCURVE",
"255 68 CURVE SMOOTH",
"255 34 OFFCURVE",
"238 7 OFFCURVE",
"206 -25 CURVE SMOOTH",
"187 -45 OFFCURVE",
"83 -148 OFFCURVE",
"83 -148 CURVE",
"83 -148 OFFCURVE",
"70 -137 OFFCURVE",
"70 -137 CURVE",
"70 -137 OFFCURVE",
"180 -28 OFFCURVE",
"196 -12 CURVE",
"137 -25 OFFCURVE",
"91 12 OFFCURVE",
"91 69 CURVE SMOOTH"
);
}
);
width = 325;
},
{
background = {
paths = (
{
closed = 1;
nodes = (
"25 165 OFFCURVE",
"61 191 OFFCURVE",
"116 191 CURVE SMOOTH",
"123 191 OFFCURVE",
"129 191 OFFCURVE",
"136 191 CURVE SMOOTH",
"203 191 OFFCURVE",
"220 137 OFFCURVE",
"220 100 CURVE SMOOTH",
"220 45 OFFCURVE",
"197 -17 OFFCURVE",
"159 -57 CURVE SMOOTH",
"135 -83 OFFCURVE",
"105 -100 OFFCURVE",
"72 -100 CURVE SMOOTH",
"51 -100 OFFCURVE",
"35 -90 OFFCURVE",
"35 -81 CURVE SMOOTH",
"35 -67 OFFCURVE",
"74 -18 OFFCURVE",
"88 0 CURVE",
"56 8 OFFCURVE",
"25 37 OFFCURVE",
"25 85 CURVE SMOOTH"
);
}
);
};
layerId = "35B903E1-0971-4EA2-AC4E-2C87C1F50A16";
paths = (
{
closed = 1;
nodes = (
"25 165 OFFCURVE",
"61 191 OFFCURVE",
"116 191 CURVE SMOOTH",
"123 191 OFFCURVE",
"129 191 OFFCURVE",
"136 191 CURVE SMOOTH",
"203 191 OFFCURVE",
"220 137 OFFCURVE",
"220 100 CURVE SMOOTH",
"220 45 OFFCURVE",
"197 -17 OFFCURVE",
"159 -57 CURVE SMOOTH",
"135 -83 OFFCURVE",
"105 -100 OFFCURVE",
"72 -100 CURVE SMOOTH",
"51 -100 OFFCURVE",
"35 -90 OFFCURVE",
"35 -81 CURVE SMOOTH",
"35 -67 OFFCURVE",
"74 -18 OFFCURVE",
"88 0 CURVE",
"56 8 OFFCURVE",
"25 37 OFFCURVE",
"25 85 CURVE SMOOTH"
);
}
);
width = 245;
}
);
unicode = 002C;
},
{
glyphname = colon;
lastChange = "2022-01-14 06:54:36 +0000";
layers = (
{
background = {
paths = (
{
closed = 1;
nodes = (
"73 379 OFFCURVE",
"106 345 OFFCURVE",
"155 345 CURVE SMOOTH",
"202 345 OFFCURVE",
"237 379 OFFCURVE",
"237 428 CURVE SMOOTH",
"237 478 OFFCURVE",
"202 512 OFFCURVE",
"155 512 CURVE SMOOTH",
"106 512 OFFCURVE",
"73 478 OFFCURVE",
"73 428 CURVE SMOOTH"
);
},
{
closed = 1;
nodes = (
"70 22 OFFCURVE",
"103 -12 OFFCURVE",
"152 -12 CURVE SMOOTH",
"199 -12 OFFCURVE",
"234 22 OFFCURVE",
"234 71 CURVE SMOOTH",
"234 121 OFFCURVE",
"199 155 OFFCURVE",
"152 155 CURVE SMOOTH",
"103 155 OFFCURVE",
"70 121 OFFCURVE",
"70 71 CURVE SMOOTH"
);
}
);
};
layerId = "116FA8D2-93BA-48BE-A336-ADFD733FF7C5";
paths = (
{
closed = 1;
nodes = (
"73 379 OFFCURVE",
"106 345 OFFCURVE",
"155 345 CURVE SMOOTH",
"202 345 OFFCURVE",
"237 379 OFFCURVE",
"237 428 CURVE SMOOTH",
"237 478 OFFCURVE",
"202 512 OFFCURVE",
"155 512 CURVE SMOOTH",
"106 512 OFFCURVE",
"73 478 OFFCURVE",
"73 428 CURVE SMOOTH"
);
},
{
closed = 1;
nodes = (
"70 22 OFFCURVE",
"103 -12 OFFCURVE",
"152 -12 CURVE SMOOTH",
"199 -12 OFFCURVE",
"234 22 OFFCURVE",
"234 71 CURVE SMOOTH",
"234 121 OFFCURVE",
"199 155 OFFCURVE",
"152 155 CURVE SMOOTH",
"103 155 OFFCURVE",
"70 121 OFFCURVE",
"70 71 CURVE SMOOTH"
);
}
);
width = 307;
},
{
background = {
paths = (
{
closed = 1;
nodes = (
"29 341 OFFCURVE",
"61 311 OFFCURVE",
"138 317 CURVE",
"174 319 OFFCURVE",
"224 337 OFFCURVE",
"221 422 CURVE SMOOTH",
"218 488 OFFCURVE",
"185 518 OFFCURVE",
"108 512 CURVE SMOOTH",
"73 510 OFFCURVE",
"22 492 OFFCURVE",
"25 407 CURVE SMOOTH"
);
},
{
closed = 1;
nodes = (
"29 20 OFFCURVE",
"61 -10 OFFCURVE",
"138 -4 CURVE",
"174 -2 OFFCURVE",
"224 16 OFFCURVE",
"221 101 CURVE SMOOTH",
"218 167 OFFCURVE",
"185 197 OFFCURVE",
"108 191 CURVE SMOOTH",
"73 189 OFFCURVE",
"22 171 OFFCURVE",
"25 86 CURVE SMOOTH"
);
}
);
};
layerId = "35B903E1-0971-4EA2-AC4E-2C87C1F50A16";
paths = (
{
closed = 1;
nodes = (
"29 341 OFFCURVE",
"61 311 OFFCURVE",
"138 317 CURVE",
"174 319 OFFCURVE",
"224 337 OFFCURVE",
"221 422 CURVE SMOOTH",
"218 488 OFFCURVE",
"185 518 OFFCURVE",
"108 512 CURVE SMOOTH",
"73 510 OFFCURVE",
"22 492 OFFCURVE",
"25 407 CURVE SMOOTH"
);
},
{
closed = 1;
nodes = (
"29 20 OFFCURVE",
"61 -10 OFFCURVE",
"138 -4 CURVE",
"174 -2 OFFCURVE",
"224 16 OFFCURVE",
"221 101 CURVE SMOOTH",
"218 167 OFFCURVE",
"185 197 OFFCURVE",
"108 191 CURVE SMOOTH",
"73 189 OFFCURVE",
"22 171 OFFCURVE",
"25 86 CURVE SMOOTH"
);
}
);
width = 246;
}
);
unicode = 003A;
},
{
glyphname = semicolon;
lastChange = "2022-01-14 06:54:36 +0000";
layers = (
{
background = {
paths = (
{
closed = 1;
nodes = (
"91 119 OFFCURVE",
"124 153 OFFCURVE",
"173 153 CURVE",
"173 153 OFFCURVE",
"173 153 OFFCURVE",
"173 153 CURVE",
"220 153 OFFCURVE",
"255 129 OFFCURVE",
"255 68 CURVE SMOOTH",
"255 34 OFFCURVE",
"238 7 OFFCURVE",
"206 -25 CURVE SMOOTH",
"187 -45 OFFCURVE",
"83 -148 OFFCURVE",
"83 -148 CURVE",
"83 -148 OFFCURVE",
"70 -137 OFFCURVE",
"70 -137 CURVE",
"70 -137 OFFCURVE",
"180 -28 OFFCURVE",
"196 -12 CURVE",
"137 -25 OFFCURVE",
"91 12 OFFCURVE",
"91 69 CURVE SMOOTH"
);
},
{
closed = 1;
nodes = (
"73 379 OFFCURVE",
"106 345 OFFCURVE",
"155 345 CURVE SMOOTH",
"202 345 OFFCURVE",
"237 379 OFFCURVE",
"237 428 CURVE SMOOTH",
"237 478 OFFCURVE",
"202 512 OFFCURVE",
"155 512 CURVE SMOOTH",
"106 512 OFFCURVE",
"73 478 OFFCURVE",
"73 428 CURVE SMOOTH"
);
}
);
};
layerId = "116FA8D2-93BA-48BE-A336-ADFD733FF7C5";
paths = (
{
closed = 1;
nodes = (
"91 119 OFFCURVE",
"124 153 OFFCURVE",
"173 153 CURVE",
"173 153 OFFCURVE",
"173 153 OFFCURVE",
"173 153 CURVE",
"220 153 OFFCURVE",
"255 129 OFFCURVE",
"255 68 CURVE SMOOTH",
"255 34 OFFCURVE",
"238 7 OFFCURVE",
"206 -25 CURVE SMOOTH",
"187 -45 OFFCURVE",
"83 -148 OFFCURVE",
"83 -148 CURVE",
"83 -148 OFFCURVE",
"70 -137 OFFCURVE",
"70 -137 CURVE",
"70 -137 OFFCURVE",
"180 -28 OFFCURVE",
"196 -12 CURVE",
"137 -25 OFFCURVE",
"91 12 OFFCURVE",
"91 69 CURVE SMOOTH"
);
},
{
closed = 1;
nodes = (
"73 379 OFFCURVE",
"106 345 OFFCURVE",
"155 345 CURVE SMOOTH",
"202 345 OFFCURVE",
"237 379 OFFCURVE",
"237 428 CURVE SMOOTH",
"237 478 OFFCURVE",
"202 512 OFFCURVE",
"155 512 CURVE SMOOTH",
"106 512 OFFCURVE",
"73 478 OFFCURVE",
"73 428 CURVE SMOOTH"
);
}
);
width = 320;
},
{
background = {
paths = (
{
closed = 1;
nodes = (
"25 165 OFFCURVE",
"61 191 OFFCURVE",
"116 191 CURVE SMOOTH",
"123 191 OFFCURVE",
"129 191 OFFCURVE",
"136 191 CURVE SMOOTH",
"203 191 OFFCURVE",
"220 137 OFFCURVE",
"220 100 CURVE SMOOTH",
"220 45 OFFCURVE",
"197 -17 OFFCURVE",
"159 -57 CURVE SMOOTH",
"135 -83 OFFCURVE",
"105 -100 OFFCURVE",
"72 -100 CURVE SMOOTH",
"51 -100 OFFCURVE",
"35 -90 OFFCURVE",
"35 -81 CURVE SMOOTH",
"35 -67 OFFCURVE",
"74 -18 OFFCURVE",
"88 0 CURVE",
"56 8 OFFCURVE",
"25 37 OFFCURVE",
"25 85 CURVE SMOOTH"
);
},
{
closed = 1;
nodes = (
"29 341 OFFCURVE",
"61 311 OFFCURVE",
"138 317 CURVE",
"174 319 OFFCURVE",
"224 337 OFFCURVE",
"221 422 CURVE SMOOTH",
"218 488 OFFCURVE",
"185 518 OFFCURVE",
"108 512 CURVE SMOOTH",
"73 510 OFFCURVE",
"22 492 OFFCURVE",
"25 407 CURVE SMOOTH"
);
}
);
};
layerId = "35B903E1-0971-4EA2-AC4E-2C87C1F50A16";
paths = (
{
closed = 1;
nodes = (
"25 165 OFFCURVE",
"61 191 OFFCURVE",
"116 191 CURVE SMOOTH",
"123 191 OFFCURVE",
"129 191 OFFCURVE",
"136 191 CURVE SMOOTH",
"203 191 OFFCURVE",
"220 137 OFFCURVE",
"220 100 CURVE SMOOTH",
"220 45 OFFCURVE",
"197 -17 OFFCURVE",
"159 -57 CURVE SMOOTH",
"135 -83 OFFCURVE",
"105 -100 OFFCURVE",
"72 -100 CURVE SMOOTH",
"51 -100 OFFCURVE",
"35 -90 OFFCURVE",
"35 -81 CURVE SMOOTH",
"35 -67 OFFCURVE",
"74 -18 OFFCURVE",
"88 0 CURVE",
"56 8 OFFCURVE",
"25 37 OFFCURVE",
"25 85 CURVE SMOOTH"
);
},
{
closed = 1;
nodes = (
"29 341 OFFCURVE",
"61 311 OFFCURVE",
"138 317 CURVE",
"174 319 OFFCURVE",
"224 337 OFFCURVE",
"221 422 CURVE SMOOTH",
"218 488 OFFCURVE",
"185 518 OFFCURVE",
"108 512 CURVE SMOOTH",
"73 510 OFFCURVE",
"22 492 OFFCURVE",
"25 407 CURVE SMOOTH"
);
}
);
width = 246;
}
);
unicode = 003B;
},
{
glyphname = exclam;
lastChange = "2022-01-14 06:54:36 +0000";
layers = (
{
background = {
paths = (
{
closed = 1;
nodes = (
"80 700 OFFCURVE",
"274 700 OFFCURVE",
"274 700 CURVE",
"274 700 OFFCURVE",
"274 680 OFFCURVE",
"274 680 CURVE",
"274 680 OFFCURVE",
"207 200 OFFCURVE",
"207 200 CURVE",
"207 200 OFFCURVE",
"207 200 OFFCURVE",
"207 200 CURVE",
"207 200 OFFCURVE",
"147 200 OFFCURVE",
"147 200 CURVE",
"147 200 OFFCURVE",
"147 200 OFFCURVE",
"147 200 CURVE",
"147 200 OFFCURVE",
"80 680 OFFCURVE",
"80 680 CURVE",
"80 680 OFFCURVE",
"80 700 OFFCURVE",
"80 700 CURVE"
);
},
{
closed = 1;
nodes = (
"95 22 OFFCURVE",
"128 -12 OFFCURVE",
"177 -12 CURVE SMOOTH",
"224 -12 OFFCURVE",
"259 22 OFFCURVE",
"259 71 CURVE SMOOTH",
"259 121 OFFCURVE",
"224 155 OFFCURVE",
"177 155 CURVE SMOOTH",
"128 155 OFFCURVE",
"95 121 OFFCURVE",
"95 71 CURVE SMOOTH"
);
}
);
};
layerId = "116FA8D2-93BA-48BE-A336-ADFD733FF7C5";
paths = (
{
closed = 1;
nodes = (
"80 700 OFFCURVE",
"274 700 OFFCURVE",
"274 700 CURVE",
"274 700 OFFCURVE",
"274 680 OFFCURVE",
"274 680 CURVE",
"274 680 OFFCURVE",
"207 200 OFFCURVE",
"207 200 CURVE",
"207 200 OFFCURVE",
"207 200 OFFCURVE",
"207 200 CURVE",
"207 200 OFFCURVE",
"147 200 OFFCURVE",
"147 200 CURVE",
"147 200 OFFCURVE",
"147 200 OFFCURVE",
"147 200 CURVE",
"147 200 OFFCURVE",
"80 680 OFFCURVE",
"80 680 CURVE",
"80 680 OFFCURVE",
"80 700 OFFCURVE",
"80 700 CURVE"
);
},
{
closed = 1;
nodes = (
"95 22 OFFCURVE",
"128 -12 OFFCURVE",
"177 -12 CURVE SMOOTH",
"224 -12 OFFCURVE",
"259 22 OFFCURVE",
"259 71 CURVE SMOOTH",
"259 121 OFFCURVE",
"224 155 OFFCURVE",
"177 155 CURVE SMOOTH",
"128 155 OFFCURVE",
"95 121 OFFCURVE",
"95 71 CURVE SMOOTH"
);
}
);
width = 354;
},
{
background = {
paths = (
{
closed = 1;
nodes = (
"156 700 OFFCURVE",
"162 700 OFFCURVE",
"167 700 CURVE",
"266 700 OFFCURVE",
"293 675 OFFCURVE",
"293 592 CURVE SMOOTH",
"293 511 OFFCURVE",
"284 471 OFFCURVE",
"284 420 CURVE SMOOTH",
"284 379 OFFCURVE",
"266 230 OFFCURVE",
"167 230 CURVE",
"162 230 OFFCURVE",
"156 230 OFFCURVE",
"151 230 CURVE",
"52 230 OFFCURVE",
"34 379 OFFCURVE",
"34 420 CURVE SMOOTH",
"34 471 OFFCURVE",
"25 511 OFFCURVE",
"25 592 CURVE SMOOTH",
"25 675 OFFCURVE",
"52 700 OFFCURVE",
"151 700 CURVE"
);
},
{
closed = 1;
nodes = (
"65 20 OFFCURVE",
"97 -10 OFFCURVE",
"174 -4 CURVE",
"210 -2 OFFCURVE",
"260 16 OFFCURVE",
"257 101 CURVE SMOOTH",
"254 167 OFFCURVE",
"221 197 OFFCURVE",
"144 191 CURVE SMOOTH",
"109 189 OFFCURVE",
"58 171 OFFCURVE",
"61 86 CURVE SMOOTH"
);
}
);
};
layerId = "35B903E1-0971-4EA2-AC4E-2C87C1F50A16";
paths = (
{
closed = 1;
nodes = (
"156 700 OFFCURVE",
"162 700 OFFCURVE",
"167 700 CURVE",
"266 700 OFFCURVE",
"293 675 OFFCURVE",
"293 592 CURVE SMOOTH",
"293 511 OFFCURVE",
"284 471 OFFCURVE",
"284 420 CURVE SMOOTH",
"284 379 OFFCURVE",
"266 230 OFFCURVE",
"167 230 CURVE",
"162 230 OFFCURVE",
"156 230 OFFCURVE",
"151 230 CURVE",
"52 230 OFFCURVE",
"34 379 OFFCURVE",
"34 420 CURVE SMOOTH",
"34 471 OFFCURVE",
"25 511 OFFCURVE",
"25 592 CURVE SMOOTH",
"25 675 OFFCURVE",
"52 700 OFFCURVE",
"151 700 CURVE"
);
},
{
closed = 1;
nodes = (
"65 20 OFFCURVE",
"97 -10 OFFCURVE",
"174 -4 CURVE",
"210 -2 OFFCURVE",
"260 16 OFFCURVE",
"257 101 CURVE SMOOTH",
"254 167 OFFCURVE",
"221 197 OFFCURVE",
"144 191 CURVE SMOOTH",
"109 189 OFFCURVE",
"58 171 OFFCURVE",
"61 86 CURVE SMOOTH"
);
}
);
width = 318;
}
);
unicode = 0021;
},
{
glyphname = exclamdown;
lastChange = "2022-01-14 06:54:36 +0000";
layers = (
{
background = {
paths = (
{
closed = 1;
nodes = (
"80 -176 OFFCURVE",
"80 -156 OFFCURVE",
"80 -156 CURVE",
"80 -156 OFFCURVE",
"147 324 OFFCURVE",
"147 324 CURVE",
"147 324 OFFCURVE",
"147 324 OFFCURVE",
"147 324 CURVE",
"147 324 OFFCURVE",
"207 324 OFFCURVE",
"207 324 CURVE",
"207 324 OFFCURVE",
"207 324 OFFCURVE",
"207 324 CURVE",
"207 324 OFFCURVE",
"274 -156 OFFCURVE",
"274 -156 CURVE",
"274 -156 OFFCURVE",
"274 -176 OFFCURVE",
"274 -176 CURVE",
"274 -176 OFFCURVE",
"80 -176 OFFCURVE",
"80 -176 CURVE"
);
},
{
closed = 1;
nodes = (
"95 403 OFFCURVE",
"128 369 OFFCURVE",
"177 369 CURVE SMOOTH",
"224 369 OFFCURVE",
"259 403 OFFCURVE",
"259 453 CURVE SMOOTH",
"259 502 OFFCURVE",
"224 536 OFFCURVE",
"177 536 CURVE SMOOTH",
"128 536 OFFCURVE",
"95 502 OFFCURVE",
"95 453 CURVE SMOOTH"
);
}
);
};
layerId = "116FA8D2-93BA-48BE-A336-ADFD733FF7C5";
paths = (
{
closed = 1;
nodes = (
"80 -176 OFFCURVE",
"80 -156 OFFCURVE",
"80 -156 CURVE",
"80 -156 OFFCURVE",
"147 324 OFFCURVE",
"147 324 CURVE",
"147 324 OFFCURVE",
"147 324 OFFCURVE",
"147 324 CURVE",
"147 324 OFFCURVE",
"207 324 OFFCURVE",
"207 324 CURVE",
"207 324 OFFCURVE",
"207 324 OFFCURVE",
"207 324 CURVE",
"207 324 OFFCURVE",
"274 -156 OFFCURVE",
"274 -156 CURVE",
"274 -156 OFFCURVE",
"274 -176 OFFCURVE",
"274 -176 CURVE",
"274 -176 OFFCURVE",
"80 -176 OFFCURVE",
"80 -176 CURVE"
);
},
{
closed = 1;
nodes = (
"95 403 OFFCURVE",
"128 369 OFFCURVE",
"177 369 CURVE SMOOTH",
"224 369 OFFCURVE",
"259 403 OFFCURVE",
"259 453 CURVE SMOOTH",
"259 502 OFFCURVE",
"224 536 OFFCURVE",
"177 536 CURVE SMOOTH",
"128 536 OFFCURVE",
"95 502 OFFCURVE",
"95 453 CURVE SMOOTH"
);
}
);
width = 354;
},
{
background = {
paths = (
{
closed = 1;
nodes = (
"52 -200 OFFCURVE",
"25 -175 OFFCURVE",
"25 -92 CURVE SMOOTH",
"25 -11 OFFCURVE",
"34 29 OFFCURVE",
"34 80 CURVE SMOOTH",
"34 121 OFFCURVE",
"52 270 OFFCURVE",
"151 270 CURVE",
"156 270 OFFCURVE",
"162 270 OFFCURVE",
"167 270 CURVE",
"266 270 OFFCURVE",
"284 121 OFFCURVE",
"284 80 CURVE SMOOTH",
"284 29 OFFCURVE",
"293 -11 OFFCURVE",
"293 -92 CURVE SMOOTH",
"293 -175 OFFCURVE",
"266 -200 OFFCURVE",
"167 -200 CURVE",
"162 -200 OFFCURVE",
"156 -200 OFFCURVE",
"151 -200 CURVE"
);
},
{
closed = 1;
nodes = (
"58 329 OFFCURVE",
"109 311 OFFCURVE",
"144 309 CURVE SMOOTH",
"221 303 OFFCURVE",
"254 333 OFFCURVE",
"257 399 CURVE SMOOTH",
"260 484 OFFCURVE",
"210 502 OFFCURVE",
"174 504 CURVE",
"97 510 OFFCURVE",
"65 480 OFFCURVE",
"61 414 CURVE SMOOTH"
);
}
);
};
layerId = "35B903E1-0971-4EA2-AC4E-2C87C1F50A16";
paths = (
{
closed = 1;
nodes = (
"52 -200 OFFCURVE",
"25 -175 OFFCURVE",
"25 -92 CURVE SMOOTH",
"25 -11 OFFCURVE",
"34 29 OFFCURVE",
"34 80 CURVE SMOOTH",
"34 121 OFFCURVE",
"52 270 OFFCURVE",
"151 270 CURVE",
"156 270 OFFCURVE",
"162 270 OFFCURVE",
"167 270 CURVE",
"266 270 OFFCURVE",
"284 121 OFFCURVE",
"284 80 CURVE SMOOTH",
"284 29 OFFCURVE",
"293 -11 OFFCURVE",
"293 -92 CURVE SMOOTH",
"293 -175 OFFCURVE",
"266 -200 OFFCURVE",
"167 -200 CURVE",
"162 -200 OFFCURVE",
"156 -200 OFFCURVE",
"151 -200 CURVE"
);
},
{
closed = 1;
nodes = (
"58 329 OFFCURVE",
"109 311 OFFCURVE",
"144 309 CURVE SMOOTH",
"221 303 OFFCURVE",
"254 333 OFFCURVE",
"257 399 CURVE SMOOTH",
"260 484 OFFCURVE",
"210 502 OFFCURVE",
"174 504 CURVE",
"97 510 OFFCURVE",
"65 480 OFFCURVE",
"61 414 CURVE SMOOTH"
);
}
);
width = 318;
}
);
unicode = 00A1;
},
{
glyphname = question;
lastChange = "2022-01-14 06:54:36 +0000";
layers = (
{
background = {
paths = (
{
closed = 1;
nodes = (
"39 506 OFFCURVE",
"39 452 OFFCURVE",
"39 430 CURVE",
"49 430 OFFCURVE",
"52 430 OFFCURVE",
"61 430 CURVE",
"61 437 OFFCURVE",
"61 441 OFFCURVE",
"61 448 CURVE SMOOTH",
"61 537 OFFCURVE",
"117 566 OFFCURVE",
"220 566 CURVE SMOOTH",
"345 566 OFFCURVE",
"392 529 OFFCURVE",
"392 467 CURVE SMOOTH",
"392 432 OFFCURVE",
"377 396 OFFCURVE",
"346 377 CURVE SMOOTH",
"293 345 OFFCURVE",
"241 313 OFFCURVE",
"188 281 CURVE",
"188 262 OFFCURVE",
"188 212 OFFCURVE",
"188 200 CURVE",
"216 200 OFFCURVE",
"276 200 OFFCURVE",
"328 200 CURVE",
"328 212 OFFCURVE",
"328 334 OFFCURVE",
"328 345 CURVE",
"340 351 OFFCURVE",
"422 403 OFFCURVE",
"430 410 CURVE",
"494 451 OFFCURVE",
"522 493 OFFCURVE",
"522 551 CURVE SMOOTH",
"522 639 OFFCURVE",
"438 712 OFFCURVE",
"278 712 CURVE SMOOTH",
"278 712 OFFCURVE",
"278 712 OFFCURVE",
"278 712 CURVE SMOOTH",
"113 712 OFFCURVE",
"39 656 OFFCURVE",
"39 520 CURVE SMOOTH"
);
},
{
closed = 1;
nodes = (
"178 22 OFFCURVE",
"211 -12 OFFCURVE",
"260 -12 CURVE SMOOTH",
"307 -12 OFFCURVE",
"342 22 OFFCURVE",
"342 71 CURVE SMOOTH",
"342 121 OFFCURVE",
"307 155 OFFCURVE",
"260 155 CURVE SMOOTH",
"211 155 OFFCURVE",
"178 121 OFFCURVE",
"178 71 CURVE SMOOTH"
);
}
);
};
layerId = "116FA8D2-93BA-48BE-A336-ADFD733FF7C5";
paths = (
{
closed = 1;
nodes = (
"39 506 OFFCURVE",
"39 452 OFFCURVE",
"39 430 CURVE",
"49 430 OFFCURVE",
"52 430 OFFCURVE",
"61 430 CURVE",
"61 437 OFFCURVE",
"61 441 OFFCURVE",
"61 448 CURVE SMOOTH",
"61 537 OFFCURVE",
"117 566 OFFCURVE",
"220 566 CURVE SMOOTH",
"345 566 OFFCURVE",
"392 529 OFFCURVE",
"392 467 CURVE SMOOTH",
"392 432 OFFCURVE",
"377 396 OFFCURVE",
"346 377 CURVE SMOOTH",
"293 345 OFFCURVE",
"241 313 OFFCURVE",
"188 281 CURVE",
"188 262 OFFCURVE",
"188 212 OFFCURVE",
"188 200 CURVE",
"216 200 OFFCURVE",
"276 200 OFFCURVE",
"328 200 CURVE",
"328 212 OFFCURVE",
"328 334 OFFCURVE",
"328 345 CURVE",
"340 351 OFFCURVE",
"422 403 OFFCURVE",
"430 410 CURVE",
"494 451 OFFCURVE",
"522 493 OFFCURVE",
"522 551 CURVE SMOOTH",
"522 639 OFFCURVE",
"438 712 OFFCURVE",
"278 712 CURVE SMOOTH",
"278 712 OFFCURVE",
"278 712 OFFCURVE",
"278 712 CURVE SMOOTH",
"113 712 OFFCURVE",
"39 656 OFFCURVE",
"39 520 CURVE SMOOTH"
);
},
{
closed = 1;
nodes = (
"178 22 OFFCURVE",
"211 -12 OFFCURVE",
"260 -12 CURVE SMOOTH",
"307 -12 OFFCURVE",
"342 22 OFFCURVE",
"342 71 CURVE SMOOTH",
"342 121 OFFCURVE",
"307 155 OFFCURVE",
"260 155 CURVE SMOOTH",
"211 155 OFFCURVE",
"178 121 OFFCURVE",
"178 71 CURVE SMOOTH"
);
}
);
width = 547;
},
{
background = {
paths = (
{
closed = 1;
nodes = (
"35 419 OFFCURVE",
"80 358 OFFCURVE",
"168 358 CURVE SMOOTH",
"180 358 OFFCURVE",
"204 359 OFFCURVE",
"218 362 CURVE",
"218 366 OFFCURVE",
"208 370 OFFCURVE",
"208 375 CURVE SMOOTH",
"211 446 OFFCURVE",
"234 496 OFFCURVE",
"308 523 CURVE",
"319 469 OFFCURVE",
"331 416 OFFCURVE",
"342 362 CURVE",
"297 362 OFFCURVE",
"252 362 OFFCURVE",
"207 362 CURVE",
"207 339 OFFCURVE",
"211 315 OFFCURVE",
"218 293 CURVE SMOOTH",
"224 272 OFFCURVE",
"234 254 OFFCURVE",
"247 241 CURVE SMOOTH",
"258 230 OFFCURVE",
"271 223 OFFCURVE",
"287 223 CURVE",
"324 222 OFFCURVE",
"360 229 OFFCURVE",
"393 243 CURVE SMOOTH",
"435 260 OFFCURVE",
"472 288 OFFCURVE",
"500 324 CURVE SMOOTH",
"533 366 OFFCURVE",
"552 418 OFFCURVE",
"553 475 CURVE SMOOTH",
"553 589 OFFCURVE",
"456 700 OFFCURVE",
"325 700 CURVE SMOOTH",
"315 700 OFFCURVE",
"316 700 OFFCURVE",
"306 700 CURVE SMOOTH",
"129 700 OFFCURVE",
"35 606 OFFCURVE",
"35 489 CURVE SMOOTH"
);
},
{
closed = 1;
nodes = (
"191 20 OFFCURVE",
"223 -10 OFFCURVE",
"300 -4 CURVE",
"336 -2 OFFCURVE",
"386 16 OFFCURVE",
"383 101 CURVE SMOOTH",
"380 167 OFFCURVE",
"347 197 OFFCURVE",
"270 191 CURVE SMOOTH",
"235 189 OFFCURVE",
"184 171 OFFCURVE",
"187 86 CURVE SMOOTH"
);
}
);
};
layerId = "35B903E1-0971-4EA2-AC4E-2C87C1F50A16";
paths = (
{
closed = 1;
nodes = (
"35 419 OFFCURVE",
"80 358 OFFCURVE",
"168 358 CURVE SMOOTH",
"180 358 OFFCURVE",
"204 359 OFFCURVE",
"218 362 CURVE",
"218 366 OFFCURVE",
"208 370 OFFCURVE",
"208 375 CURVE SMOOTH",
"211 446 OFFCURVE",
"234 496 OFFCURVE",
"308 523 CURVE",
"319 469 OFFCURVE",
"331 416 OFFCURVE",
"342 362 CURVE",
"297 362 OFFCURVE",
"252 362 OFFCURVE",
"207 362 CURVE",
"207 339 OFFCURVE",
"211 315 OFFCURVE",
"218 293 CURVE SMOOTH",
"224 272 OFFCURVE",
"234 254 OFFCURVE",
"247 241 CURVE SMOOTH",
"258 230 OFFCURVE",
"271 223 OFFCURVE",
"287 223 CURVE",
"324 222 OFFCURVE",
"360 229 OFFCURVE",
"393 243 CURVE SMOOTH",
"435 260 OFFCURVE",
"472 288 OFFCURVE",
"500 324 CURVE SMOOTH",
"533 366 OFFCURVE",
"552 418 OFFCURVE",
"553 475 CURVE SMOOTH",
"553 589 OFFCURVE",
"456 700 OFFCURVE",
"325 700 CURVE SMOOTH",
"315 700 OFFCURVE",
"316 700 OFFCURVE",
"306 700 CURVE SMOOTH",
"129 700 OFFCURVE",
"35 606 OFFCURVE",
"35 489 CURVE SMOOTH"
);
},
{
closed = 1;
nodes = (
"191 20 OFFCURVE",
"223 -10 OFFCURVE",
"300 -4 CURVE",
"336 -2 OFFCURVE",
"386 16 OFFCURVE",
"383 101 CURVE SMOOTH",
"380 167 OFFCURVE",
"347 197 OFFCURVE",
"270 191 CURVE SMOOTH",
"235 189 OFFCURVE",
"184 171 OFFCURVE",
"187 86 CURVE SMOOTH"
);
}
);
width = 558;
}
);
unicode = 003F;
},
{
glyphname = questiondown;
lastChange = "2022-01-14 06:54:36 +0000";
layers = (
{
background = {
paths = (
{
closed = 1;
nodes = (
"557 18 OFFCURVE",
"555 72 OFFCURVE",
"555 94 CURVE",
"547 94 OFFCURVE",
"540 94 OFFCURVE",
"531 94 CURVE",
"531 87 OFFCURVE",
"531 83 OFFCURVE",
"531 76 CURVE SMOOTH",
"531 -13 OFFCURVE",
"475 -39 OFFCURVE",
"372 -41 CURVE SMOOTH",
"247 -43 OFFCURVE",
"200 -5 OFFCURVE",
"200 57 CURVE SMOOTH",
"200 92 OFFCURVE",
"215 128 OFFCURVE",
"246 147 CURVE SMOOTH",
"299 179 OFFCURVE",
"351 211 OFFCURVE",
"404 243 CURVE",
"404 262 OFFCURVE",
"404 312 OFFCURVE",
"404 324 CURVE",
"376 324 OFFCURVE",
"316 324 OFFCURVE",
"264 324 CURVE",
"264 312 OFFCURVE",
"264 190 OFFCURVE",
"264 179 CURVE",
"252 173 OFFCURVE",
"170 121 OFFCURVE",
"162 114 CURVE",
"98 73 OFFCURVE",
"70 31 OFFCURVE",
"70 -27 CURVE SMOOTH",
"70 -115 OFFCURVE",
"154 -188 OFFCURVE",
"314 -188 CURVE SMOOTH",
"314 -188 OFFCURVE",
"314 -188 OFFCURVE",
"314 -188 CURVE SMOOTH",
"479 -188 OFFCURVE",
"560 -132 OFFCURVE",
"557 4 CURVE SMOOTH"
);
},
{
closed = 1;
nodes = (
"414 502 OFFCURVE",
"381 536 OFFCURVE",
"332 536 CURVE SMOOTH",
"285 536 OFFCURVE",
"250 502 OFFCURVE",
"250 453 CURVE SMOOTH",
"250 403 OFFCURVE",
"285 369 OFFCURVE",
"332 369 CURVE SMOOTH",
"381 369 OFFCURVE",
"414 403 OFFCURVE",
"414 453 CURVE SMOOTH"
);
}
);
};
layerId = "116FA8D2-93BA-48BE-A336-ADFD733FF7C5";
paths = (
{
closed = 1;
nodes = (
"557 18 OFFCURVE",
"555 72 OFFCURVE",
"555 94 CURVE",
"547 94 OFFCURVE",
"540 94 OFFCURVE",
"531 94 CURVE",
"531 87 OFFCURVE",
"531 83 OFFCURVE",
"531 76 CURVE SMOOTH",
"531 -13 OFFCURVE",
"475 -39 OFFCURVE",
"372 -41 CURVE SMOOTH",
"247 -43 OFFCURVE",
"200 -5 OFFCURVE",
"200 57 CURVE SMOOTH",
"200 92 OFFCURVE",
"215 128 OFFCURVE",
"246 147 CURVE SMOOTH",
"299 179 OFFCURVE",
"351 211 OFFCURVE",
"404 243 CURVE",
"404 262 OFFCURVE",
"404 312 OFFCURVE",
"404 324 CURVE",
"376 324 OFFCURVE",
"316 324 OFFCURVE",
"264 324 CURVE",
"264 312 OFFCURVE",
"264 190 OFFCURVE",
"264 179 CURVE",
"252 173 OFFCURVE",
"170 121 OFFCURVE",
"162 114 CURVE",
"98 73 OFFCURVE",
"70 31 OFFCURVE",
"70 -27 CURVE SMOOTH",
"70 -115 OFFCURVE",
"154 -188 OFFCURVE",
"314 -188 CURVE SMOOTH",
"314 -188 OFFCURVE",
"314 -188 OFFCURVE",
"314 -188 CURVE SMOOTH",
"479 -188 OFFCURVE",
"560 -132 OFFCURVE",
"557 4 CURVE SMOOTH"
);
},
{
closed = 1;
nodes = (
"414 502 OFFCURVE",
"381 536 OFFCURVE",
"332 536 CURVE SMOOTH",
"285 536 OFFCURVE",
"250 502 OFFCURVE",
"250 453 CURVE SMOOTH",
"250 403 OFFCURVE",
"285 369 OFFCURVE",
"332 369 CURVE SMOOTH",
"381 369 OFFCURVE",
"414 403 OFFCURVE",
"414 453 CURVE SMOOTH"
);
}
);
width = 627;
},
{
background = {
paths = (
{
closed = 1;
nodes = (
"513 82 OFFCURVE",
"468 143 OFFCURVE",
"380 143 CURVE SMOOTH",
"368 143 OFFCURVE",
"344 142 OFFCURVE",
"330 139 CURVE",
"330 135 OFFCURVE",
"340 131 OFFCURVE",
"340 126 CURVE SMOOTH",
"337 55 OFFCURVE",
"314 5 OFFCURVE",
"240 -22 CURVE",
"229 32 OFFCURVE",
"217 85 OFFCURVE",
"206 139 CURVE",
"251 139 OFFCURVE",
"296 139 OFFCURVE",
"341 139 CURVE",
"341 162 OFFCURVE",
"337 186 OFFCURVE",
"330 208 CURVE SMOOTH",
"324 229 OFFCURVE",
"314 247 OFFCURVE",
"301 260 CURVE SMOOTH",
"290 271 OFFCURVE",
"277 278 OFFCURVE",
"261 278 CURVE",
"229 279 OFFCURVE",
"200 274 OFFCURVE",
"174 264 CURVE SMOOTH",
"130 248 OFFCURVE",
"95 219 OFFCURVE",
"71 182 CURVE SMOOTH",
"40 137 OFFCURVE",
"25 81 OFFCURVE",
"25 26 CURVE SMOOTH",
"25 -88 OFFCURVE",
"92 -199 OFFCURVE",
"227 -199 CURVE SMOOTH",
"237 -199 OFFCURVE",
"246 -199 OFFCURVE",
"256 -199 CURVE SMOOTH",
"429 -199 OFFCURVE",
"513 -85 OFFCURVE",
"513 12 CURVE SMOOTH"
);
},
{
closed = 1;
nodes = (
"357 481 OFFCURVE",
"325 511 OFFCURVE",
"248 505 CURVE",
"212 503 OFFCURVE",
"162 485 OFFCURVE",
"165 400 CURVE SMOOTH",
"168 334 OFFCURVE",
"201 304 OFFCURVE",
"278 310 CURVE SMOOTH",
"313 312 OFFCURVE",
"364 330 OFFCURVE",
"361 415 CURVE SMOOTH"
);
}
);
};
layerId = "35B903E1-0971-4EA2-AC4E-2C87C1F50A16";
paths = (
{
closed = 1;
nodes = (
"513 82 OFFCURVE",
"468 143 OFFCURVE",
"380 143 CURVE SMOOTH",
"368 143 OFFCURVE",
"344 142 OFFCURVE",
"330 139 CURVE",
"330 135 OFFCURVE",
"340 131 OFFCURVE",
"340 126 CURVE SMOOTH",
"337 55 OFFCURVE",
"314 5 OFFCURVE",
"240 -22 CURVE",
"229 32 OFFCURVE",
"217 85 OFFCURVE",
"206 139 CURVE",
"251 139 OFFCURVE",
"296 139 OFFCURVE",
"341 139 CURVE",
"341 162 OFFCURVE",
"337 186 OFFCURVE",
"330 208 CURVE SMOOTH",
"324 229 OFFCURVE",
"314 247 OFFCURVE",
"301 260 CURVE SMOOTH",
"290 271 OFFCURVE",
"277 278 OFFCURVE",
"261 278 CURVE",
"229 279 OFFCURVE",
"200 274 OFFCURVE",
"174 264 CURVE SMOOTH",
"130 248 OFFCURVE",
"95 219 OFFCURVE",
"71 182 CURVE SMOOTH",
"40 137 OFFCURVE",
"25 81 OFFCURVE",
"25 26 CURVE SMOOTH",
"25 -88 OFFCURVE",
"92 -199 OFFCURVE",
"227 -199 CURVE SMOOTH",
"237 -199 OFFCURVE",
"246 -199 OFFCURVE",
"256 -199 CURVE SMOOTH",
"429 -199 OFFCURVE",
"513 -85 OFFCURVE",
"513 12 CURVE SMOOTH"
);
},
{
closed = 1;
nodes = (
"357 481 OFFCURVE",
"325 511 OFFCURVE",
"248 505 CURVE",
"212 503 OFFCURVE",
"162 485 OFFCURVE",
"165 400 CURVE SMOOTH",
"168 334 OFFCURVE",
"201 304 OFFCURVE",
"278 310 CURVE SMOOTH",
"313 312 OFFCURVE",
"364 330 OFFCURVE",
"361 415 CURVE SMOOTH"
);
}
);
width = 538;
}
);
unicode = 00BF;
},
{
glyphname = bullet;
lastChange = "2022-01-14 06:54:36 +0000";
layers = (
{
background = {
paths = (
{
closed = 1;
nodes = (
"78 254 OFFCURVE",
"146 182 OFFCURVE",
"249 182 CURVE SMOOTH",
"347 182 OFFCURVE",
"421 254 OFFCURVE",
"421 357 CURVE SMOOTH",
"421 460 OFFCURVE",
"347 531 OFFCURVE",
"249 531 CURVE SMOOTH",
"146 531 OFFCURVE",
"78 460 OFFCURVE",
"78 357 CURVE SMOOTH"
);
}
);
};
layerId = "116FA8D2-93BA-48BE-A336-ADFD733FF7C5";
paths = (
{
closed = 1;
nodes = (
"78 254 OFFCURVE",
"146 182 OFFCURVE",
"249 182 CURVE SMOOTH",
"347 182 OFFCURVE",
"421 254 OFFCURVE",
"421 357 CURVE SMOOTH",
"421 460 OFFCURVE",
"347 531 OFFCURVE",
"249 531 CURVE SMOOTH",
"146 531 OFFCURVE",
"78 460 OFFCURVE",
"78 357 CURVE SMOOTH"
);
}
);
width = 499;
},
{
background = {
paths = (
{
closed = 1;
nodes = (
"142 135 OFFCURVE",
"193 87 OFFCURVE",
"317 96 CURVE",
"375 100 OFFCURVE",
"456 129 OFFCURVE",
"451 266 CURVE SMOOTH",
"446 372 OFFCURVE",
"393 420 OFFCURVE",
"269 411 CURVE SMOOTH",
"212 407 OFFCURVE",
"130 378 OFFCURVE",
"135 241 CURVE SMOOTH"
);
}
);
};
layerId = "35B903E1-0971-4EA2-AC4E-2C87C1F50A16";
paths = (
{
closed = 1;
nodes = (
"142 135 OFFCURVE",
"193 87 OFFCURVE",
"317 96 CURVE",
"375 100 OFFCURVE",
"456 129 OFFCURVE",
"451 266 CURVE SMOOTH",
"446 372 OFFCURVE",
"393 420 OFFCURVE",
"269 411 CURVE SMOOTH",
"212 407 OFFCURVE",
"130 378 OFFCURVE",
"135 241 CURVE SMOOTH"
);
}
);
width = 600;
}
);
leftMetricsKey = H;
rightMetricsKey = H;
unicode = 2022;
},
